{
.appVersion = "3343";
.formatVersion = 3;
DisplayStrings = (
"◌"
);
axes = (
{
name = Weight;
tag = wght;
}
);
classes = (
{
code = "A AE AEacute Aacute Abreve Acaron Acircumflex Adieresis Agrave Amacron Aogonek Aring Atilde B C Cacute Ccaron Ccedilla Ccircumflex Cdotaccent D Dcaron Dcroat E Eacute Ebreve Ecaron Ecircumflex Edieresis Edotaccent Egrave Emacron Eng Eogonek Eth F G Gbreve Gcircumflex Gcommaaccent Gdotaccent H Hbar Hcircumflex I IJ Iacute Ibreve Icircumflex Idieresis Idotaccent Igrave Imacron Iogonek Itilde J Jcircumflex K Kcommaaccent L Lacute Lcaron Lcommaaccent Ldot Lslash M N Nacute Ncaron Ncommaaccent Ntilde O OE Oacute Obreve Ocircumflex Odieresis Ograve Ohungarumlaut Omacron Oslash Oslashacute Otilde P Q R Racute Rcaron Rcommaaccent S Sacute Scaron Scedilla Scircumflex Scommaaccent T Tbar Tcaron Tcommaaccent Thorn U Uacute Ubreve Ucircumflex Udieresis Ugrave Uhungarumlaut Umacron Uogonek Uring Utilde V W Wacute Wcircumflex Wdieresis Wgrave X Y Yacute Ycircumflex Ydieresis Ygrave Z Zacute Zcaron Zdotaccent acute.case breve.case caron.case caron.alt.case cedilla.case circumflex.case commaaccent.case dieresis.case dotaccent.case Germandbls grave.case hungarumlaut.case macron.case ogonek.case ring.case tilde.case F_B F_F F_F_B F_F_H F_F_I F_F_J F_F_K F_F_L F_F_T F_H F_I F_J F_K F_L F_T T_T
";
name = c2pc_c2sc;
},
{
code = "zero.osf one.osf two.osf three.osf four.osf five.osf six.osf seven.osf eight.osf nine.osf zero.tosf one.tosf two.tosf three.tosf four.tosf five.tosf six.tosf seven.tosf eight.tosf nine.tosf zero one two three four five six seven eight nine zero.fit one.fit two.fit three.fit four.fit five.fit six.fit seven.fit eight.fit nine.fit zero.numr one.numr two.numr three.numr four.numr five.numr six.numr seven.numr eight.numr nine.numr";
name = dnom_frac;
},
{

glyphs = (
{
color = 4;
glyphname = A;
kernLeft = KO_A;
kernRight = KO_A;
lastChange = "2024-02-12 15:02:33 +0000";
layers = (
{
anchors = (
{
name = bottom;
pos = (691,-100);
},
{
name = top;
pos = (331,450);
}
);
layerId = m001;
shapes = (
{
closed = 1;
nodes = (
(180,0,l),
(180,29,l),
(108,58,l),
(160,193,l),
(357,193,l),
(407,58,l),
(323,29,l),
(323,0,l),
(628,0,l),
(628,29,l),
(591,58,l),
(372,641,l),
(257,609,l),
(35,58,l),
(-11,29,l),
(-11,0,l)
);
},
{
closed = 1;
nodes = (
(260,455,l),
(336,248,l),
(181,248,l)
);
}
);
userData = {
com.hugojourdan.ColorFlow = {
"0" = 0;
"1" = 0;
"10" = 0;
"11" = 0;
"2" = 0;
"3" = 0;
"4" = 0;
"5" = 0;
"6" = 0;
"7" = 0;
"8" = 0;
"9" = 0;
};
};
width = 617;
},
{
anchors = (
{
name = bottom;
pos = (229,-100);
},
{
name = top;
pos = (312,450);
}
);
layerId = "E311F2CF-05EC-45EB-99C0-CA1AFFE6A9D5";
shapes = (
{
closed = 1;
nodes = (
(196,0,l),
(196,15,l),
(125,57,l),
(200,241,l),
(425,241,l),
(496,58,l),
(412,15,l),
(412,0,l),
(633,0,l),
(633,15,l),
(569,58,l),
(345,627,l),
(305,604,l),
(76,58,l),
(3,15,l),
(3,0,l)
);
},
{
closed = 1;
nodes = (
(315,525,l),
(412,275,l),
(214,275,l)
);
}
);
userData = {
com.hugojourdan.ColorFlow = {
"0" = 0;
"1" = 0;
"10" = 0;
"11" = 0;
"2" = 0;
"3" = 0;
"4" = 0;
"5" = 0;
"6" = 0;
"7" = 0;
"8" = 0;
"9" = 0;
};
};
width = 636;
}
);
unicode = 65;
userData = {
KernOnName = A;
};
},
{
color = 4;
glyphname = AE;
kernRight = KO_E;
lastChange = "2024-02-12 15:02:33 +0000";
layers = (
{
layerId = m001;
shapes = (
{
closed = 1;
nodes = (
(58,0,l),
(58,29,l),
(6,58,l),
(165,278,l),
(347,278,l),
(347,58,l),
(250,29,l),
(250,0,l),
(782,0,l),
(818,205,l),
(785,205,l),
(673,55,l),
(526,55,l),
(526,291,l),
(601,291,l),
(708,283,l),
(722,362,l),
(609,351,l),
(526,351,l),
(526,557,l),
(646,557,l),
(717,433,l),
(752,433,l),
(783,612,l),
(230,612,l),
(230,584,l),
(291,568,l),
(-71,56,l),
(-133,29,l),
(-133,0,l)
);
},
{
closed = 1;
nodes = (
(347,530,l),
(347,334,l),
(205,334,l)
);
}
);
userData = {
com.hugojourdan.ColorFlow = {
"0" = 0;
"1" = 0;
"10" = 0;
"11" = 0;
"2" = 0;
"3" = 0;
"4" = 0;
"5" = 0;
"6" = 0;
"7" = 0;
"8" = 0;
"9" = 0;
};
};
width = 844;
},
{
layerId = "E311F2CF-05EC-45EB-99C0-CA1AFFE6A9D5";
shapes = (
{
closed = 1;
nodes = (
(200,0,l),
(200,15,l),
(122,58,l),
(253,292,l),
(411,292,l),
(411,58,l),
(330,15,l),
(330,0,l),
(731,0,l),
(756,141,l),
(732,141,l),
(652,34,l),
(483,34,l),
(483,291,l),
(542,291,l),
(662,278,l),
(671,327,l),
(540,319,l),
(483,319,l),
(483,578,l),
(646,578,l),
(696,490,l),
(720,490,l),
(741,612,l),
(310,612,l),
(310,598,l),
(366,579,l),
(70,55,l),
(6,15,l),
(6,0,l)
);
},
{
closed = 1;
nodes = (
(411,573,l),
(411,325,l),
(272,325,l)
);
}
);
userData = {
com.hugojourdan.ColorFlow = {
"0" = 0;
"1" = 0;
"10" = 0;
"11" = 0;
"2" = 0;
"3" = 0;
"4" = 0;
"5" = 0;
"6" = 0;
"7" = 0;
"8" = 0;
"9" = 0;
};
};
width = 809;
}
);
unicode = 198;
},
{
color = 4;
glyphname = B;
kernLeft = KO_H;
kernRight = KO_B;
lastChange = "2024-02-12 15:02:33 +0000";
layers = (
{
anchors = (
{
name = bottom;
pos = (309,-100);
},
{
name = top;
pos = (309,450);
}
);
layerId = m001;
shapes = (
{
closed = 1;
nodes = (
(299,0,ls),
(477,0,o),
(588,62,o),
(588,188,cs),
(588,264,o),
(548,321,o),
(442,343,c),
(515,365,o),
(556,409,o),
(556,475,cs),
(556,566,o),
(445,612,o),
(363,612,cs),
(29,612,l),
(29,584,l),
(103,554,l),
(103,58,l),
(29,29,l),
(29,0,l)
);
},
{
closed = 1;
nodes = (
(332,64,o),
(297,68,o),
(281,74,c),
(281,290,l),
(412,282,o),
(422,209,o),
(422,145,cs),
(422,81,o),
(401,64,o),
(359,64,cs)
);
},
{
closed = 1;
nodes = (
(296,348,o),
(288,349,o),
(281,349,c),
(281,558,l),
(372,549,o),
(392,498,o),
(392,440,cs),
(392,359,o),
(366,348,o),
(306,348,cs)
);
}
);
userData = {
com.hugojourdan.ColorFlow = {
"0" = 0;
"1" = 0;
"10" = 0;
"11" = 0;
"2" = 0;
"3" = 0;
"4" = 0;
"5" = 0;
"6" = 0;
"7" = 0;
"8" = 0;
"9" = 0;
};
};
width = 623;
},
{
anchors = (
{
name = bottom;
pos = (277,-100);
},
{
name = top;
pos = (277,450);
}
);
layerId = "E311F2CF-05EC-45EB-99C0-CA1AFFE6A9D5";
shapes = (
{
closed = 1;
nodes = (
(265,0,ls),
(394,0,o),
(505,67,o),
(505,188,cs),
(505,257,o),
(456,311,o),
(359,328,c),
(447,366,o),
(471,426,o),
(471,475,cs),
(471,566,o),
(408,612,o),
(269,612,cs),
(50,612,l),
(50,598,l),
(124,554,l),
(124,58,l),
(50,15,l),
(50,0,l)
);
},
{
closed = 1;
nodes = (
(252,32,o),
(226,36,o),
(196,42,c),
(196,298,l),
(297,309,o),
(427,295,o),
(427,161,cs),
(427,66,o),
(387,32,o),
(284,32,cs)
);
},
{
closed = 1;
nodes = (
(251,332,o),
(220,334,o),
(196,342,c),
(196,577,l),
(315,582,o),
(392,558,o),
(392,440,cs),
(392,368,o),
(361,332,o),
(271,332,cs)
);
}
);
userData = {
com.hugojourdan.ColorFlow = {
"0" = 0;
"1" = 0;
"10" = 0;
"11" = 0;
"2" = 0;
"3" = 0;
"4" = 0;
"5" = 0;
"6" = 0;
"7" = 0;
"8" = 0;
"9" = 0;
};
};
width = 556;
}
);
unicode = 66;
},
{
color = 4;
glyphname = C;
kernLeft = KO_C;
kernRight = KO_C;
lastChange = "2024-02-12 15:02:33 +0000";
layers = (
{
anchors = (
{
name = bottom;
pos = (399,-100);
},
{
name = top;
pos = (305,450);
}
);
layerId = m001;
shapes = (
{
closed = 1;
nodes = (
(386,-19,o),
(464,-10,o),
(542,20,c),
(574,204,l),
(542,204,l),
(449,64,l),
(432,60,o),
(398,58,o),
(379,58,cs),
(291,58,o),
(220,142,o),
(220,318,cs),
(220,488,o),
(238,563,o),
(343,563,cs),
(369,563,o),
(395,562,o),
(427,549,c),
(504,439,l),
(538,439,l),
(566,598,l),
(517,623,o),
(447,631,o),
(372,631,cs),
(196,631,o),
(35,530,o),
(35,294,cs),
(35,77,o),
(152,-19,o),
(342,-19,cs)
);
}
);
userData = {
com.hugojourdan.ColorFlow = {
"0" = 0;
"1" = 0;
"10" = 0;
"11" = 0;
"2" = 0;
"3" = 0;
"4" = 0;
"5" = 0;
"6" = 0;
"7" = 0;
"8" = 0;
"9" = 0;
};
};
width = 618;
},
{
anchors = (
{
name = bottom;
pos = (262,-100);
},
{
name = top;
pos = (284,450);
}
);
layerId = "E311F2CF-05EC-45EB-99C0-CA1AFFE6A9D5";
shapes = (
{
closed = 1;
nodes = (
(375,-10,o),
(423,-5,o),
(496,23,c),
(517,142,l),
(494,142,l),
(408,34,l),
(391,30,o),
(366,28,o),
(347,28,cs),
(211,28,o),
(118,142,o),
(119,323,cs),
(118,515,o),
(208,574,o),
(308,574,cs),
(340,574,o),
(375,571,o),
(400,565,c),
(454,469,l),
(476,469,l),
(497,593,l),
(466,612,o),
(415,622,o),
(351,622,cs),
(193,622,o),
(51,498,o),
(51,294,cs),
(51,109,o),
(152,-10,o),
(315,-10,cs)
);
}
);
userData = {
com.hugojourdan.ColorFlow = {
"0" = 0;
"1" = 0;
"10" = 0;
"11" = 0;
"2" = 0;
"3" = 0;
"4" = 0;
"5" = 0;
"6" = 0;
"7" = 0;
"8" = 0;
"9" = 0;
};
};
width = 567;
}
);
unicode = 67;
userData = {
KernOnName = C;
};
},
{
color = 4;
glyphname = D;
kernLeft = KO_H;
kernRight = KO_D;
lastChange = "2024-02-12 15:02:33 +0000";
layers = (
{
anchors = (
{
name = bottom;
pos = (347,-100);
},
{
name = top;
pos = (267,450);
}
);
layerId = m001;
shapes = (
{
closed = 1;
nodes = (
(294,0,ls),
(519,0,o),
(668,135,o),
(668,328,cs),
(668,513,o),
(567,612,o),
(325,612,cs),
(29,612,l),
(29,584,l),
(103,554,l),
(103,58,l),
(29,29,l),
(29,0,l)
);
},
{
closed = 1;
nodes = (
(281,557,l),
(291,557,ls),
(438,557,o),
(483,500,o),
(483,281,cs),
(483,114,o),
(457,74,o),
(350,74,cs),
(327,74,o),
(303,76,o),
(281,81,c)
);
}
);
userData = {
com.hugojourdan.ColorFlow = {
"0" = 0;
"1" = 0;
"10" = 0;
"11" = 0;
"2" = 0;
"3" = 0;
"4" = 0;
"5" = 0;
"6" = 0;
"7" = 0;
"8" = 0;
"9" = 0;
};
};
width = 703;
},
{
anchors = (
{
name = bottom;
pos = (328,-100);
},
{
name = top;
pos = (347,450);
}
);
layerId = "E311F2CF-05EC-45EB-99C0-CA1AFFE6A9D5";
shapes = (
{
closed = 1;
nodes = (
(294,0,ls),
(473,0,o),
(606,103,o),
(606,328,cs),
(606,550,o),
(478,612,o),
(328,612,cs),
(50,612,l),
(50,598,l),
(124,554,l),
(124,58,l),
(50,15,l),
(50,0,l)
);
},
{
closed = 1;
nodes = (
(196,578,l),
(291,578,ls),
(403,578,o),
(536,500,o),
(536,295,cs),
(536,103,o),
(457,39,o),
(329,39,cs),
(278,39,o),
(230,47,o),
(196,55,c)
);
}
);
userData = {
com.hugojourdan.ColorFlow = {
"0" = 0;
"1" = 0;
"10" = 0;
"11" = 0;
"2" = 0;
"3" = 0;
"4" = 0;
"5" = 0;
"6" = 0;
"7" = 0;
"8" = 0;
"9" = 0;
};
};
width = 657;
}
);
unicode = 68;
},
{
color = 4;
glyphname = Dcroat;
kernRight = KO_D;
lastChange = "2024-02-12 15:02:33 +0000";
layers = (
{
layerId = m001;
shapes = (
{
closed = 1;
nodes = (
(405,286,l),
(405,350,l),
(38,350,l),
(38,286,l)
);
},
{
ref = D;
}
);
userData = {
com.hugojourdan.ColorFlow = {
"0" = 0;
"1" = 0;
"10" = 0;
"11" = 0;
"2" = 0;
"3" = 0;
"4" = 0;
"5" = 0;
"6" = 0;
"7" = 0;
"8" = 0;
"9" = 0;
};
};
width = 703;
},
{
layerId = "E311F2CF-05EC-45EB-99C0-CA1AFFE6A9D5";
shapes = (
{
closed = 1;
nodes = (
(374,300,l),
(374,336,l),
(38,336,l),
(38,300,l)
);
},
{
ref = D;
}
);
userData = {
com.hugojourdan.ColorFlow = {
"0" = 0;
"1" = 0;
"10" = 0;
"11" = 0;
"2" = 0;
"3" = 0;
"4" = 0;
"5" = 0;
"6" = 0;
"7" = 0;
"8" = 0;
"9" = 0;
};
};
width = 657;
}
);
unicode = 272;
},
{
color = 4;
glyphname = Eth;
kernRight = KO_D;
lastChange = "2024-02-12 15:02:33 +0000";
layers = (
{
layerId = m001;
shapes = (
{
closed = 1;
nodes = (
(404,284,l),
(404,352,l),
(29,352,l),
(29,284,l)
);
},
{
ref = D;
}
);
userData = {
com.hugojourdan.ColorFlow = {
"0" = 0;
"1" = 0;
"10" = 0;
"11" = 0;
"2" = 0;
"3" = 0;
"4" = 0;
"5" = 0;
"6" = 0;
"7" = 0;
"8" = 0;
"9" = 0;
};
};
width = 703;
},
{
layerId = "E311F2CF-05EC-45EB-99C0-CA1AFFE6A9D5";
shapes = (
{
closed = 1;
nodes = (
(383,303,l),
(383,333,l),
(50,333,l),
(50,303,l)
);
},
{
ref = D;
}
);
userData = {
com.hugojourdan.ColorFlow = {
"0" = 0;
"1" = 0;
"10" = 0;
"11" = 0;
"2" = 0;
"3" = 0;
"4" = 0;
"5" = 0;
"6" = 0;
"7" = 0;
"8" = 0;
"9" = 0;
};
};
width = 657;
}
);
unicode = 208;
},
{
color = 4;
glyphname = E;
kernLeft = KO_H;
kernRight = KO_E;
lastChange = "2024-02-12 15:02:33 +0000";
layers = (
{
anchors = (
{
name = bottom;
pos = (664,-100);
},
{
name = top;
pos = (339,450);
}
);
layerId = m001;
shapes = (
{
closed = 1;
nodes = (
(538,0,l),
(574,205,l),
(541,205,l),
(429,55,l),
(281,55,l),
(281,279,l),
(356,279,l),
(464,272,l),
(478,351,l),
(365,339,l),
(281,339,l),
(281,557,l),
(403,557,l),
(475,433,l),
(508,433,l),
(539,612,l),
(29,612,l),
(29,584,l),
(103,554,l),
(103,58,l),
(29,29,l),
(29,0,l)
);
}
);
userData = {
com.hugojourdan.ColorFlow = {
"0" = 0;
"1" = 0;
"10" = 0;
"11" = 0;
"2" = 0;
"3" = 0;
"4" = 0;
"5" = 0;
"6" = 0;
"7" = 0;
"8" = 0;
"9" = 0;
};
};
width = 600;
},
{
anchors = (
{
name = bottom;
pos = (175,-100);
},
{
name = top;
pos = (250,450);
}
);
layerId = "E311F2CF-05EC-45EB-99C0-CA1AFFE6A9D5";
shapes = (
{
closed = 1;
nodes = (
(445,0,l),
(469,141,l),
(445,141,l),
(367,34,l),
(196,34,l),
(196,306,l),
(255,306,l),
(375,293,l),
(384,342,l),
(253,334,l),
(196,334,l),
(196,578,l),
(358,578,l),
(408,490,l),
(433,490,l),
(454,612,l),
(50,612,l),
(50,598,l),
(124,554,l),
(124,58,l),
(50,15,l),
(50,0,l)
);
}
);
userData = {
com.hugojourdan.ColorFlow = {
"0" = 0;
"1" = 0;
"10" = 0;
"11" = 0;
"2" = 0;
"3" = 0;
"4" = 0;
"5" = 0;
"6" = 0;
"7" = 0;
"8" = 0;
"9" = 0;
};
};
width = 522;
},
{
anchors = (
{
name = bottom;
pos = (175,-100);
},
{
name = top;
pos = (250,450);
}
);
associatedMasterId = "E311F2CF-05EC-45EB-99C0-CA1AFFE6A9D5";
layerId = "179E60E4-E344-4CE2-89B9-BCC4FF265511";
name = "2 de oct. de 23, 11:33";
shapes = (
{
closed = 1;
nodes = (
(442,0,l),
(469,141,l),
(445,141,l),
(365,34,l),
(196,34,l),
(196,306,l),
(255,306,l),
(375,293,l),
(384,342,l),
(253,334,l),
(196,334,l),
(196,578,l),
(358,578,l),
(408,490,l),
(433,490,l),
(454,612,l),
(50,612,l),
(50,598,l),
(124,554,l),
(124,58,l),
(50,15,l),
(50,0,l)
);
}
);
width = 522;
}
);
unicode = 69;
},
{
color = 4;
glyphname = F;
kernLeft = KO_F;
kernRight = KO_F;
lastChange = "2024-02-12 15:02:33 +0000";
layers = (
{
anchors = (
{
name = bottom;
pos = (288,-100);
},
{
name = top;
pos = (288,450);
}
);
layerId = m001;
shapes = (
{
closed = 1;
nodes = (
(355,0,l),
(355,30,l),
(279,58,l),
(279,271,l),
(354,271,l),
(461,264,l),
(476,343,l),
(363,332,l),
(279,332,l),
(279,557,l),
(403,557,l),
(475,433,l),
(508,433,l),
(539,612,l),
(26,612,l),
(26,584,l),
(100,554,l),
(100,58,l),
(26,29,l),
(26,0,l)
);
}
);
userData = {
com.hugojourdan.ColorFlow = {
"0" = 0;
"1" = 0;
"10" = 0;
"11" = 0;
"2" = 0;
"3" = 0;
"4" = 0;
"5" = 0;
"6" = 0;
"7" = 0;
"8" = 0;
"9" = 0;
};
};
width = 565;
},
{
anchors = (
{
name = bottom;
pos = (247,-100);
},
{
name = top;
pos = (247,450);
}
);
layerId = "E311F2CF-05EC-45EB-99C0-CA1AFFE6A9D5";
shapes = (
{
closed = 1;
nodes = (
(298,0,l),
(298,14,l),
(199,58,l),
(199,296,l),
(258,296,l),
(378,283,l),
(387,332,l),
(256,323,l),
(199,323,l),
(199,578,l),
(361,578,l),
(411,490,l),
(436,490,l),
(457,612,l),
(53,612,l),
(53,598,l),
(127,554,l),
(127,58,l),
(53,15,l),
(53,0,l)
);
}
);
userData = {
com.hugojourdan.ColorFlow = {
"0" = 0;
"1" = 0;
"10" = 0;
"11" = 0;
"2" = 0;
"3" = 0;
"4" = 0;
"5" = 0;
"6" = 0;
"7" = 0;
"8" = 0;
"9" = 0;
};
};
width = 480;
},
{
anchors = (
{
name = bottom;
pos = (288,-100);
},
{
name = top;
pos = (288,450);
}
);
associatedMasterId = m001;
layerId = "19DE1D86-EEAD-4554-B42C-BBF94701302A";
name = "29 de sep. de 23, 9:41";
shapes = (
{
closed = 1;
nodes = (
(351,0,l),
(351,30,l),
(279,58,l),
(279,271,l),
(354,271,l),
(461,264,l),
(476,343,l),
(363,332,l),
(279,332,l),
(279,557,l),
(401,557,l),
(473,433,l),
(505,433,l),
(537,612,l),
(26,612,l),
(26,584,l),
(100,554,l),
(100,58,l),
(26,29,l),
(26,0,l)
);
}
);
width = 565;
}
);
unicode = 70;
},
{
color = 4;
glyphname = G;
kernLeft = KO_G;
lastChange = "2024-02-12 15:02:33 +0000";
layers = (
{
anchors = (
{
name = bottom;
pos = (347,-100);
},
{
name = top;
pos = (347,450);
}
);
layerId = m001;
shapes = (
{
closed = 1;
nodes = (
(417,-19,o),
(525,-2,o),
(597,43,c),
(597,246,l),
(661,275,l),
(661,304,l),
(357,304,l),
(357,276,l),
(431,246,l),
(431,64,l),
(415,60,o),
(395,58,o),
(370,58,cs),
(297,58,o),
(220,119,o),
(220,315,cs),
(220,508,o),
(251,563,o),
(352,563,cs),
(377,563,o),
(427,556,o),
(461,545,c),
(540,435,l),
(576,435,l),
(603,595,l),
(579,611,o),
(468,631,o),
(385,631,cs),
(177,631,o),
(35,515,o),
(35,294,cs),
(35,59,o),
(168,-19,o),
(349,-19,cs)
);
}
);
userData = {
com.hugojourdan.ColorFlow = {
"0" = 0;
"1" = 0;
"10" = 0;
"11" = 0;
"2" = 0;
"3" = 0;
"4" = 0;
"5" = 0;
"6" = 0;
"7" = 0;
"8" = 0;
"9" = 0;
};
};
width = 654;
},
{
anchors = (
{
name = bottom;
pos = (310,-100);
},
{
name = top;
pos = (310,450);
}
);
layerId = "E311F2CF-05EC-45EB-99C0-CA1AFFE6A9D5";
shapes = (
{
closed = 1;
nodes = (
(406,-10,o),
(456,3,o),
(506,22,c),
(506,216,l),
(570,259,l),
(570,274,l),
(366,274,l),
(366,260,l),
(440,216,l),
(440,39,l),
(416,31,o),
(388,28,o),
(359,28,cs),
(212,28,o),
(119,149,o),
(119,324,cs),
(119,511,o),
(198,574,o),
(311,574,cs),
(347,574,o),
(395,570,o),
(413,564,c),
(466,470,l),
(489,470,l),
(510,592,l),
(468,611,o),
(422,622,o),
(348,622,cs),
(198,622,o),
(51,501,o),
(51,294,cs),
(51,110,o),
(143,-10,o),
(324,-10,cs)
);
}
);
userData = {
com.hugojourdan.ColorFlow = {
"0" = 0;
"1" = 0;
"10" = 0;
"11" = 0;
"2" = 0;
"3" = 0;
"4" = 0;
"5" = 0;
"6" = 0;
"7" = 0;
"8" = 0;
"9" = 0;
};
};
width = 601;
},
{
anchors = (
{
name = bottom;
pos = (347,-100);
},
{
name = top;
pos = (347,450);
}
);
associatedMasterId = m001;
layerId = "4A613D04-618F-4613-98FD-D082F8EFA931";
name = "29 de sep. de 23, 9:54";
shapes = (
{
closed = 1;
nodes = (
(417,-19,o),
(525,-2,o),
(597,43,c),
(597,246,l),
(661,275,l),
(661,304,l),
(353,304,l),
(353,276,l),
(431,246,l),
(431,64,l),
(415,60,o),
(395,58,o),
(370,58,cs),
(297,58,o),
(220,119,o),
(220,315,cs),
(220,508,o),
(251,563,o),
(352,563,cs),
(377,563,o),
(427,556,o),
(461,545,c),
(538,435,l),
(574,435,l),
(603,595,l),
(579,614,o),
(468,631,o),
(385,631,cs),
(177,631,o),
(35,515,o),
(35,294,cs),
(35,59,o),
(168,-19,o),
(349,-19,cs)
);
}
);
width = 654;
},
{
anchors = (
{
name = bottom;
pos = (310,-100);
},
{
name = top;
pos = (310,450);
}
);
associatedMasterId = "E311F2CF-05EC-45EB-99C0-CA1AFFE6A9D5";
layerId = "F1E67387-BDE5-469F-BEC8-C0847BC1B8F3";
name = "2 de oct. de 23, 11:43";
shapes = (
{
closed = 1;
nodes = (
(406,-10,o),
(456,3,o),
(506,22,c),
(506,216,l),
(570,259,l),
(570,274,l),
(366,274,l),
(366,260,l),
(440,216,l),
(440,39,l),
(416,31,o),
(388,28,o),
(359,28,cs),
(212,28,o),
(119,149,o),
(119,324,cs),
(119,511,o),
(198,574,o),
(311,574,cs),
(347,574,o),
(395,570,o),
(413,564,c),
(465,470,l),
(488,470,l),
(510,592,l),
(468,611,o),
(422,622,o),
(348,622,cs),
(198,622,o),
(51,501,o),
(51,294,cs),
(51,110,o),
(143,-10,o),
(324,-10,cs)
);
}
);
width = 601;
}
);
unicode = 71;
},
{
color = 4;
glyphname = H;
kernLeft = KO_H;
kernRight = KO_H;
lastChange = "2024-02-13 16:01:41 +0000";
layers = (
{
anchors = (
{
name = bottom;
pos = (372,-100);
},
{
name = top;
pos = (372,450);
}
);
layerId = m001;
shapes = (
{
closed = 1;
nodes = (
(345,0,l),
(345,30,l),
(281,58,l),
(281,284,l),
(463,284,l),
(463,58,l),
(399,29,l),
(399,0,l),
(715,0,l),
(715,30,l),
(641,58,l),
(641,554,l),
(715,583,l),
(715,612,l),
(399,612,l),
(399,584,l),
(463,554,l),
(463,352,l),
(281,352,l),
(281,554,l),
(345,583,l),
(345,612,l),
(29,612,l),
(29,584,l),
(103,554,l),
(103,58,l),
(29,29,l),
(29,0,l)
);
}
);
userData = {
com.hugojourdan.ColorFlow = {
"0" = 0;
"1" = 0;
"10" = 0;
"11" = 0;
"2" = 0;
"3" = 0;
"4" = 0;
"5" = 0;
"6" = 0;
"7" = 0;
"8" = 0;
"9" = 0;
};
};
width = 744;
},
{
anchors = (
{
name = bottom;
pos = (356,-100);
},
{
name = top;
pos = (356,450);
}
);
layerId = "E311F2CF-05EC-45EB-99C0-CA1AFFE6A9D5";
shapes = (
{
closed = 1;
nodes = (
(272,0,l),
(272,14,l),
(196,58,l),
(196,303,l),
(516,303,l),
(516,58,l),
(440,15,l),
(440,0,l),
(662,0,l),
(662,14,l),
(588,58,l),
(588,554,l),
(662,597,l),
(662,612,l),
(440,612,l),
(440,598,l),
(516,554,l),
(516,333,l),
(196,333,l),
(196,554,l),
(272,597,l),
(272,612,l),
(50,612,l),
(50,598,l),
(124,554,l),
(124,58,l),
(50,15,l),
(50,0,l)
);
}
);
userData = {
com.hugojourdan.ColorFlow = {
"0" = 0;
"1" = 0;
"10" = 0;
"11" = 0;
"2" = 0;
"3" = 0;
"4" = 0;
"5" = 0;
"6" = 0;
"7" = 0;
"8" = 0;
"9" = 0;
};
};
width = 712;
}
);
unicode = 72;
userData = {
KernOnName = H;
};
},
{
color = 4;
glyphname = Hbar;
lastChange = "2024-02-12 15:02:33 +0000";
layers = (
{
layerId = m001;
shapes = (
{
closed = 1;
nodes = (
(717,414,l),
(717,482,l),
(27,482,l),
(27,414,l)
);
},
{
ref = H;
}
);
userData = {
com.hugojourdan.ColorFlow = {
"0" = 0;
"1" = 0;
"10" = 0;
"11" = 0;
"2" = 0;
"3" = 0;
"4" = 0;
"5" = 0;
"6" = 0;
"7" = 0;
"8" = 0;
"9" = 0;
};
};
width = 744;
},
{
layerId = "E311F2CF-05EC-45EB-99C0-CA1AFFE6A9D5";
shapes = (
{
closed = 1;
nodes = (
(669,433,l),
(669,463,l),
(43,463,l),
(43,433,l)
);
},
{
ref = H;
}
);
userData = {
com.hugojourdan.ColorFlow = {
"0" = 0;
"1" = 0;
"10" = 0;
"11" = 0;
"2" = 0;
"3" = 0;
"4" = 0;
"5" = 0;
"6" = 0;
"7" = 0;
"8" = 0;
"9" = 0;
};
};
width = 712;
}
);
unicode = 294;
},
{
color = 4;
glyphname = I;
kernLeft = KO_H;
kernRight = KO_H;
lastChange = "2024-02-12 15:02:33 +0000";
layers = (
{
anchors = (
{
name = bottom;
pos = (192,-100);
},
{
name = top;
pos = (192,450);
}
);
layerId = m001;
shapes = (
{
closed = 1;
nodes = (
(355,0,l),
(355,30,l),
(281,58,l),
(281,554,l),
(355,583,l),
(355,612,l),
(29,612,l),
(29,584,l),
(103,554,l),
(103,58,l),
(29,29,l),
(29,0,l)
);
}
);
userData = {
com.hugojourdan.ColorFlow = {
"0" = 0;
"1" = 0;
"10" = 0;
"11" = 0;
"2" = 0;
"3" = 0;
"4" = 0;
"5" = 0;
"6" = 0;
"7" = 0;
"8" = 0;
"9" = 0;
};
};
width = 384;
},
{
anchors = (
{
name = bottom;
pos = (160,-100);
},
{
name = top;
pos = (160,450);
}
);
layerId = "E311F2CF-05EC-45EB-99C0-CA1AFFE6A9D5";
shapes = (
{
closed = 1;
nodes = (
(270,0,l),
(270,14,l),
(196,58,l),
(196,554,l),
(270,597,l),
(270,612,l),
(50,612,l),
(50,598,l),
(124,554,l),
(124,58,l),
(50,15,l),
(50,0,l)
);
}
);
userData = {
com.hugojourdan.ColorFlow = {
"0" = 0;
"1" = 0;
"10" = 0;
"11" = 0;
"2" = 0;
"3" = 0;
"4" = 0;
"5" = 0;
"6" = 0;
"7" = 0;
"8" = 0;
"9" = 0;
};
};
width = 320;
}
);
unicode = 73;
},
{
color = 4;
glyphname = J;
kernLeft = KO_J;
kernRight = KO_N;
lastChange = "2024-02-12 15:02:33 +0000";
layers = (
{
anchors = (
{
name = bottom;
pos = (190,-100);
},
{
name = top;
pos = (190,450);
}
);
layerId = m001;
shapes = (
{
closed = 1;
nodes = (
(5,-11,o),
(49,-19,o),
(88,-19,cs),
(213,-19,o),
(314,62,o),
(314,167,cs),
(314,550,l),
(388,583,l),
(388,612,l),
(53,612,l),
(53,584,l),
(135,550,l),
(135,107,ls),
(135,41,o),
(129,26,o),
(92,33,c),
(38,142,l),
(4,142,l),
(-21,-4,l)
);
}
);
userData = {
com.hugojourdan.ColorFlow = {
"0" = 0;
"1" = 0;
"10" = 0;
"11" = 0;
"2" = 0;
"3" = 0;
"4" = 0;
"5" = 0;
"6" = 0;
"7" = 0;
"8" = 0;
"9" = 0;
};
};
width = 398;
},
{
anchors = (
{
name = bottom;
pos = (176,-100);
},
{
name = top;
pos = (176,450);
}
);
layerId = "E311F2CF-05EC-45EB-99C0-CA1AFFE6A9D5";
shapes = (
{
closed = 1;
nodes = (
(39,-6,o),
(63,-10,o),
(88,-10,cs),
(178,-10,o),
(263,43,o),
(263,148,cs),
(263,554,l),
(337,597,l),
(337,612,l),
(103,612,l),
(103,598,l),
(192,554,l),
(192,118,ls),
(192,46,o),
(154,26,o),
(122,17,c),
(56,83,l),
(34,83,l),
(20,1,l)
);
}
);
userData = {
com.hugojourdan.ColorFlow = {
"0" = 0;
"1" = 0;
"10" = 0;
"11" = 0;
"2" = 0;
"3" = 0;
"4" = 0;
"5" = 0;
"6" = 0;
"7" = 0;
"8" = 0;
"9" = 0;
};
};
width = 379;
},
{
anchors = (
{
name = bottom;
pos = (190,-100);
},
{
name = top;
pos = (190,450);
}
);
associatedMasterId = m001;
layerId = "129BA13D-4BBE-436D-8339-79008B0FA67B";
name = "29 de sep. de 23, 9:37";
shapes = (
{
closed = 1;
nodes = (
(5,-11,o),
(49,-19,o),
(88,-19,cs),
(213,-19,o),
(314,62,o),
(314,167,cs),
(314,554,l),
(388,583,l),
(388,612,l),
(53,612,l),
(53,584,l),
(135,554,l),
(135,107,ls),
(135,41,o),
(129,26,o),
(92,33,c),
(47,142,l),
(13,142,l),
(-21,-4,l)
);
}
);
width = 398;
}
);
unicode = 74;
},
{
color = 4;
glyphname = K;
kernLeft = KO_H;
kernRight = KO_K;
lastChange = "2024-02-12 15:02:33 +0000";
layers = (
{
anchors = (
{
name = bottom;
pos = (369,-100);
},
{
name = top;
pos = (369,450);
}
);
layerId = m001;
shapes = (
{
closed = 1;
nodes = (
(355,0,l),
(355,30,l),
(281,58,l),
(281,554,l),
(355,583,l),
(355,612,l),
(29,612,l),
(29,584,l),
(103,554,l),
(103,58,l),
(29,29,l),
(29,0,l)
);
},
{
closed = 1;
nodes = (
(503,0,l),
(710,0,l),
(710,29,l),
(682,47,l),
(428,367,l),
(634,555,l),
(679,583,l),
(679,612,l),
(447,612,l),
(447,583,l),
(520,554,l),
(281,316,l)
);
}
);
userData = {
com.hugojourdan.ColorFlow = {
"0" = 0;
"1" = 0;
"10" = 0;
"11" = 0;
"2" = 0;
"3" = 0;
"4" = 0;
"5" = 0;
"6" = 0;
"7" = 0;
"8" = 0;
"9" = 0;
};
};
width = 717;
},
{
anchors = (
{
name = bottom;
pos = (332,-100);
},
{
name = top;
pos = (332,450);
}
);
layerId = "E311F2CF-05EC-45EB-99C0-CA1AFFE6A9D5";
shapes = (
{
closed = 1;
nodes = (
(270,0,l),
(270,14,l),
(196,58,l),
(196,554,l),
(270,597,l),
(270,612,l),
(50,612,l),
(50,598,l),
(124,554,l),
(124,58,l),
(50,15,l),
(50,0,l)
);
},
{
closed = 1;
nodes = (
(484,0,l),
(614,0,l),
(614,15,l),
(538,58,l),
(282,345,l),
(514,558,l),
(583,597,l),
(583,612,l),
(396,612,l),
(396,597,l),
(457,559,l),
(207,325,l)
);
}
);
userData = {
com.hugojourdan.ColorFlow = {
"0" = 0;
"1" = 0;
"10" = 0;
"11" = 0;
"2" = 0;
"3" = 0;
"4" = 0;
"5" = 0;
"6" = 0;
"7" = 0;
"8" = 0;
"9" = 0;
};
};
width = 612;
}
);
unicode = 75;
},
{
color = 4;
glyphname = L;
kernLeft = KO_H;
kernRight = KO_L;
lastChange = "2024-02-12 15:02:33 +0000";
layers = (
{
anchors = (
{
name = bottom;
pos = (291,-100);
},
{
name = top;
pos = (291,450);
}
);
layerId = m001;
shapes = (
{
closed = 1;
nodes = (
(515,0,l),
(552,224,l),
(520,224,l),
(392,55,l),
(281,55,l),
(281,554,l),
(355,583,l),
(355,612,l),
(29,612,l),
(29,584,l),
(103,554,l),
(103,58,l),
(29,29,l),
(29,0,l)
);
}
);
userData = {
com.hugojourdan.ColorFlow = {
"0" = 0;
"1" = 0;
"10" = 0;
"11" = 0;
"2" = 0;
"3" = 0;
"4" = 0;
"5" = 0;
"6" = 0;
"7" = 0;
"8" = 0;
"9" = 0;
};
};
width = 557;
},
{
anchors = (
{
name = bottom;
pos = (275,-100);
},
{
name = top;
pos = (275,450);
}
);
layerId = "E311F2CF-05EC-45EB-99C0-CA1AFFE6A9D5";
shapes = (
{
closed = 1;
nodes = (
(475,0,l),
(501,149,l),
(477,149,l),
(395,34,l),
(196,34,l),
(196,554,l),
(295,597,l),
(295,612,l),
(50,612,l),
(50,598,l),
(124,554,l),
(124,58,l),
(50,15,l),
(50,0,l)
);
}
);
userData = {
com.hugojourdan.ColorFlow = {
"0" = 0;
"1" = 0;
"10" = 0;
"11" = 0;
"2" = 0;
"3" = 0;
"4" = 0;
"5" = 0;
"6" = 0;
"7" = 0;
"8" = 0;
"9" = 0;
};
};
width = 522;
},
{
anchors = (
{
name = bottom;
pos = (275,-100);
},
{
name = top;
pos = (275,450);
}
);
associatedMasterId = "E311F2CF-05EC-45EB-99C0-CA1AFFE6A9D5";
layerId = "BCADBD51-4AEA-42F3-933E-83FF356C6561";
name = "2 de oct. de 23, 11:48";
shapes = (
{
closed = 1;
nodes = (
(472,0,l),
(501,149,l),
(477,149,l),
(392,34,l),
(196,34,l),
(196,554,l),
(295,597,l),
(295,612,l),
(50,612,l),
(50,598,l),
(124,554,l),
(124,58,l),
(50,15,l),
(50,0,l)
);
}
);
width = 522;
}
);
unicode = 76;
userData = {
KernOnName = L;
};
},
{
color = 4;
glyphname = Lslash;
lastChange = "2024-02-12 15:02:33 +0000";
layers = (
{
layerId = m001;
shapes = (
{
closed = 1;
nodes = (
(389,375,l),
(389,435,l),
(29,280,l),
(29,221,l)
);
},
{
ref = L;
}
);
userData = {
com.hugojourdan.ColorFlow = {
"0" = 0;
"1" = 0;
"10" = 0;
"11" = 0;
"2" = 0;
"3" = 0;
"4" = 0;
"5" = 0;
"6" = 0;
"7" = 0;
"8" = 0;
"9" = 0;
};
};
width = 557;
},
{
layerId = "E311F2CF-05EC-45EB-99C0-CA1AFFE6A9D5";
shapes = (
{
closed = 1;
nodes = (
(320,356,l),
(320,394,l),
(50,280,l),
(50,242,l)
);
},
{
ref = L;
}
);
userData = {
com.hugojourdan.ColorFlow = {
"0" = 0;
"1" = 0;
"10" = 0;
"11" = 0;
"2" = 0;
"3" = 0;
"4" = 0;
"5" = 0;
"6" = 0;
"7" = 0;
"8" = 0;
"9" = 0;
};
};
width = 522;
}
);
unicode = 321;
},
{
color = 4;
glyphname = M;
kernLeft = KO_M;
kernRight = KO_M;
lastChange = "2024-02-12 15:02:33 +0000";
layers = (
{
anchors = (
{
name = bottom;
pos = (461,-100);
},
{
name = top;
pos = (461,450);
}
);
layerId = m001;
shapes = (
{
closed = 1;
nodes = (
(254,0,l),
(254,30,l),
(180,58,l),
(192,454,l),
(374,13,l),
(483,45,l),
(647,459,l),
(659,58,l),
(585,29,l),
(585,0,l),
(912,0,l),
(912,30,l),
(838,58,l),
(808,554,l),
(882,583,l),
(882,612,l),
(636,612,l),
(482,206,l),
(310,612,l),
(36,612,l),
(36,584,l),
(110,554,l),
(85,58,l),
(11,29,l),
(11,0,l)
);
}
);
userData = {
com.hugojourdan.ColorFlow = {
"0" = 0;
"1" = 0;
"10" = 0;
"11" = 0;
"2" = 0;
"3" = 0;
"4" = 0;
"5" = 0;
"6" = 0;
"7" = 0;
"8" = 0;
"9" = 0;
};
};
width = 916;
},
{
anchors = (
{
name = bottom;
pos = (424,-100);
},
{
name = top;
pos = (424,450);
}
);
layerId = "E311F2CF-05EC-45EB-99C0-CA1AFFE6A9D5";
shapes = (
{
closed = 1;
nodes = (
(217,0,l),
(217,14,l),
(143,58,l),
(175,529,l),
(385,22,l),
(426,45,l),
(647,527,l),
(675,58,l),
(601,15,l),
(601,0,l),
(821,0,l),
(821,14,l),
(747,58,l),
(717,554,l),
(791,597,l),
(791,612,l),
(636,612,l),
(418,125,l),
(214,612,l),
(63,612,l),
(63,598,l),
(137,554,l),
(101,58,l),
(27,15,l),
(27,0,l)
);
}
);
userData = {
com.hugojourdan.ColorFlow = {
"0" = 0;
"1" = 0;
"10" = 0;
"11" = 0;
"2" = 0;
"3" = 0;
"4" = 0;
"5" = 0;
"6" = 0;
"7" = 0;
"8" = 0;
"9" = 0;
};
};
width = 857;
}
);
unicode = 77;
},
{
color = 4;
glyphname = N;
kernLeft = KO_N;
kernRight = KO_N;
lastChange = "2024-02-12 15:02:33 +0000";
layers = (
{
anchors = (
{
name = bottom;
pos = (341,-100);
},
{
name = top;
pos = (341,450);
}
);
layerId = m001;
shapes = (
{
closed = 1;
nodes = (
(281,0,l),
(281,30,l),
(185,58,l),
(185,378,l),
(532,-13,l),
(615,-13,l),
(615,554,l),
(689,583,l),
(689,612,l),
(424,612,l),
(424,582,l),
(520,554,l),
(520,261,l),
(211,612,l),
(16,612,l),
(16,584,l),
(89,554,l),
(90,58,l),
(16,29,l),
(16,0,l)
);
}
);
userData = {
com.hugojourdan.ColorFlow = {
"0" = 0;
"1" = 0;
"10" = 0;
"11" = 0;
"2" = 0;
"3" = 0;
"4" = 0;
"5" = 0;
"6" = 0;
"7" = 0;
"8" = 0;
"9" = 0;
};
};
width = 705;
},
{
anchors = (
{
name = bottom;
pos = (346,-100);
},
{
name = top;
pos = (346,450);
}
);
layerId = "E311F2CF-05EC-45EB-99C0-CA1AFFE6A9D5";
shapes = (
{
closed = 1;
nodes = (
(233,0,l),
(233,14,l),
(164,58,l),
(164,506,l),
(537,3,l),
(564,3,l),
(564,554,l),
(638,597,l),
(638,612,l),
(454,612,l),
(454,598,l),
(523,554,l),
(523,155,l),
(181,612,l),
(48,612,l),
(48,598,l),
(122,554,l),
(122,58,l),
(48,15,l),
(48,0,l)
);
}
);
userData = {
com.hugojourdan.ColorFlow = {
"0" = 0;
"1" = 0;
"10" = 0;
"11" = 0;
"2" = 0;
"3" = 0;
"4" = 0;
"5" = 0;
"6" = 0;
"7" = 0;
"8" = 0;
"9" = 0;
};
};
width = 686;
},
{
anchors = (
{
name = bottom;
pos = (341,-100);
},
{
name = top;
pos = (341,450);
}
);
associatedMasterId = m001;
layerId = "DF424E02-5ECF-4DA7-A3A1-7E99F2AB127E";
name = "2 de oct. de 23, 11:49";
shapes = (
{
closed = 1;
nodes = (
(281,0,l),
(281,30,l),
(185,58,l),
(185,393,l),
(231,316,l),
(532,-13,l),
(615,-13,l),
(615,554,l),
(689,583,l),
(689,612,l),
(424,612,l),
(424,582,l),
(520,554,l),
(520,246,l),
(475,316,l),
(211,612,l),
(16,612,l),
(16,584,l),
(89,554,l),
(90,58,l),
(16,29,l),
(16,0,l)
);
}
);
width = 705;
},
{
anchors = (
{
name = bottom;
pos = (346,-100);
},
{
name = top;
pos = (346,450);
}
);
associatedMasterId = "E311F2CF-05EC-45EB-99C0-CA1AFFE6A9D5";
layerId = "7B80CE85-8C27-4909-BE5F-171A36DB6D62";
name = "2 de oct. de 23, 11:50";
shapes = (
{
closed = 1;
nodes = (
(233,0,l),
(233,14,l),
(164,58,l),
(164,506,l),
(188,476,l),
(537,3,l),
(564,3,l),
(564,554,l),
(638,597,l),
(638,612,l),
(454,612,l),
(454,598,l),
(523,554,l),
(523,155,l),
(491,201,l),
(181,612,l),
(48,612,l),
(48,598,l),
(122,554,l),
(122,58,l),
(48,15,l),
(48,0,l)
);
}
);
width = 686;
}
);
unicode = 78;
userData = {
KernOnName = N;
};
},
{
color = 4;
glyphname = Eng;
lastChange = "2024-02-12 15:02:33 +0000";
layers = (
{
layerId = m001;
shapes = (
{
closed = 1;
nodes = (
(281,0,l),
(281,30,l),
(185,58,l),
(185,385,l),
(225,325,l),
(520,0,l),
(520,-44,ls),
(520,-108,o),
(513,-124,o),
(493,-118,c),
(415,-34,l),
(387,-34,l),
(366,-154,l),
(390,-165,o),
(428,-169,o),
(455,-169,cs),
(541,-169,o),
(614,-124,o),
(614,-22,c),
(615,554,l),
(689,583,l),
(689,612,l),
(424,612,l),
(424,584,l),
(520,554,l),
(520,257,l),
(479,310,l),
(211,612,l),
(16,612,l),
(16,584,l),
(67,563,l),
(90,529,l),
(90,58,l),
(16,29,l),
(16,0,l)
);
}
);
userData = {
com.hugojourdan.ColorFlow = {
"0" = 0;
"1" = 0;
"10" = 0;
"11" = 0;
"2" = 0;
"3" = 0;
"4" = 0;
"5" = 0;
"6" = 0;
"7" = 0;
"8" = 0;
"9" = 0;
};
};
width = 705;
},
{
layerId = "E311F2CF-05EC-45EB-99C0-CA1AFFE6A9D5";
shapes = (
{
closed = 1;
nodes = (
(233,0,l),
(233,14,l),
(164,58,l),
(164,519,l),
(193,469,l),
(523,21,l),
(523,-7,ls),
(523,-89,o),
(486,-124,o),
(431,-132,c),
(386,-75,l),
(363,-75,l),
(350,-149,l),
(365,-154,o),
(382,-160,o),
(414,-160,cs),
(493,-160,o),
(561,-108,o),
(564,5,cs),
(564,554,l),
(638,597,l),
(638,612,l),
(454,612,l),
(454,598,l),
(523,554,l),
(523,141,l),
(493,200,l),
(181,612,l),
(48,612,l),
(48,598,l),
(105,564,l),
(122,554,l),
(122,58,l),
(48,15,l),
(48,0,l)
);
}
);
userData = {
com.hugojourdan.ColorFlow = {
"0" = 0;
"1" = 0;
"10" = 0;
"11" = 0;
"2" = 0;
"3" = 0;
"4" = 0;
"5" = 0;
"6" = 0;
"7" = 0;
"8" = 0;
"9" = 0;
};
};
width = 686;
},
{
associatedMasterId = m001;
layerId = "1D058984-4B98-4A46-AFF1-16D5BEE23294";
name = "2 de oct. de 23, 11:34";
shapes = (
{
closed = 1;
nodes = (
(281,0,l),
(281,30,l),
(185,58,l),
(185,385,l),
(225,325,l),
(520,0,l),
(520,-44,ls),
(520,-108,o),
(513,-124,o),
(493,-118,c),
(423,-34,l),
(395,-34,l),
(366,-154,l),
(390,-165,o),
(428,-169,o),
(455,-169,cs),
(541,-169,o),
(614,-124,o),
(614,-22,c),
(615,554,l),
(689,583,l),
(689,612,l),
(424,612,l),
(424,584,l),
(520,554,l),
(520,257,l),
(479,310,l),
(211,612,l),
(16,612,l),
(16,584,l),
(67,563,l),
(90,529,l),
(90,58,l),
(16,29,l),
(16,0,l)
);
}
);
width = 705;
}
);
unicode = 330;
},
{
color = 4;
glyphname = O;
kernLeft = KO_O;
kernRight = KO_O;
lastChange = "2024-02-12 15:02:33 +0000";
layers = (
{
anchors = (
{
name = bottom;
pos = (355,-100);
},
{
name = top;
pos = (355,450);
}
);
layerId = m001;
shapes = (
{
closed = 1;
nodes = (
(498,-19,o),
(674,62,o),
(674,318,cs),
(674,528,o),
(554,631,o),
(390,631,cs),
(214,631,o),
(35,547,o),
(35,292,cs),
(35,92,o),
(143,-19,o),
(318,-19,cs)
);
},
{
closed = 1;
nodes = (
(259,55,o),
(223,151,o),
(223,337,cs),
(223,514,o),
(255,560,o),
(330,560,cs),
(451,560,o),
(486,463,o),
(486,274,cs),
(486,103,o),
(453,55,o),
(382,55,cs)
);
}
);
userData = {
com.hugojourdan.ColorFlow = {
"0" = 0;
"1" = 0;
"10" = 0;
"11" = 0;
"2" = 0;
"3" = 0;
"4" = 0;
"5" = 0;
"6" = 0;
"7" = 0;
"8" = 0;
"9" = 0;
};
};
width = 709;
},
{
anchors = (
{
name = bottom;
pos = (328,-100);
},
{
name = top;
pos = (328,450);
}
);
layerId = "E311F2CF-05EC-45EB-99C0-CA1AFFE6A9D5";
shapes = (
{
closed = 1;
nodes = (
(466,-10,o),
(605,119,o),
(605,318,cs),
(605,507,o),
(506,622,o),
(349,622,cs),
(189,622,o),
(51,494,o),
(51,295,cs),
(51,92,o),
(168,-10,o),
(313,-10,cs)
);
},
{
closed = 1;
nodes = (
(234,41,o),
(118,130,o),
(118,318,cs),
(118,509,o),
(180,571,o),
(311,571,cs),
(424,571,o),
(539,484,o),
(539,295,cs),
(539,103,o),
(478,41,o),
(345,41,cs)
);
}
);
userData = {
com.hugojourdan.ColorFlow = {
"0" = 0;
"1" = 0;
"10" = 0;
"11" = 0;
"2" = 0;
"3" = 0;
"4" = 0;
"5" = 0;
"6" = 0;
"7" = 0;
"8" = 0;
"9" = 0;
};
};
width = 656;
}
);
unicode = 79;
userData = {
KernOnName = O;
};
},
{
color = 4;
glyphname = Oslash;
lastChange = "2024-02-12 15:02:33 +0000";
layers = (
{
layerId = m001;
shapes = (
{
closed = 1;
nodes = (
(184,-82,l),
(218,-7,l),
(248,-15,o),
(281,-19,o),
(318,-19,cs),
(498,-19,o),
(674,106,o),
(674,318,cs),
(674,480,o),
(616,579,o),
(503,615,c),
(539,693,l),
(476,693,l),
(446,628,l),
(428,630,o),
(410,631,o),
(390,631,cs),
(214,631,o),
(35,504,o),
(35,292,cs),
(35,155,o),
(76,60,o),
(165,13,c),
(121,-82,l)
);
},
{
closed = 1;
nodes = (
(333,72,o),
(297,85,o),
(273,112,c),
(446,491,l),
(476,448,o),
(486,377,o),
(486,274,cs),
(486,103,o),
(475,72,o),
(382,72,cs)
);
},
{
closed = 1;
nodes = (
(228,217,o),
(223,270,o),
(223,337,cs),
(223,514,o),
(233,543,o),
(330,543,cs),
(358,543,o),
(382,539,o),
(401,530,c),
(239,176,l)
);
}
);
userData = {
com.hugojourdan.ColorFlow = {
"0" = 0;
"1" = 0;
"10" = 0;
"11" = 0;
"2" = 0;
"3" = 0;
"4" = 0;
"5" = 0;
"6" = 0;
"7" = 0;
"8" = 0;
"9" = 0;
};
};
width = 709;
},
{
layerId = "E311F2CF-05EC-45EB-99C0-CA1AFFE6A9D5";
shapes = (
{
closed = 1;
nodes = (
(173,-82,l),
(214,9,l),
(245,-4,o),
(279,-10,o),
(313,-10,cs),
(466,-10,o),
(605,109,o),
(605,318,cs),
(605,446,o),
(557,540,o),
(480,587,c),
(528,693,l),
(487,693,l),
(446,604,l),
(417,616,o),
(384,622,o),
(349,622,cs),
(189,622,o),
(51,504,o),
(51,295,cs),
(51,161,o),
(104,71,o),
(181,25,c),
(132,-82,l)
);
},
{
closed = 1;
nodes = (
(309,37,o),
(273,47,o),
(241,66,c),
(450,523,l),
(502,477,o),
(539,402,o),
(539,295,cs),
(539,103,o),
(472,37,o),
(345,37,cs)
);
},
{
closed = 1;
nodes = (
(156,133,o),
(118,210,o),
(118,318,cs),
(118,509,o),
(185,575,o),
(311,575,cs),
(348,575,o),
(386,565,o),
(419,545,c),
(210,88,l)
);
}
);
userData = {
com.hugojourdan.ColorFlow = {
"0" = 0;
"1" = 0;
"10" = 0;
"11" = 0;
"2" = 0;
"3" = 0;
"4" = 0;
"5" = 0;
"6" = 0;
"7" = 0;
"8" = 0;
"9" = 0;
};
};
width = 656;
}
);
unicode = 216;
},
{
color = 4;
glyphname = OE;
lastChange = "2024-02-12 15:02:33 +0000";
layers = (
{
layerId = m001;
shapes = (
{
closed = 1;
nodes = (
(359,-19,o),
(400,-13,o),
(439,0,c),
(868,0,l),
(904,205,l),
(871,205,l),
(759,55,l),
(612,55,l),
(612,279,l),
(687,279,l),
(794,272,l),
(808,351,l),
(695,339,l),
(612,339,l),
(612,557,l),
(732,557,l),
(805,433,l),
(840,433,l),
(870,612,l),
(478,612,l),
(443,624,o),
(400,631,o),
(344,631,cs),
(192,631,o),
(35,526,o),
(35,292,cs),
(35,92,o),
(122,-19,o),
(318,-19,cs)
);
},
{
closed = 1;
nodes = (
(259,61,o),
(223,151,o),
(223,337,cs),
(223,514,o),
(233,554,o),
(330,554,cs),
(373,554,o),
(410,537,o),
(433,511,c),
(433,71,l),
(419,65,o),
(402,61,o),
(382,61,cs)
);
}
);
userData = {
com.hugojourdan.ColorFlow = {
"0" = 0;
"1" = 0;
"10" = 0;
"11" = 0;
"2" = 0;
"3" = 0;
"4" = 0;
"5" = 0;
"6" = 0;
"7" = 0;
"8" = 0;
"9" = 0;
};
};
width = 930;
},
{
layerId = "E311F2CF-05EC-45EB-99C0-CA1AFFE6A9D5";
shapes = (
{
closed = 1;
nodes = (
(341,-10,o),
(368,-6,o),
(394,1,c),
(789,0,l),
(813,141,l),
(788,141,l),
(712,34,l),
(539,34,l),
(539,306,l),
(598,306,l),
(719,293,l),
(728,342,l),
(596,334,l),
(539,334,l),
(539,578,l),
(702,578,l),
(752,490,l),
(776,490,l),
(797,612,l),
(442,612,l),
(413,620,o),
(383,622,o),
(360,622,cs),
(195,622,o),
(51,499,o),
(51,295,cs),
(51,92,o),
(173,-10,o),
(313,-10,cs)
);
},
{
closed = 1;
nodes = (
(234,40,o),
(118,130,o),
(118,318,cs),
(118,509,o),
(185,573,o),
(311,573,cs),
(362,573,o),
(415,563,o),
(468,537,c),
(468,74,l),
(437,50,o),
(396,40,o),
(345,40,cs)
);
}
);
userData = {
com.hugojourdan.ColorFlow = {
"0" = 0;
"1" = 0;
"10" = 0;
"11" = 0;
"2" = 0;
"3" = 0;
"4" = 0;
"5" = 0;
"6" = 0;
"7" = 0;
"8" = 0;
"9" = 0;
};
};
width = 866;
},
{
associatedMasterId = m001;
layerId = "58B83DE7-1C9A-4A8B-B8A7-8AFE2D667466";
name = "2 de oct. de 23, 11:55";
shapes = (
{
closed = 1;
nodes = (
(359,-19,o),
(400,-13,o),
(439,0,c),
(868,0,l),
(904,205,l),
(871,205,l),
(759,55,l),
(612,55,l),
(612,279,l),
(687,279,l),
(794,272,l),
(808,351,l),
(695,339,l),
(612,339,l),
(612,557,l),
(732,557,l),
(803,433,l),
(838,433,l),
(870,612,l),
(478,612,l),
(443,624,o),
(400,631,o),
(344,631,cs),
(192,631,o),
(35,526,o),
(35,292,cs),
(35,92,o),
(122,-19,o),
(318,-19,cs)
);
},
{
closed = 1;
nodes = (
(259,61,o),
(223,151,o),
(223,337,cs),
(223,514,o),
(233,554,o),
(330,554,cs),
(373,554,o),
(410,537,o),
(433,511,c),
(433,71,l),
(419,65,o),
(402,61,o),
(382,61,cs)
);
}
);
width = 930;
},
{
associatedMasterId = "E311F2CF-05EC-45EB-99C0-CA1AFFE6A9D5";
layerId = "CF5EBEBB-F8CC-45AE-A013-5F606B0ABF5A";
name = "2 de oct. de 23, 11:55";
shapes = (
{
closed = 1;
nodes = (
(341,-10,o),
(368,-6,o),
(394,1,c),
(785,0,l),
(813,141,l),
(788,141,l),
(708,34,l),
(539,34,l),
(539,306,l),
(598,306,l),
(719,293,l),
(728,342,l),
(596,334,l),
(539,334,l),
(539,578,l),
(702,578,l),
(752,490,l),
(776,490,l),
(797,612,l),
(442,612,l),
(413,620,o),
(383,622,o),
(360,622,cs),
(195,622,o),
(51,499,o),
(51,295,cs),
(51,92,o),
(173,-10,o),
(313,-10,cs)
);
},
{
closed = 1;
nodes = (
(234,40,o),
(118,130,o),
(118,318,cs),
(118,509,o),
(185,573,o),
(311,573,cs),
(362,573,o),
(415,563,o),
(468,537,c),
(468,74,l),
(437,50,o),
(396,40,o),
(345,40,cs)
);
}
);
width = 866;
}
);
unicode = 338;
},
{
color = 4;
glyphname = P;
kernLeft = KO_H;
kernRight = KO_P;
lastChange = "2024-02-12 15:02:33 +0000";
layers = (
{
anchors = (
{
name = bottom;
pos = (303,-100);
},
{
name = top;
pos = (303,450);
}
);
layerId = m001;
shapes = (
{
closed = 1;
nodes = (
(354,0,l),
(354,30,l),
(281,58,l),
(281,280,l),
(299,277,o),
(320,275,o),
(346,275,cs),
(494,275,o),
(578,355,o),
(578,449,cs),
(578,567,o),
(498,612,o),
(337,612,cs),
(29,612,l),
(29,584,l),
(103,554,l),
(103,58,l),
(29,29,l),
(29,0,l)
);
},
{
closed = 1;
nodes = (
(281,553,l),
(283,553,ls),
(378,553,o),
(418,506,o),
(418,424,cs),
(418,356,o),
(392,337,o),
(352,337,cs),
(328,337,o),
(300,341,o),
(281,348,c)
);
}
);
userData = {
com.hugojourdan.ColorFlow = {
"0" = 0;
"1" = 0;
"10" = 0;
"11" = 0;
"2" = 0;
"3" = 0;
"4" = 0;
"5" = 0;
"6" = 0;
"7" = 0;
"8" = 0;
"9" = 0;
};
};
width = 602;
},
{
anchors = (
{
name = bottom;
pos = (266,-100);
},
{
name = top;
pos = (266,450);
}
);
layerId = "E311F2CF-05EC-45EB-99C0-CA1AFFE6A9D5";
shapes = (
{
closed = 1;
nodes = (
(295,0,l),
(295,14,l),
(196,58,l),
(196,265,l),
(205,264,o),
(215,264,o),
(225,264,cs),
(373,264,o),
(482,339,o),
(482,452,cs),
(482,556,o),
(407,612,o),
(286,612,cs),
(50,612,l),
(50,598,l),
(124,554,l),
(124,58,l),
(50,15,l),
(50,0,l)
);
},
{
closed = 1;
nodes = (
(196,580,l),
(246,580,ls),
(333,580,o),
(402,530,o),
(402,431,cs),
(402,340,o),
(351,300,o),
(247,300,cs),
(231,300,o),
(213,301,o),
(196,304,c)
);
}
);
userData = {
com.hugojourdan.ColorFlow = {
"0" = 0;
"1" = 0;
"10" = 0;
"11" = 0;
"2" = 0;
"3" = 0;
"4" = 0;
"5" = 0;
"6" = 0;
"7" = 0;
"8" = 0;
"9" = 0;
};
};
width = 506;
}
);
unicode = 80;
},
{
color = 4;
glyphname = Thorn;
kernLeft = KO_H;
lastChange = "2024-02-12 15:02:33 +0000";
layers = (
{
layerId = m001;
shapes = (
{
closed = 1;
nodes = (
(354,0,l),
(354,30,l),
(281,58,l),
(281,150,l),
(299,147,o),
(320,145,o),
(346,145,cs),
(494,145,o),
(578,226,o),
(578,319,cs),
(578,437,o),
(498,483,o),
(337,483,cs),
(281,483,l),
(281,554,l),
(377,583,l),
(377,612,l),
(29,612,l),
(29,584,l),
(103,554,l),
(103,58,l),
(29,29,l),
(29,0,l)
);
},
{
closed = 1;
nodes = (
(332,208,o),
(302,211,o),
(281,217,c),
(281,424,l),
(285,424,ls),
(388,424,o),
(418,365,o),
(418,288,cs),
(418,219,o),
(392,208,o),
(352,208,cs)
);
}
);
userData = {
com.hugojourdan.ColorFlow = {
"0" = 0;
"1" = 0;
"10" = 0;
"11" = 0;
"2" = 0;
"3" = 0;
"4" = 0;
"5" = 0;
"6" = 0;
"7" = 0;
"8" = 0;
"9" = 0;
};
};
width = 614;
},
{
layerId = "E311F2CF-05EC-45EB-99C0-CA1AFFE6A9D5";
shapes = (
{
closed = 1;
nodes = (
(295,0,l),
(295,14,l),
(196,58,l),
(196,141,l),
(204,140,o),
(214,140,o),
(225,140,cs),
(373,140,o),
(482,215,o),
(482,328,cs),
(482,432,o),
(407,488,o),
(286,488,cs),
(196,488,l),
(196,554,l),
(265,597,l),
(265,612,l),
(50,612,l),
(50,598,l),
(124,554,l),
(124,58,l),
(50,15,l),
(50,0,l)
);
},
{
closed = 1;
nodes = (
(231,176,o),
(213,178,o),
(196,180,c),
(196,456,l),
(246,456,ls),
(333,456,o),
(402,406,o),
(402,307,cs),
(402,216,o),
(351,176,o),
(247,176,cs)
);
}
);
userData = {
com.hugojourdan.ColorFlow = {
"0" = 0;
"1" = 0;
"10" = 0;
"11" = 0;
"2" = 0;
"3" = 0;
"4" = 0;
"5" = 0;
"6" = 0;
"7" = 0;
"8" = 0;
"9" = 0;
};
};
width = 491;
}
);
unicode = 222;
},
{
color = 4;
glyphname = Q;
lastChange = "2024-02-12 15:02:33 +0000";
layers = (
{
anchors = (
{
name = bottom;
pos = (357,-100);
},
{
name = top;
pos = (357,450);
}
);
layerId = m001;
shapes = (
{
closed = 1;
nodes = (
(179,-165,l),
(221,-129,o),
(244,-114,o),
(247,-113,c),
(317,-108,o),
(473,-211,o),
(547,-211,cs),
(596,-211,o),
(647,-186,o),
(718,-100,c),
(699,-69,l),
(685,-76,o),
(673,-81,o),
(635,-81,cs),
(572,-81,o),
(391,-28,o),
(323,-28,cs),
(284,-28,o),
(265,-22,o),
(136,-49,c),
(144,-165,l)
);
},
{
ref = O;
}
);
userData = {
com.hugojourdan.ColorFlow = {
"0" = 0;
"1" = 0;
"10" = 0;
"11" = 0;
"2" = 0;
"3" = 0;
"4" = 0;
"5" = 0;
"6" = 0;
"7" = 0;
"8" = 0;
"9" = 0;
};
};
width = 709;
},
{
anchors = (
{
name = bottom;
pos = (352,-100);
},
{
name = top;
pos = (352,450);
}
);
layerId = "E311F2CF-05EC-45EB-99C0-CA1AFFE6A9D5";
shapes = (
{
closed = 1;
nodes = (
(160,-151,l),
(212,-97,o),
(214,-95,o),
(242,-94,cs),
(296,-92,o),
(448,-174,o),
(515,-174,cs),
(555,-174,o),
(583,-156,o),
(645,-95,c),
(642,-80,l),
(594,-108,o),
(563,-111,o),
(539,-111,cs),
(494,-111,o),
(334,-47,o),
(275,-47,cs),
(241,-47,o),
(196,-70,o),
(133,-102,c),
(149,-151,l)
);
},
{
ref = O;
}
);
userData = {
com.hugojourdan.ColorFlow = {
"0" = 0;
"1" = 0;
"10" = 0;
"11" = 0;
"2" = 0;
"3" = 0;
"4" = 0;
"5" = 0;
"6" = 0;
"7" = 0;
"8" = 0;
"9" = 0;
};
};
width = 656;
}
);
unicode = 81;
},
{
color = 4;
glyphname = R;
kernLeft = KO_H;
kernRight = KO_R;
lastChange = "2024-02-12 15:02:33 +0000";
layers = (
{
anchors = (
{
name = bottom;
pos = (338,-100);
},
{
name = top;
pos = (269,450);
}
);
layerId = m001;
shapes = (
{
closed = 1;
nodes = (
(354,0,l),
(354,30,l),
(281,58,l),
(281,266,l),
(288,265,o),
(296,265,o),
(304,264,c),
(446,0,l),
(648,0,l),
(648,30,l),
(611,52,l),
(449,289,l),
(531,322,o),
(583,388,o),
(583,465,cs),
(583,571,o),
(498,612,o),
(318,612,cs),
(29,612,l),
(29,584,l),
(103,554,l),
(103,58,l),
(29,29,l),
(29,0,l)
);
},
{
closed = 1;
nodes = (
(281,557,l),
(294,557,ls),
(383,557,o),
(423,516,o),
(423,432,cs),
(423,358,o),
(402,324,o),
(363,324,cs),
(332,324,o),
(304,327,o),
(281,332,c)
);
}
);
userData = {
com.hugojourdan.ColorFlow = {
"0" = 0;
"1" = 0;
"10" = 0;
"11" = 0;
"2" = 0;
"3" = 0;
"4" = 0;
"5" = 0;
"6" = 0;
"7" = 0;
"8" = 0;
"9" = 0;
};
};
width = 668;
},
{
anchors = (
{
name = bottom;
pos = (317,-100);
},
{
name = top;
pos = (333,450);
}
);
layerId = "E311F2CF-05EC-45EB-99C0-CA1AFFE6A9D5";
shapes = (
{
closed = 1;
nodes = (
(295,0,l),
(295,14,l),
(196,58,l),
(196,283,l),
(253,283,o),
(272,285,o),
(288,287,c),
(460,0,l),
(584,0,l),
(584,14,l),
(520,52,l),
(354,308,l),
(420,337,o),
(476,390,o),
(476,468,cs),
(476,555,o),
(404,612,o),
(288,612,cs),
(50,612,l),
(50,598,l),
(124,554,l),
(124,58,l),
(50,15,l),
(50,0,l)
);
},
{
closed = 1;
nodes = (
(196,578,l),
(243,578,ls),
(337,578,o),
(396,527,o),
(396,432,cs),
(396,344,o),
(356,315,o),
(256,315,cs),
(235,315,o),
(215,317,o),
(196,321,c)
);
}
);
userData = {
com.hugojourdan.ColorFlow = {
"0" = 0;
"1" = 0;
"10" = 0;
"11" = 0;
"2" = 0;
"3" = 0;
"4" = 0;
"5" = 0;
"6" = 0;
"7" = 0;
"8" = 0;
"9" = 0;
};
};
width = 579;
}
);
unicode = 82;
},
{
color = 4;
glyphname = S;
kernLeft = KO_S;
kernRight = KO_S;
lastChange = "2024-02-12 15:02:33 +0000";
layers = (
{
anchors = (
{
name = bottom;
pos = (261,-100);
},
{
name = top;
pos = (276,450);
}
);
layerId = m001;
shapes = (
{
closed = 1;
nodes = (
(376,-19,o),
(501,58,o),
(501,192,cs),
(501,291,o),
(450,329,o),
(331,378,cs),
(276,401,ls),
(212,428,o),
(183,452,o),
(183,495,cs),
(183,541,o),
(203,567,o),
(246,567,cs),
(284,567,o),
(327,563,o),
(355,552,c),
(420,448,l),
(452,448,l),
(479,605,l),
(440,620,o),
(361,631,o),
(280,631,cs),
(118,631,o),
(24,543,o),
(24,430,cs),
(24,333,o),
(94,277,o),
(182,240,cs),
(237,215,ls),
(317,181,o),
(343,159,o),
(343,113,cs),
(343,70,o),
(327,48,o),
(275,48,cs),
(230,48,o),
(195,51,o),
(159,61,c),
(81,167,l),
(49,167,l),
(21,6,l),
(63,-10,o),
(141,-19,o),
(208,-19,cs)
);
}
);
userData = {
com.hugojourdan.ColorFlow = {
"0" = 0;
"1" = 0;
"10" = 0;
"11" = 0;
"2" = 0;
"3" = 0;
"4" = 0;
"5" = 0;
"6" = 0;
"7" = 0;
"8" = 0;
"9" = 0;
};
};
width = 527;
},
{
anchors = (
{
name = bottom;
pos = (250,-100);
},
{
name = top;
pos = (246,450);
}
);
layerId = "E311F2CF-05EC-45EB-99C0-CA1AFFE6A9D5";
shapes = (
{
closed = 1;
nodes = (
(344,-10,o),
(439,69,o),
(439,171,cs),
(439,234,o),
(412,287,o),
(304,332,cs),
(249,355,ls),
(185,382,o),
(140,417,o),
(140,490,cs),
(140,551,o),
(178,583,o),
(241,583,cs),
(275,583,o),
(311,579,o),
(346,566,c),
(390,473,l),
(415,473,l),
(436,596,l),
(402,611,o),
(358,622,o),
(296,622,cs),
(161,622,o),
(81,548,o),
(81,457,cs),
(81,384,o),
(123,338,o),
(207,304,cs),
(262,282,ls),
(350,247,o),
(378,200,o),
(378,138,cs),
(378,61,o),
(320,29,o),
(264,29,cs),
(225,30,o),
(180,33,o),
(143,47,c),
(109,142,l),
(84,142,l),
(62,15,l),
(104,-1,o),
(152,-10,o),
(219,-10,cs)
);
}
);
userData = {
com.hugojourdan.ColorFlow = {
"0" = 0;
"1" = 0;
"10" = 0;
"11" = 0;
"2" = 0;
"3" = 0;
"4" = 0;
"5" = 0;
"6" = 0;
"7" = 0;
"8" = 0;
"9" = 0;
};
};
width = 502;
},
{
anchors = (
{
name = bottom;
pos = (250,-100);
},
{
name = top;
pos = (246,450);
}
);
associatedMasterId = "E311F2CF-05EC-45EB-99C0-CA1AFFE6A9D5";
layerId = "D9AC2324-A146-4C30-B50B-842C9225C7AC";
name = "2 de oct. de 23, 11:59";
shapes = (
{
closed = 1;
nodes = (
(344,-10,o),
(439,69,o),
(439,171,cs),
(439,234,o),
(413,288,o),
(304,332,cs),
(249,355,ls),
(185,382,o),
(140,417,o),
(140,490,cs),
(140,551,o),
(178,583,o),
(241,583,cs),
(275,583,o),
(311,579,o),
(346,566,c),
(390,473,l),
(415,473,l),
(436,596,l),
(402,611,o),
(358,622,o),
(296,622,cs),
(161,622,o),
(81,548,o),
(81,457,cs),
(81,384,o),
(124,339,o),
(207,304,cs),
(262,282,ls),
(349,245,o),
(378,200,o),
(378,138,cs),
(378,61,o),
(320,29,o),
(264,29,cs),
(225,30,o),
(180,33,o),
(143,47,c),
(111,142,l),
(86,142,l),
(62,15,l),
(104,-1,o),
(152,-10,o),
(219,-10,cs)
);
}
);
width = 502;
}
);
unicode = 83;
},
{
color = 3;
glyphname = Germandbls;
lastChange = "2024-02-13 19:59:33 +0000";
layers = (
{
layerId = m001;
shapes = (
{
closed = 1;
nodes = (
(565,-18,o),
(656,65,o),
(656,163,cs),
(656,256,o),
(583,327,o),
(449,341,c),
(606,441,l),
(606,572,o),
(476,632,o),
(354,632,cs),
(203,632,o),
(65,551,o),
(65,360,cs),
(65,57,l),
(23,24,l),
(23,0,l),
(243,0,l),
(243,484,ls),
(243,552,o),
(278,583,o),
(321,583,cs),
(396,583,o),
(444,506,o),
(443,435,c),
(302,328,l),
(302,277,l),
(424,271,o),
(493,219,o),
(493,125,cs),
(493,68,o),
(466,50,o),
(434,50,cs),
(430,50,o),
(416,50,o),
(411,50,c),
(352,149,l),
(304,149,l),
(278,-5,l),
(315,-13,o),
(360,-18,o),
(421,-18,cs)
);
}
);
userData = {
com.hugojourdan.ColorFlow = {
"0" = 0;
"1" = 0;
"10" = 0;
"11" = 0;
"2" = 0;
"3" = 0;
"4" = 0;
"5" = 0;
"6" = 0;
"7" = 0;
"8" = 0;
"9" = 0;
};
};
width = 691;
},
{
layerId = "E311F2CF-05EC-45EB-99C0-CA1AFFE6A9D5";
shapes = (
{
closed = 1;
nodes = (
(436,-10,o),
(525,76,o),
(525,169,cs),
(525,262,o),
(438,326,o),
(308,326,c),
(482,490,l),
(482,550,o),
(427,627,o),
(297,627,cs),
(202,627,o),
(98,576,o),
(98,421,cs),
(98,53,l),
(34,15,l),
(34,0,l),
(170,0,l),
(170,481,ls),
(170,565,o),
(202,593,o),
(263,593,cs),
(353,593,o),
(413,524,o),
(413,465,c),
(253,310,l),
(253,278,l),
(373,278,o),
(453,237,o),
(453,133,cs),
(453,53,o),
(393,17,o),
(334,17,cs),
(328,17,o),
(317,18,o),
(313,18,c),
(254,76,l),
(234,76,l),
(221,2,l),
(259,-7,o),
(290,-10,o),
(333,-10,cs)
);
}
);
userData = {
com.hugojourdan.ColorFlow = {
"0" = 0;
"1" = 0;
"10" = 0;
"11" = 0;
"2" = 0;
"3" = 0;
"4" = 0;
"5" = 0;
"6" = 0;
"7" = 0;
"8" = 0;
"9" = 0;
};
};
width = 576;
},
{
associatedMasterId = "E311F2CF-05EC-45EB-99C0-CA1AFFE6A9D5";
layerId = "C6B332BE-735B-407C-9B1B-50D7C22A8FD7";
name = "31 de oct. de 23, 9:23";
shapes = (
{
closed = 0;
nodes = (
(309,309,l),
(327,311,o),
(342,310,o),
(356,310,cs),
(412,310,o),
(476,239,o),
(476,159,cs),
(476,80,o),
(424,17,o),
(344,17,cs),
(337,17,o),
(326,18,o),
(321,18,c),
(256,79,l),
(235,79,l),
(222,4,l),
(265,-6,o),
(297,-10,o),
(343,-10,cs),
(468,-10,o),
(554,85,o),
(554,181,cs),
(554,270,o),
(494,357,o),
(387,366,c)
);
},
{
closed = 0;
nodes = (
(327,365,l),
(497,578,l),
(497,627,o),
(434,700,o),
(340,700,cs),
(228,700,o),
(104,624,o),
(104,472,cs),
(104,58,l),
(31,16,l),
(31,0,l),
(176,0,l),
(176,522,ls),
(176,628,o),
(233,664,o),
(289,664,cs),
(352,664,o),
(428,613,o),
(428,548,c),
(243,312,l)
);
}
);
width = 600;
},
{
associatedMasterId = m001;
layerId = "998B36E5-4071-41AA-995D-4E144F65CD8D";
name = "31 de oct. de 23, 9:29";
shapes = (
{
closed = 1;
nodes = (
(263,0,l),
(263,30,l),
(199,58,l),
(199,284,l),
(381,284,l),
(381,58,l),
(317,29,l),
(317,0,l),
(633,0,l),
(633,30,l),
(559,58,l),
(559,554,l),
(633,583,l),
(633,612,l),
(317,612,l),
(317,584,l),
(381,554,l),
(381,352,l),
(199,352,l),
(199,554,l),
(263,583,l),
(263,612,l),
(-53,612,l),
(-53,584,l),
(21,554,l),
(21,58,l),
(-53,29,l),
(-53,0,l)
);
}
);
width = 600;
},
{
associatedMasterId = "E311F2CF-05EC-45EB-99C0-CA1AFFE6A9D5";
layerId = "38130F66-24FA-4AA8-AFC1-9F0473BEB3DF";
name = "2 de nov. de 23, 21:52";
shapes = (
{
closed = 1;
nodes = (
(452,-10,o),
(541,76,o),
(541,157,cs),
(541,251,o),
(461,332,o),
(331,332,c),
(478,510,l),
(478,570,o),
(418,627,o),
(319,627,cs),
(218,627,o),
(114,576,o),
(114,421,cs),
(114,53,l),
(50,15,l),
(50,0,l),
(186,0,l),
(186,469,ls),
(186,565,o),
(249,593,o),
(299,593,cs),
(356,593,o),
(409,551,o),
(409,492,c),
(269,310,l),
(269,270,l),
(280,273,o),
(298,277,o),
(325,277,cs),
(407,277,o),
(465,213,o),
(465,143,cs),
(465,71,o),
(409,17,o),
(340,17,cs),
(334,17,o),
(323,18,o),
(319,18,c),
(260,76,l),
(240,76,l),
(227,3,l),
(266,-6,o),
(297,-10,o),
(339,-10,cs)
);
}
);
visible = 1;
width = 604;
},
{
associatedMasterId = m001;
layerId = "3C1FBCA0-2310-4FC2-97FF-7876638A287C";
name = "2 de nov. de 23, 21:59";
shapes = (
{
closed = 1;
nodes = (
(565,-18,o),
(656,65,o),
(656,167,cs),
(656,256,o),
(552,310,o),
(459,310,c),
(586,461,l),
(586,592,o),
(465,632,o),
(337,632,cs),
(226,632,o),
(65,551,o),
(65,360,cs),
(65,57,l),
(23,24,l),
(23,0,l),
(243,0,l),
(243,447,ls),
(243,552,o),
(289,583,o),
(341,583,cs),
(396,583,o),
(410,536,o),
(409,465,c),
(302,288,l),
(302,237,l),
(366,258,o),
(493,243,o),
(493,136,cs),
(493,65,o),
(466,50,o),
(434,50,cs),
(430,50,o),
(416,50,o),
(411,50,c),
(352,149,l),
(304,149,l),
(278,-5,l),
(315,-13,o),
(360,-18,o),
(432,-18,cs)
);
}
);
width = 691;
}
);
metricLeft = U;
metricRight = B;
unicode = 7838;
},
{
color = 4;
glyphname = T;
kernLeft = KO_T;
kernRight = KO_T;
lastChange = "2024-02-12 15:02:33 +0000";
layers = (
{
anchors = (
{
name = bottom;
pos = (315,-100);
},
{
name = top;
pos = (318,450);
}
);
layerId = m001;
shapes = (
{
closed = 1;
nodes = (
(497,0,l),
(497,30,l),
(413,62,l),
(413,557,l),
(494,557,l),
(550,406,l),
(583,406,l),
(621,612,l),
(50,612,l),
(12,406,l),
(45,406,l),
(169,557,l),
(234,557,l),
(234,62,l),
(150,29,l),
(150,0,l)
);
}
);
userData = {
com.hugojourdan.ColorFlow = {
"0" = 0;
"1" = 0;
"10" = 0;
"11" = 0;
"2" = 0;
"3" = 0;
"4" = 0;
"5" = 0;
"6" = 0;
"7" = 0;
"8" = 0;
"9" = 0;
};
};
width = 633;
},
{
anchors = (
{
name = bottom;
pos = (278,-100);
},
{
name = top;
pos = (277,450);
}
);
layerId = "E311F2CF-05EC-45EB-99C0-CA1AFFE6A9D5";
shapes = (
{
closed = 1;
nodes = (
(380,0,l),
(380,14,l),
(306,58,l),
(306,578,l),
(443,578,l),
(497,484,l),
(521,484,l),
(543,612,l),
(34,612,l),
(12,484,l),
(36,484,l),
(109,578,l),
(234,578,l),
(234,58,l),
(160,15,l),
(160,0,l)
);
}
);
userData = {
com.hugojourdan.ColorFlow = {
"0" = 0;
"1" = 0;
"10" = 0;
"11" = 0;
"2" = 0;
"3" = 0;
"4" = 0;
"5" = 0;
"6" = 0;
"7" = 0;
"8" = 0;
"9" = 0;
};
};
width = 555;
},
{
anchors = (
{
name = bottom;
pos = (315,-100);
},
{
name = top;
pos = (318,450);
}
);
associatedMasterId = m001;
layerId = "A7D8396C-FF84-4A13-957B-6406F942E83C";
name = "29 de sep. de 23, 9:34";
shapes = (
{
closed = 1;
nodes = (
(497,0,l),
(497,30,l),
(413,58,l),
(413,557,l),
(494,557,l),
(550,406,l),
(583,406,l),
(621,612,l),
(49,612,l),
(12,406,l),
(45,406,l),
(169,557,l),
(234,557,l),
(234,58,l),
(150,29,l),
(150,0,l)
);
}
);
width = 633;
},
{
anchors = (
{
name = bottom;
pos = (278,-100);
},
{
name = top;
pos = (277,450);
}
);
associatedMasterId = "E311F2CF-05EC-45EB-99C0-CA1AFFE6A9D5";
layerId = "35B55FEE-1272-4E8C-9BB2-312A4C1D9E5E";
name = "29 de sep. de 23, 10:29";
shapes = (
{
closed = 1;
nodes = (
(390,0,l),
(390,14,l),
(306,58,l),
(306,578,l),
(443,578,l),
(497,484,l),
(521,484,l),
(543,612,l),
(33,612,l),
(12,484,l),
(36,484,l),
(109,578,l),
(234,578,l),
(234,58,l),
(150,15,l),
(150,0,l)
);
}
);
width = 555;
}
);
unicode = 84;
userData = {
KernOnName = T;
};
},
{
color = 4;
glyphname = Tbar;
lastChange = "2024-02-12 15:02:33 +0000";
layers = (
{
layerId = m001;
shapes = (
{
closed = 1;
nodes = (
(553,262,l),
(553,330,l),
(94,330,l),
(94,262,l)
);
},
{
ref = T;
}
);
userData = {
com.hugojourdan.ColorFlow = {
"0" = 0;
"1" = 0;
"10" = 0;
"11" = 0;
"2" = 0;
"3" = 0;
"4" = 0;
"5" = 0;
"6" = 0;
"7" = 0;
"8" = 0;
"9" = 0;
};
};
width = 633;
},
{
layerId = "E311F2CF-05EC-45EB-99C0-CA1AFFE6A9D5";
shapes = (
{
closed = 1;
nodes = (
(446,308,l),
(446,339,l),
(94,339,l),
(94,308,l)
);
},
{
ref = T;
}
);
userData = {
com.hugojourdan.ColorFlow = {
"0" = 0;
"1" = 0;
"10" = 0;
"11" = 0;
"2" = 0;
"3" = 0;
"4" = 0;
"5" = 0;
"6" = 0;
"7" = 0;
"8" = 0;
"9" = 0;
};
};
width = 555;
}
);
unicode = 358;
},
{
color = 4;
glyphname = U;
kernLeft = KO_U;
kernRight = KO_U;
lastChange = "2024-02-12 15:02:33 +0000";
layers = (
{
anchors = (
{
name = bottom;
pos = (367,-100);
},
{
name = top;
pos = (430,450);
}
);
layerId = m001;
shapes = (
{
closed = 1;
nodes = (
(496,-19,o),
(637,44,o),
(637,237,cs),
(637,554,l),
(711,583,l),
(711,612,l),
(468,612,l),
(468,582,l),
(542,554,l),
(542,217,ls),
(542,115,o),
(499,89,o),
(412,89,cs),
(334,89,o),
(276,146,o),
(276,254,cs),
(276,554,l),
(350,583,l),
(350,612,l),
(23,612,l),
(23,584,l),
(97,554,l),
(97,206,ls),
(97,46,o),
(214,-19,o),
(364,-19,cs)
);
}
);
userData = {
com.hugojourdan.ColorFlow = {
"0" = 0;
"1" = 0;
"10" = 0;
"11" = 0;
"2" = 0;
"3" = 0;
"4" = 0;
"5" = 0;
"6" = 0;
"7" = 0;
"8" = 0;
"9" = 0;
};
};
width = 735;
},
{
anchors = (
{
name = bottom;
pos = (330,-100);
},
{
name = top;
pos = (315,450);
}
);
layerId = "E311F2CF-05EC-45EB-99C0-CA1AFFE6A9D5";
shapes = (
{
closed = 1;
nodes = (
(461,-10,o),
(552,87,o),
(552,223,cs),
(552,554,l),
(626,597,l),
(626,612,l),
(436,612,l),
(436,598,l),
(510,554,l),
(510,198,ls),
(510,98,o),
(448,48,o),
(359,48,cs),
(238,48,o),
(180,109,o),
(180,219,cs),
(180,554,l),
(254,597,l),
(254,612,l),
(34,612,l),
(34,598,l),
(108,554,l),
(108,197,ls),
(108,60,o),
(187,-10,o),
(318,-10,cs)
);
}
);
userData = {
com.hugojourdan.ColorFlow = {
"0" = 0;
"1" = 0;
"10" = 0;
"11" = 0;
"2" = 0;
"3" = 0;
"4" = 0;
"5" = 0;
"6" = 0;
"7" = 0;
"8" = 0;
"9" = 0;
};
};
width = 660;
}
);
unicode = 85;
},
{
color = 4;
glyphname = V;
kernLeft = KO_V;
kernRight = KO_V;
lastChange = "2024-02-12 15:02:33 +0000";
layers = (
{
anchors = (
{
name = bottom;
pos = (310,-100);
},
{
name = top;
pos = (310,450);
}
);
layerId = m001;
shapes = (
{
closed = 1;
nodes = (
(365,3,l),
(585,554,l),
(632,583,l),
(632,612,l),
(441,612,l),
(441,583,l),
(513,554,l),
(365,165,l),
(212,554,l),
(296,583,l),
(296,612,l),
(-9,612,l),
(-9,583,l),
(29,554,l),
(257,-29,l)
);
}
);
userData = {
com.hugojourdan.ColorFlow = {
"0" = 0;
"1" = 0;
"10" = 0;
"11" = 0;
"2" = 0;
"3" = 0;
"4" = 0;
"5" = 0;
"6" = 0;
"7" = 0;
"8" = 0;
"9" = 0;
};
};
width = 611;
},
{
anchors = (
{
name = bottom;
pos = (305,-100);
},
{
name = top;
pos = (305,450);
}
);
layerId = "E311F2CF-05EC-45EB-99C0-CA1AFFE6A9D5";
shapes = (
{
closed = 1;
nodes = (
(317,8,l),
(534,554,l),
(607,597,l),
(607,612,l),
(414,612,l),
(414,597,l),
(486,554,l),
(309,95,l),
(139,554,l),
(223,597,l),
(223,612,l),
(2,612,l),
(2,597,l),
(66,554,l),
(276,-15,l)
);
}
);
userData = {
com.hugojourdan.ColorFlow = {
"0" = 0;
"1" = 0;
"10" = 0;
"11" = 0;
"2" = 0;
"3" = 0;
"4" = 0;
"5" = 0;
"6" = 0;
"7" = 0;
"8" = 0;
"9" = 0;
};
};
width = 597;
}
);
unicode = 86;
userData = {
KernOnName = V;
};
},
{
color = 4;
glyphname = W;
kernLeft = KO_W;
kernRight = KO_W;
lastChange = "2024-02-12 15:02:33 +0000";
layers = (
{
anchors = (
{
name = bottom;
pos = (495,-100);
},
{
name = top;
pos = (495,450);
}
);
layerId = m001;
shapes = (
{
closed = 1;
nodes = (
(329,3,l),
(489,422,l),
(664,-29,l),
(772,3,l),
(943,555,l),
(984,583,l),
(984,612,l),
(793,612,l),
(793,583,l),
(870,554,l),
(768,190,l),
(611,612,l),
(485,612,l),
(333,186,l),
(226,554,l),
(313,583,l),
(313,612,l),
(7,612,l),
(7,583,l),
(40,554,l),
(220,-29,l)
);
}
);
userData = {
com.hugojourdan.ColorFlow = {
"0" = 0;
"1" = 0;
"10" = 0;
"11" = 0;
"2" = 0;
"3" = 0;
"4" = 0;
"5" = 0;
"6" = 0;
"7" = 0;
"8" = 0;
"9" = 0;
};
};
width = 990;
},
{
anchors = (
{
name = bottom;
pos = (470,-100);
},
{
name = top;
pos = (470,450);
}
);
layerId = "E311F2CF-05EC-45EB-99C0-CA1AFFE6A9D5";
shapes = (
{
closed = 1;
nodes = (
(288,8,l),
(466,475,l),
(648,-15,l),
(689,8,l),
(869,554,l),
(943,597,l),
(943,612,l),
(750,612,l),
(750,597,l),
(821,555,l),
(677,91,l),
(483,612,l),
(469,612,l),
(279,93,l),
(135,555,l),
(217,597,l),
(217,612,l),
(-2,612,l),
(-2,597,l),
(65,554,l),
(247,-15,l)
);
}
);
userData = {
com.hugojourdan.ColorFlow = {
"0" = 0;
"1" = 0;
"10" = 0;
"11" = 0;
"2" = 0;
"3" = 0;
"4" = 0;
"5" = 0;
"6" = 0;
"7" = 0;
"8" = 0;
"9" = 0;
};
};
width = 942;
}
);
unicode = 87;
userData = {
KernOnName = W;
};
},
{
color = 4;
glyphname = X;
kernLeft = KO_X;
kernRight = KO_X;
lastChange = "2024-02-12 15:02:33 +0000";
layers = (
{
anchors = (
{
name = bottom;
pos = (340,-100);
},
{
name = top;
pos = (340,450);
}
);
layerId = m001;
shapes = (
{
closed = 1;
nodes = (
(221,0,l),
(221,29,l),
(148,58,l),
(300,234,l),
(421,58,l),
(358,29,l),
(358,0,l),
(675,0,l),
(675,29,l),
(627,58,l),
(419,361,l),
(589,554,l),
(648,583,l),
(648,612,l),
(433,612,l),
(433,583,l),
(506,554,l),
(384,412,l),
(287,554,l),
(351,583,l),
(351,612,l),
(33,612,l),
(33,583,l),
(82,554,l),
(266,285,l),
(64,58,l),
(6,29,l),
(6,0,l)
);
}
);
userData = {
com.hugojourdan.ColorFlow = {
"0" = 0;
"1" = 0;
"10" = 0;
"11" = 0;
"2" = 0;
"3" = 0;
"4" = 0;
"5" = 0;
"6" = 0;
"7" = 0;
"8" = 0;
"9" = 0;
};
};
width = 681;
},
{
anchors = (
{
name = bottom;
pos = (308,-100);
},
{
name = top;
pos = (308,450);
}
);
layerId = "E311F2CF-05EC-45EB-99C0-CA1AFFE6A9D5";
shapes = (
{
closed = 1;
nodes = (
(210,0,l),
(210,15,l),
(139,57,l),
(294,282,l),
(452,58,l),
(363,15,l),
(363,0,l),
(611,0,l),
(611,15,l),
(538,58,l),
(346,328,l),
(511,558,l),
(586,597,l),
(586,612,l),
(382,612,l),
(382,597,l),
(453,555,l),
(321,363,l),
(187,554,l),
(276,597,l),
(276,612,l),
(28,612,l),
(28,597,l),
(101,554,l),
(269,317,l),
(82,55,l),
(6,15,l),
(6,0,l)
);
}
);
userData = {
com.hugojourdan.ColorFlow = {
"0" = 0;
"1" = 0;
"10" = 0;
"11" = 0;
"2" = 0;
"3" = 0;
"4" = 0;
"5" = 0;
"6" = 0;
"7" = 0;
"8" = 0;
"9" = 0;
};
};
width = 617;
}
);
unicode = 88;
},
{
color = 4;
glyphname = Y;
kernLeft = KO_Y;
kernRight = KO_Y;
lastChange = "2024-02-12 15:02:33 +0000";
layers = (
{
anchors = (
{
name = bottom;
pos = (331,-100);
},
{
name = top;
pos = (407,450);
}
);
layerId = m001;
shapes = (
{
closed = 1;
nodes = (
(489,0,l),
(489,30,l),
(415,58,l),
(415,262,l),
(604,554,l),
(652,583,l),
(652,612,l),
(463,612,l),
(463,583,l),
(528,557,l),
(387,338,l),
(238,558,l),
(312,583,l),
(312,612,l),
(12,612,l),
(12,583,l),
(48,555,l),
(236,258,l),
(236,58,l),
(162,29,l),
(162,0,l)
);
}
);
userData = {
com.hugojourdan.ColorFlow = {
"0" = 0;
"1" = 0;
"10" = 0;
"11" = 0;
"2" = 0;
"3" = 0;
"4" = 0;
"5" = 0;
"6" = 0;
"7" = 0;
"8" = 0;
"9" = 0;
};
};
width = 638;
},
{
anchors = (
{
name = bottom;
pos = (304,-100);
},
{
name = top;
pos = (286,450);
}
);
layerId = "E311F2CF-05EC-45EB-99C0-CA1AFFE6A9D5";
shapes = (
{
closed = 1;
nodes = (
(416,0,l),
(416,14,l),
(342,58,l),
(342,262,l),
(523,554,l),
(595,597,l),
(595,612,l),
(399,612,l),
(399,597,l),
(471,554,l),
(317,303,l),
(158,554,l),
(239,597,l),
(239,612,l),
(12,612,l),
(12,597,l),
(79,554,l),
(271,256,l),
(271,58,l),
(197,15,l),
(197,0,l)
);
}
);
userData = {
com.hugojourdan.ColorFlow = {
"0" = 0;
"1" = 0;
"10" = 0;
"11" = 0;
"2" = 0;
"3" = 0;
"4" = 0;
"5" = 0;
"6" = 0;
"7" = 0;
"8" = 0;
"9" = 0;
};
};
width = 613;
}
);
unicode = 89;
userData = {
KernOnName = Y;
};
},
{
color = 4;
glyphname = Z;
kernLeft = KO_Z;
lastChange = "2024-02-12 15:02:33 +0000";
layers = (
{
anchors = (
{
name = bottom;
pos = (274,-100);
},
{
name = top;
pos = (274,450);
}
);
layerId = m001;
shapes = (
{
closed = 1;
nodes = (
(513,0,l),
(555,249,l),
(520,249,l),
(398,72,l),
(207,72,l),
(533,563,l),
(533,612,l),
(47,612,l),
(7,373,l),
(42,373,l),
(156,540,l),
(334,540,l),
(0,47,l),
(0,0,l)
);
}
);
userData = {
com.hugojourdan.ColorFlow = {
"0" = 0;
"1" = 0;
"10" = 0;
"11" = 0;
"2" = 0;
"3" = 0;
"4" = 0;
"5" = 0;
"6" = 0;
"7" = 0;
"8" = 0;
"9" = 0;
};
};
width = 544;
},
{
anchors = (
{
name = bottom;
pos = (283,-100);
},
{
name = top;
pos = (283,450);
}
);
layerId = "E311F2CF-05EC-45EB-99C0-CA1AFFE6A9D5";
shapes = (
{
closed = 1;
nodes = (
(502,0,l),
(528,155,l),
(504,155,l),
(423,31,l),
(127,31,l),
(501,593,l),
(501,612,l),
(74,612,l),
(50,467,l),
(74,467,l),
(156,581,l),
(408,581,l),
(37,17,l),
(37,0,l)
);
}
);
userData = {
com.hugojourdan.ColorFlow = {
"0" = 0;
"1" = 0;
"10" = 0;
"11" = 0;
"2" = 0;
"3" = 0;
"4" = 0;
"5" = 0;
"6" = 0;
"7" = 0;
"8" = 0;
"9" = 0;
};
};
width = 560;
},
{
anchors = (
{
name = bottom;
pos = (283,-100);
},
{
name = top;
pos = (283,450);
}
);
associatedMasterId = "E311F2CF-05EC-45EB-99C0-CA1AFFE6A9D5";
layerId = "33D3E158-5D27-4DD7-B1AD-CD291268BBA3";
name = "2 de oct. de 23, 12:07";
shapes = (
{
closed = 1;
nodes = (
(496,0,l),
(528,155,l),
(504,155,l),
(417,31,l),
(127,31,l),
(501,593,l),
(501,612,l),
(74,612,l),
(50,467,l),
(74,467,l),
(156,581,l),
(408,581,l),
(37,17,l),
(37,0,l)
);
}
);
width = 560;
}
);
unicode = 90;
},
{
color = 3;
glyphname = Saltillo;
lastChange = "2024-02-13 16:01:46 +0000";
layers = (
{
layerId = m001;
shapes = (
{
ref = quotesingle;
}
);
userData = {
com.hugojourdan.ColorFlow = {
"0" = 0;
"1" = 0;
"10" = 0;
"11" = 0;
"2" = 0;
"3" = 0;
"4" = 0;
"5" = 0;
"6" = 0;
"7" = 0;
"8" = 0;
"9" = 0;
};
};
width = 192;
},
{
layerId = "E311F2CF-05EC-45EB-99C0-CA1AFFE6A9D5";
shapes = (
{
ref = quotesingle;
}
);
userData = {
com.hugojourdan.ColorFlow = {
"0" = 0;
"1" = 0;
"10" = 0;
"11" = 0;
"2" = 0;
"3" = 0;
"4" = 0;
"5" = 0;
"6" = 0;
"7" = 0;
"8" = 0;
"9" = 0;
};
};
width = 165;
},
{
associatedMasterId = "E311F2CF-05EC-45EB-99C0-CA1AFFE6A9D5";
layerId = "9F6023DE-F181-4650-9DFE-EE1DB0DF97BF";
name = "3 de oct. de 23, 12:07";
shapes = (
{
closed = 1;
nodes = (
(168,201,l),
(190,450,l),
(190,693,l),
(130,693,l),
(130,450,l),
(152,201,l)
);
}
);
width = 320;
},
{
associatedMasterId = m001;
layerId = "CBFCBA31-E6C3-4CF9-AFB2-3D5C0F57717D";
name = "3 de oct. de 23, 12:07";
shapes = (
{
closed = 1;
nodes = (
(231,201,l),
(276,390,l),
(276,693,l),
(100,693,l),
(100,390,l),
(145,201,l)
);
}
);
width = 376;
}
);
unicode = 42891;
},
{
color = 3;
glyphname = Gsmallhook;
lastChange = "2024-02-13 17:37:34 +0000";
layers = (
{
associatedMasterId = m001;
layerId = "DBC22934-CAEF-4A76-995D-AF8E96D7AA2B";
name = "18 de sep. de 23, 10:38";
shapes = (
{
closed = 1;
nodes = (
(388,-17,o),
(495,-3,o),
(562,40,c),
(562,217,l),
(621,239,l),
(621,266,l),
(322,266,l),
(322,240,l),
(399,217,l),
(399,66,l),
(382,63,o),
(362,61,o),
(343,61,cs),
(278,61,o),
(221,99,o),
(221,278,cs),
(221,441,o),
(230,488,o),
(313,488,cs),
(338,488,o),
(372,484,o),
(398,478,c),
(497,369,l),
(530,369,l),
(557,510,l),
(537,527,o),
(437,546,o),
(375,546,cs),
(200,546,o),
(35,441,o),
(35,255,cs),
(35,46,o),
(149,-17,o),
(326,-17,cs)
);
},
{
closed = 0;
nodes = (
(453,450,l),
(453,619,ls),
(453,657,o),
(462,659,o),
(474,659,c),
(541,603,l),
(566,603,l),
(584,705,l),
(565,711,o),
(530,714,o),
(507,714,cs),
(356,714,o),
(280,611,o),
(280,513,cs),
(280,450,l)
);
}
);
width = 614;
},
{
associatedMasterId = "E311F2CF-05EC-45EB-99C0-CA1AFFE6A9D5";
layerId = "D9EADC0D-467E-431D-9E1D-70C911876A3C";
name = "18 de sep. de 23, 10:23";
shapes = (
{
closed = 1;
nodes = (
(436,168,l),
(488,196,l),
(488,211,l),
(291,211,l),
(291,197,l),
(354,168,l),
(354,36,l),
(338,31,o),
(312,30,o),
(294,30,cs),
(195,30,o),
(126,102,o),
(126,239,cs),
(126,377,o),
(161,421,o),
(261,421,cs),
(286,421,o),
(324,417,o),
(342,411,c),
(408,338,l),
(437,338,l),
(437,429,ls),
(437,543,o),
(443,566,o),
(472,566,c),
(532,514,l),
(554,514,l),
(566,594,l),
(547,600,o),
(521,603,o),
(498,603,cs),
(424,603,o),
(373,560,o),
(373,494,cs),
(373,476,o),
(377,465,o),
(384,449,c),
(359,457,o),
(328,463,o),
(295,463,cs),
(160,463,o),
(36,374,o),
(36,217,cs),
(36,68,o),
(121,-10,o),
(270,-10,cs),
(332,-10,o),
(390,1,o),
(436,22,c)
);
}
);
width = 515;
},
{
layerId = "E311F2CF-05EC-45EB-99C0-CA1AFFE6A9D5";
name = Light;
shapes = (
{
pos = (2,0);
ref = G.sc;
scale = (0.98,0.936);
},
{
closed = 1;
nodes = (
(372,500,o),
(384,586,o),
(440,586,cs),
(451,586,o),
(463,583,o),
(477,578,c),
(482,597,l),
(450,609,o),
(434,618,o),
(414,618,cs),
(383,618,o),
(350,589,o),
(350,547,cs),
(350,505,o),
(375,460,o),
(408,430,c),
(429,436,l)
);
}
);
userData = {
com.hugojourdan.ColorFlow = {
"0" = 0;
"1" = 0;
"10" = 0;
"11" = 0;
"2" = 0;
"3" = 0;
"4" = 0;
"5" = 0;
"6" = 0;
"7" = 0;
"8" = 0;
"9" = 0;
};
};
width = 505;
},
{
layerId = m001;
name = Black;
shapes = (
{
pos = (5,-2);
ref = G.sc;
scale = (0.98,0.85);
},
{
closed = 1;
nodes = (
(539,523,o),
(561,555,o),
(619,555,cs),
(622,555,o),
(625,555,o),
(628,555,c),
(632,577,l),
(592,597,o),
(568,608,o),
(541,608,cs),
(509,608,o),
(471,582,o),
(471,528,cs),
(471,491,o),
(487,460,o),
(521,419,c),
(551,431,l)
);
}
);
userData = {
com.hugojourdan.ColorFlow = {
"0" = 0;
"1" = 0;
"10" = 0;
"11" = 0;
"2" = 0;
"3" = 0;
"4" = 0;
"5" = 0;
"6" = 0;
"7" = 0;
"8" = 0;
"9" = 0;
};
};
width = 602;
}
);
unicode = 667;
},
{
color = 4;
glyphname = a;
kernLeft = KO_a;
kernRight = KO_a;
lastChange = "2024-02-12 15:02:33 +0000";
layers = (
{
anchors = (
{
name = bottom;
pos = (273,-100);
},
{
name = top;
pos = (227,450);
}
);
layerId = m001;
shapes = (
{
closed = 1;
nodes = (
(155,-19,o),
(191,-22,o),
(284,49,c),
(284,-19,l),
(315,-19,l),
(523,14,l),
(523,44,l),
(452,65,l),
(452,318,ls),
(452,423,o),
(407,469,o),
(283,469,cs),
(255,469,o),
(154,461,o),
(52,425,c),
(66,284,l),
(90,284,l),
(180,403,l),
(186,404,o),
(197,405,o),
(208,405,cs),
(257,405,o),
(284,383,o),
(284,304,cs),
(284,268,l),
(114,265,o),
(23,191,o),
(23,106,cs),
(23,32,o),
(85,-19,o),
(137,-19,cs)
);
},
{
closed = 1;
nodes = (
(195,77,o),
(174,116,o),
(174,152,cs),
(174,200,o),
(184,209,o),
(219,209,cs),
(245,209,o),
(264,205,o),
(284,198,c),
(284,85,l),
(274,79,o),
(261,77,o),
(244,77,cs)
);
}
);
userData = {
com.hugojourdan.ColorFlow = {
"0" = 0;
"1" = 0;
"10" = 0;
"11" = 0;
"2" = 0;
"3" = 0;
"4" = 0;
"5" = 0;
"6" = 0;
"7" = 0;
"8" = 0;
"9" = 0;
};
};
width = 511;
},
{
anchors = (
{
name = bottom;
pos = (230,-100);
},
{
name = top;
pos = (241,450);
}
);
layerId = "E311F2CF-05EC-45EB-99C0-CA1AFFE6A9D5";
shapes = (
{
closed = 1;
nodes = (
(210,-10,o),
(248,18,o),
(289,42,c),
(289,-10,l),
(320,-10,l),
(422,28,l),
(422,42,l),
(351,62,l),
(351,359,ls),
(351,423,o),
(290,460,o),
(226,460,cs),
(172,460,o),
(140,445,o),
(61,411,c),
(68,341,l),
(90,341,l),
(169,424,l),
(172,425,o),
(181,426,o),
(183,426,cs),
(257,426,o),
(289,374,o),
(289,331,cs),
(289,241,l),
(138,238,o),
(39,171,o),
(39,95,cs),
(39,35,o),
(94,-10,o),
(162,-10,cs)
);
},
{
closed = 1;
nodes = (
(144,40,o),
(99,63,o),
(99,120,cs),
(99,170,o),
(143,198,o),
(200,198,cs),
(237,198,o),
(271,195,o),
(289,192,c),
(289,70,l),
(246,48,o),
(215,40,o),
(187,40,cs)
);
}
);
userData = {
com.hugojourdan.ColorFlow = {
"0" = 0;
"1" = 0;
"10" = 0;
"11" = 0;
"2" = 0;
"3" = 0;
"4" = 0;
"5" = 0;
"6" = 0;
"7" = 0;
"8" = 0;
"9" = 0;
};
};
width = 447;
},
{
anchors = (
{
name = bottom;
pos = (230,-100);
},
{
name = top;
pos = (241,450);
}
);
associatedMasterId = "E311F2CF-05EC-45EB-99C0-CA1AFFE6A9D5";
layerId = "ACC326E0-A705-427C-8845-1BE9EF5E548C";
name = "3 de oct. de 23, 9:39";
shapes = (
{
closed = 1;
nodes = (
(210,-10,o),
(248,18,o),
(289,42,c),
(289,-10,l),
(320,-10,l),
(422,28,l),
(422,42,l),
(351,62,l),
(351,359,ls),
(351,423,o),
(290,460,o),
(226,460,cs),
(172,460,o),
(140,445,o),
(61,411,c),
(67,341,l),
(90,341,l),
(169,424,l),
(172,425,o),
(181,426,o),
(183,426,cs),
(257,426,o),
(289,374,o),
(289,331,cs),
(289,241,l),
(138,238,o),
(39,171,o),
(39,95,cs),
(39,35,o),
(94,-10,o),
(162,-10,cs)
);
},
{
closed = 1;
nodes = (
(144,40,o),
(99,63,o),
(99,120,cs),
(99,170,o),
(143,198,o),
(200,198,cs),
(237,198,o),
(271,195,o),
(289,192,c),
(289,70,l),
(246,48,o),
(215,40,o),
(187,40,cs)
);
}
);
width = 447;
},
{
anchors = (
{
name = bottom;
pos = (273,-100);
},
{
name = top;
pos = (227,450);
}
);
associatedMasterId = m001;
layerId = "ADA46146-FCE5-4917-9BC5-70CB42225258";
name = "3 de oct. de 23, 9:39";
shapes = (
{
closed = 1;
nodes = (
(155,-19,o),
(191,-22,o),
(284,49,c),
(284,-19,l),
(315,-19,l),
(523,14,l),
(523,45,l),
(452,65,l),
(452,318,ls),
(452,423,o),
(407,469,o),
(283,469,cs),
(255,469,o),
(154,461,o),
(52,425,c),
(67,284,l),
(90,284,l),
(180,403,l),
(186,404,o),
(197,405,o),
(208,405,cs),
(257,405,o),
(284,383,o),
(284,304,cs),
(284,268,l),
(114,265,o),
(23,191,o),
(23,106,cs),
(23,32,o),
(85,-19,o),
(137,-19,cs)
);
},
{
closed = 1;
nodes = (
(195,77,o),
(174,116,o),
(174,152,cs),
(174,200,o),
(184,209,o),
(219,209,cs),
(245,209,o),
(264,205,o),
(284,198,c),
(284,85,l),
(274,79,o),
(261,77,o),
(244,77,cs)
);
}
);
width = 511;
}
);
unicode = 97;
userData = {
KernOnName = a;
};
},
{
color = 3;
glyphname = "alpha-latin";
lastChange = "2024-02-13 17:37:37 +0000";
layers = (
{
layerId = m001;
shapes = (
{
closed = 1;
nodes = (
(546,75,l),
(539,73,o),
(530,70,o),
(521,70,cs),
(502,70,o),
(499,119,o),
(499,146,cs),
(499,493,l),
(466,498,l),
(410,448,l),
(393,453,o),
(331,468,o),
(261,468,c),
(124,468,o),
(12,350,o),
(12,181,cs),
(12,50,o),
(70,-19,o),
(162,-19,cs),
(235,-19,o),
(291,4,o),
(338,48,c),
(366,-3,o),
(394,-15,o),
(432,-15,cs),
(480,-15,o),
(531,25,o),
(546,47,c)
);
},
{
closed = 1;
nodes = (
(276,397,o),
(310,380,o),
(323,368,c),
(323,90,l),
(306,82,o),
(285,71,o),
(266,71,cs),
(213,71,o),
(194,106,o),
(194,244,cs),
(194,357,o),
(212,397,o),
(252,397,cs)
);
}
);
userData = {
com.hugojourdan.ColorFlow = {
"0" = 0;
"1" = 0;
"10" = 0;
"11" = 0;
"2" = 0;
"3" = 0;
"4" = 0;
"5" = 0;
"6" = 0;
"7" = 0;
"8" = 0;
"9" = 0;
};
};
width = 566;
},
{
layerId = "E311F2CF-05EC-45EB-99C0-CA1AFFE6A9D5";
shapes = (
{
closed = 1;
nodes = (
(518,57,l),
(503,53,o),
(493,51,o),
(480,51,cs),
(447,51,o),
(443,84,o),
(443,119,cs),
(443,469,l),
(425,476,l),
(399,442,l),
(376,451,o),
(335,460,o),
(297,460,cs),
(174,460,o),
(50,365,o),
(50,205,cs),
(50,55,o),
(149,-10,o),
(223,-10,cs),
(263,-10,o),
(306,12,o),
(372,49,c),
(378,20,o),
(398,-10,o),
(440,-10,cs),
(472,-10,o),
(499,16,o),
(518,39,c)
);
},
{
closed = 1;
nodes = (
(301,408,o),
(344,400,o),
(368,388,c),
(368,73,l),
(340,60,o),
(294,47,o),
(263,47,cs),
(185,47,o),
(113,108,o),
(113,244,cs),
(113,366,o),
(171,408,o),
(263,408,cs)
);
}
);
userData = {
com.hugojourdan.ColorFlow = {
"0" = 0;
"1" = 0;
"10" = 0;
"11" = 0;
"2" = 0;
"3" = 0;
"4" = 0;
"5" = 0;
"6" = 0;
"7" = 0;
"8" = 0;
"9" = 0;
};
};
width = 514;
},
{
associatedMasterId = "E311F2CF-05EC-45EB-99C0-CA1AFFE6A9D5";
layerId = "C85EE283-DAC2-4BE4-AF5D-67D933B1C023";
name = " ";
shapes = (
{
closed = 1;
nodes = (
(303,408,o),
(345,401,o),
(371,388,c),
(269,47,l),
(195,47,o),
(115,99,o),
(115,243,cs),
(115,362,o),
(170,408,o),
(260,408,cs)
);
},
{
closed = 0;
nodes = (
(371,623,l),
(371,451,l),
(351,456,o),
(325,460,o),
(299,460,cs),
(173,460,o),
(53,362,o),
(53,211,cs),
(53,56,o),
(145,-10,o),
(229,-10,c)
);
},
{
closed = 0;
nodes = (
(355,107,l),
(360,62,o),
(378,-11,o),
(432,-11,cs),
(473,-11,o),
(501,11,o),
(521,41,c),
(521,56,l),
(500,51,o),
(490,51,o),
(476,51,cs),
(448,51,o),
(430,67,o),
(424,91,cs)
);
}
);
width = 546;
},
{
associatedMasterId = m001;
layerId = "95ECAD19-53F4-44FA-BB01-87E1DF9DB072";
name = "4 de sep. de 23, 10:20";
shapes = (
{
closed = 1;
nodes = (
(269,397,o),
(309,383,o),
(325,368,c),
(325,90,l),
(287,73,o),
(283,72,o),
(260,72,cs),
(204,72,o),
(195,134,o),
(195,246,cs),
(195,373,o),
(223,397,o),
(249,397,cs)
);
},
{
closed = 0;
nodes = (
(262,469,l),
(152,469,o),
(12,378,o),
(12,181,cs),
(12,56,o),
(65,-19,o),
(170,-19,cs),
(242,-19,o),
(273,3,o),
(325,44,c)
);
},
{
closed = 0;
nodes = (
(500,493,l),
(467,498,l),
(411,448,l),
(369,461,o),
(310,469,o),
(262,469,cs)
);
},
{
closed = 0;
nodes = (
(341,102,l),
(341,40,o),
(375,-14,o),
(416,-14,cs),
(443,-14,o),
(496,-8,o),
(548,46,c),
(548,77,l),
(543,72,o),
(527,67,o),
(519,67,cs),
(505,67,o),
(494,78,o),
(491,110,cs)
);
}
);
width = 600;
}
);
metricLeft = o;
metricRight = iota;
unicode = 593;
},
{
color = 4;
glyphname = ae;
kernLeft = KO_a;
lastChange = "2024-02-12 15:02:33 +0000";
layers = (
{
anchors = (
{
name = bottom;
pos = (368,-100);
},
{
name = top;
pos = (368,450);
}
);
layerId = m001;
shapes = (
{
closed = 1;
nodes = (
(208,-19,o),
(236,-26,o),
(329,69,c),
(375,10,o),
(450,-19,o),
(512,-19,cs),
(588,-19,o),
(617,-4,o),
(715,65,c),
(690,103,l),
(659,89,o),
(634,82,o),
(587,82,cs),
(523,82,o),
(460,112,o),
(448,222,c),
(710,222,l),
(713,246,o),
(713,267,o),
(713,290,cs),
(713,391,o),
(647,462,o),
(528,462,cs),
(481,462,o),
(441,447,o),
(407,419,c),
(379,455,o),
(340,469,o),
(305,469,cs),
(255,469,o),
(183,472,o),
(52,425,c),
(66,284,l),
(90,284,l),
(178,391,l),
(189,393,o),
(197,394,o),
(208,394,cs),
(257,394,o),
(284,383,o),
(284,304,cs),
(284,265,l),
(97,247,o),
(23,188,o),
(23,106,cs),
(23,32,o),
(85,-19,o),
(148,-19,cs)
);
},
{
closed = 1;
nodes = (
(201,76,o),
(174,111,o),
(174,151,cs),
(174,194,o),
(192,207,o),
(211,207,cs),
(244,207,o),
(264,203,o),
(284,196,c),
(285,161,o),
(293,131,o),
(306,105,c),
(297,91,o),
(274,76,o),
(247,76,cs)
);
},
{
closed = 1;
nodes = (
(450,398,o),
(456,405,o),
(482,405,cs),
(509,405,o),
(558,382,o),
(558,263,c),
(446,263,l)
);
}
);
userData = {
com.hugojourdan.ColorFlow = {
"0" = 0;
"1" = 0;
"10" = 0;
"11" = 0;
"2" = 0;
"3" = 0;
"4" = 0;
"5" = 0;
"6" = 0;
"7" = 0;
"8" = 0;
"9" = 0;
};
};
width = 727;
},
{
anchors = (
{
name = bottom;
pos = (347,-100);
},
{
name = top;
pos = (347,450);
}
);
layerId = "E311F2CF-05EC-45EB-99C0-CA1AFFE6A9D5";
shapes = (
{
closed = 1;
nodes = (
(190,-10,o),
(270,25,o),
(328,62,c),
(362,11,o),
(417,-10,o),
(487,-10,cs),
(542,-10,o),
(598,26,o),
(656,65,c),
(649,87,l),
(602,57,o),
(553,47,o),
(525,47,cs),
(427,47,o),
(352,105,o),
(352,243,c),
(635,243,l),
(638,251,o),
(644,270,o),
(644,290,cs),
(644,391,o),
(604,462,o),
(485,462,cs),
(427,462,o),
(380,439,o),
(346,399,c),
(330,437,o),
(286,460,o),
(236,460,cs),
(172,460,o),
(140,444,o),
(61,411,c),
(68,341,l),
(90,341,l),
(170,427,l),
(174,428,o),
(179,429,o),
(183,429,cs),
(257,429,o),
(289,374,o),
(289,331,cs),
(289,266,l),
(115,267,o),
(39,177,o),
(39,95,cs),
(39,35,o),
(94,-10,o),
(159,-10,cs)
);
},
{
closed = 1;
nodes = (
(137,41,o),
(99,70,o),
(99,126,cs),
(99,178,o),
(133,223,o),
(211,223,cs),
(238,223,o),
(271,221,o),
(289,218,c),
(290,162,o),
(299,118,o),
(315,84,c),
(253,43,o),
(206,41,o),
(190,41,cs)
);
},
{
closed = 1;
nodes = (
(356,401,o),
(408,421,o),
(450,421,cs),
(546,421,o),
(575,363,o),
(569,277,c),
(352,277,l)
);
}
);
userData = {
com.hugojourdan.ColorFlow = {
"0" = 0;
"1" = 0;
"10" = 0;
"11" = 0;
"2" = 0;
"3" = 0;
"4" = 0;
"5" = 0;
"6" = 0;
"7" = 0;
"8" = 0;
"9" = 0;
};
};
width = 708;
},
{
anchors = (
{
name = bottom;
pos = (368,-100);
},
{
name = top;
pos = (368,450);
}
);
associatedMasterId = m001;
layerId = "8F9DA93A-BFBB-4595-A4D8-9BE90660761A";
name = "3 de oct. de 23, 9:43";
shapes = (
{
closed = 1;
nodes = (
(208,-19,o),
(236,-26,o),
(329,69,c),
(375,10,o),
(450,-19,o),
(512,-19,cs),
(588,-19,o),
(617,-4,o),
(715,65,c),
(690,103,l),
(659,89,o),
(634,82,o),
(587,82,cs),
(523,82,o),
(460,112,o),
(448,222,c),
(710,222,l),
(713,246,o),
(713,267,o),
(713,290,cs),
(713,391,o),
(647,462,o),
(528,462,cs),
(481,462,o),
(441,447,o),
(407,419,c),
(379,455,o),
(340,469,o),
(305,469,cs),
(255,469,o),
(183,472,o),
(52,425,c),
(67,284,l),
(90,284,l),
(178,391,l),
(189,393,o),
(197,394,o),
(208,394,cs),
(257,394,o),
(284,383,o),
(284,304,cs),
(284,265,l),
(97,247,o),
(23,188,o),
(23,106,cs),
(23,32,o),
(85,-19,o),
(148,-19,cs)
);
},
{
closed = 1;
nodes = (
(201,76,o),
(174,111,o),
(174,151,cs),
(174,194,o),
(192,207,o),
(211,207,cs),
(244,207,o),
(264,203,o),
(284,196,c),
(285,161,o),
(293,131,o),
(306,105,c),
(297,91,o),
(274,76,o),
(247,76,cs)
);
},
{
closed = 1;
nodes = (
(450,398,o),
(456,405,o),
(482,405,cs),
(509,405,o),
(558,382,o),
(558,263,c),
(446,263,l)
);
}
);
width = 727;
}
);
unicode = 230;
},
{
color = 4;
glyphname = b;
kernRight = KO_p;
lastChange = "2024-02-12 15:02:33 +0000";
layers = (
{
anchors = (
{
name = bottom;
pos = (252,-100);
},
{
name = top;
pos = (252,450);
}
);
layerId = m001;
shapes = (
{
closed = 1;
nodes = (
(75,-48,l),
(131,3,l),
(173,-11,o),
(234,-19,o),
(283,-19,cs),
(393,-19,o),
(533,72,o),
(533,269,cs),
(533,394,o),
(480,469,o),
(375,469,cs),
(302,469,o),
(271,446,o),
(218,404,c),
(218,549,l),
(232,693,l),
(201,693,l),
(-26,656,l),
(-26,622,l),
(45,605,l),
(45,-44,l)
);
},
{
closed = 1;
nodes = (
(218,359,l),
(251,374,o),
(262,378,o),
(285,378,cs),
(342,378,o),
(350,316,o),
(350,204,cs),
(350,77,o),
(322,53,o),
(296,53,cs),
(276,53,o),
(234,68,o),
(219,83,c)
);
}
);
userData = {
com.hugojourdan.ColorFlow = {
"0" = 0;
"1" = 0;
"10" = 0;
"11" = 0;
"2" = 0;
"3" = 0;
"4" = 0;
"5" = 0;
"6" = 0;
"7" = 0;
"8" = 0;
"9" = 0;
};
};
width = 545;
},
{
anchors = (
{
name = bottom;
pos = (249,-100);
},
{
name = top;
pos = (249,450);
}
);
layerId = "E311F2CF-05EC-45EB-99C0-CA1AFFE6A9D5";
shapes = (
{
closed = 1;
nodes = (
(112,-27,l),
(140,5,l),
(158,-3,o),
(195,-10,o),
(230,-10,cs),
(356,-10,o),
(476,88,o),
(476,239,cs),
(476,394,o),
(384,460,o),
(300,460,cs),
(269,460,o),
(225,438,o),
(159,404,c),
(159,606,l),
(168,693,l),
(137,693,l),
(22,656,l),
(22,643,l),
(93,621,l),
(93,-17,l)
);
},
{
closed = 1;
nodes = (
(159,377,l),
(186,390,o),
(233,403,o),
(260,403,cs),
(333,403,o),
(414,351,o),
(414,207,cs),
(414,88,o),
(359,42,o),
(269,42,cs),
(226,42,o),
(185,49,o),
(159,61,c)
);
}
);
userData = {
com.hugojourdan.ColorFlow = {
"0" = 0;
"1" = 0;
"10" = 0;
"11" = 0;
"2" = 0;
"3" = 0;
"4" = 0;
"5" = 0;
"6" = 0;
"7" = 0;
"8" = 0;
"9" = 0;
};
};
width = 529;
}
);
unicode = 98;
userData = {
KernOnName = b;
};
},
{
color = 3;
glyphname = bhook;
lastChange = "2024-02-13 17:37:49 +0000";
layers = (
{
layerId = "E311F2CF-05EC-45EB-99C0-CA1AFFE6A9D5";
name = Light;
shapes = (
{
closed = 1;
nodes = (
(109,-27,l),
(137,5,l),
(155,-3,o),
(192,-10,o),
(227,-10,cs),
(353,-10,o),
(473,88,o),
(473,239,cs),
(473,394,o),
(381,460,o),
(297,460,cs),
(266,460,o),
(222,438,o),
(156,404,c),
(156,517,ls),
(156,627,o),
(175,674,o),
(225,674,c),
(281,624,l),
(303,624,l),
(315,694,l),
(296,700,o),
(270,703,o),
(247,703,cs),
(161,703,o),
(90,635,o),
(90,480,cs),
(90,-17,l)
);
},
{
closed = 1;
nodes = (
(223,42,o),
(182,49,o),
(156,61,c),
(156,377,l),
(183,390,o),
(230,403,o),
(257,403,cs),
(330,403,o),
(411,351,o),
(411,207,cs),
(411,88,o),
(356,42,o),
(266,42,cs)
);
}
);
userData = {
com.hugojourdan.ColorFlow = {
"0" = 0;
"1" = 0;
"10" = 0;
"11" = 0;
"2" = 0;
"3" = 0;
"4" = 0;
"5" = 0;
"6" = 0;
"7" = 0;
"8" = 0;
"9" = 0;
};
};
width = 526;
},
{
layerId = m001;
name = Black;
shapes = (
{
closed = 1;
nodes = (
(70,-48,l),
(126,3,l),
(168,-11,o),
(229,-19,o),
(278,-19,cs),
(388,-19,o),
(528,72,o),
(528,269,cs),
(528,394,o),
(475,469,o),
(370,469,cs),
(297,469,o),
(266,446,o),
(213,404,c),
(213,600,ls),
(213,620,o),
(212,647,o),
(224,647,c),
(301,587,l),
(323,587,l),
(340,694,l),
(315,702,o),
(304,705,o),
(249,705,cs),
(163,705,o),
(40,651,o),
(40,519,cs),
(40,-44,l)
);
},
{
closed = 1;
nodes = (
(271,53,o),
(229,68,o),
(214,83,c),
(213,359,l),
(253,377,o),
(257,378,o),
(280,378,cs),
(337,378,o),
(345,316,o),
(345,204,cs),
(345,77,o),
(317,53,o),
(291,53,cs)
);
}
);
userData = {
com.hugojourdan.ColorFlow = {
"0" = 0;
"1" = 0;
"10" = 0;
"11" = 0;
"2" = 0;
"3" = 0;
"4" = 0;
"5" = 0;
"6" = 0;
"7" = 0;
"8" = 0;
"9" = 0;
};
};
width = 540;
}
);
metricRight = b;
unicode = 595;
},
{
color = 3;
glyphname = bidentalpercussive;
lastChange = "2024-02-13 17:37:49 +0000";
layers = (
{
layerId = m001;
shapes = (
{
closed = 1;
nodes = (
(90,239,l),
(132,307,l),
(369,307,l),
(412,239,l),
(446,239,l),
(436,450,l),
(64,450,l),
(54,239,l)
);
},
{
closed = 1;
nodes = (
(90,5,l),
(132,73,l),
(369,73,l),
(412,5,l),
(446,5,l),
(436,216,l),
(64,216,l),
(54,5,l)
);
}
);
userData = {
com.hugojourdan.ColorFlow = {
"0" = 0;
"1" = 0;
"10" = 0;
"11" = 0;
"2" = 0;
"3" = 0;
"4" = 0;
"5" = 0;
"6" = 0;
"7" = 0;
"8" = 0;
"9" = 0;
};
};
width = 500;
},
{
layerId = "E311F2CF-05EC-45EB-99C0-CA1AFFE6A9D5";
shapes = (
{
closed = 1;
nodes = (
(87,317,l),
(120,388,l),
(361,388,l),
(394,317,l),
(417,317,l),
(415,450,l),
(65,450,l),
(63,317,l)
);
},
{
closed = 1;
nodes = (
(87,27,l),
(120,98,l),
(361,98,l),
(394,27,l),
(417,27,l),
(415,160,l),
(65,160,l),
(63,27,l)
);
}
);
userData = {
com.hugojourdan.ColorFlow = {
"0" = 0;
"1" = 0;
"10" = 0;
"11" = 0;
"2" = 0;
"3" = 0;
"4" = 0;
"5" = 0;
"6" = 0;
"7" = 0;
"8" = 0;
"9" = 0;
};
};
width = 480;
},
{
associatedMasterId = "E311F2CF-05EC-45EB-99C0-CA1AFFE6A9D5";
layerId = "D2BB2F9E-7D55-48D7-8453-073B53BDAF7F";
name = "6 de sep. de 23, 9:54";
shapes = (
{
closed = 0;
nodes = (
(509,422,l),
(496,450,l),
(75,450,l),
(47,300,l),
(73,300,l),
(136,389,l),
(391,389,l)
);
}
);
width = 500;
}
);
unicode = 685;
},
{
color = 3;
glyphname = bilabialclick;
lastChange = "2024-02-13 17:37:49 +0000";
layers = (
{
layerId = m001;
shapes = (
{
ref = O;
},
{
closed = 1;
nodes = (
(393,218,o),
(463,278,o),
(463,313,cs),
(463,350,o),
(383,395,o),
(350,395,cs),
(313,395,o),
(247,334,o),
(247,299,cs),
(247,263,o),
(326,218,o),
(360,218,cs)
);
}
);
userData = {
com.hugojourdan.ColorFlow = {
"0" = 0;
"1" = 0;
"10" = 0;
"11" = 0;
"2" = 0;
"3" = 0;
"4" = 0;
"5" = 0;
"6" = 0;
"7" = 0;
"8" = 0;
"9" = 0;
};
};
width = 709;
},
{
layerId = "E311F2CF-05EC-45EB-99C0-CA1AFFE6A9D5";
shapes = (
{
ref = O;
},
{
closed = 1;
nodes = (
(345,261,o),
(374,291,o),
(374,310,cs),
(374,329,o),
(340,352,o),
(326,352,cs),
(311,352,o),
(282,321,o),
(282,302,cs),
(282,285,o),
(315,261,o),
(330,261,cs)
);
}
);
userData = {
com.hugojourdan.ColorFlow = {
"0" = 0;
"1" = 0;
"10" = 0;
"11" = 0;
"2" = 0;
"3" = 0;
"4" = 0;
"5" = 0;
"6" = 0;
"7" = 0;
"8" = 0;
"9" = 0;
};
};
width = 656;
}
);
unicode = 664;
},
{
color = 3;
glyphname = bilabialpercussive;
lastChange = "2024-02-13 17:37:49 +0000";
layers = (
{
layerId = m001;
shapes = (
{
closed = 1;
nodes = (
(224,381,l),
(295,537,l),
(352,365,l),
(463,381,l),
(534,652,l),
(563,674,l),
(563,693,l),
(445,693,l),
(445,674,l),
(481,649,l),
(437,483,l),
(372,693,l),
(299,693,l),
(216,483,l),
(185,649,l),
(231,674,l),
(231,693,l),
(15,693,l),
(15,674,l),
(48,649,l),
(123,365,l)
);
},
{
closed = 1;
nodes = (
(224,6,l),
(295,162,l),
(352,-10,l),
(463,6,l),
(534,277,l),
(563,299,l),
(563,318,l),
(445,318,l),
(445,299,l),
(481,274,l),
(437,108,l),
(372,318,l),
(299,318,l),
(216,108,l),
(185,274,l),
(231,299,l),
(231,318,l),
(15,318,l),
(15,299,l),
(48,274,l),
(123,-10,l)
);
}
);
userData = {
com.hugojourdan.ColorFlow = {
"0" = 0;
"1" = 0;
"10" = 0;
"11" = 0;
"2" = 0;
"3" = 0;
"4" = 0;
"5" = 0;
"6" = 0;
"7" = 0;
"8" = 0;
"9" = 0;
};
};
width = 578;
},
{
layerId = "E311F2CF-05EC-45EB-99C0-CA1AFFE6A9D5";
shapes = (
{
closed = 1;
nodes = (
(201,384,l),
(286,596,l),
(375,367,l),
(419,384,l),
(501,653,l),
(541,678,l),
(541,690,l),
(427,690,l),
(427,678,l),
(467,653,l),
(399,439,l),
(300,690,l),
(286,690,l),
(189,438,l),
(115,653,l),
(161,678,l),
(161,690,l),
(30,690,l),
(30,678,l),
(62,655,l),
(144,367,l)
);
},
{
closed = 1;
nodes = (
(201,9,l),
(286,221,l),
(375,-8,l),
(419,9,l),
(501,278,l),
(541,303,l),
(541,315,l),
(427,315,l),
(427,303,l),
(467,278,l),
(399,64,l),
(300,315,l),
(286,315,l),
(189,63,l),
(115,278,l),
(161,303,l),
(161,315,l),
(30,315,l),
(30,303,l),
(62,280,l),
(144,-8,l)
);
}
);
userData = {
com.hugojourdan.ColorFlow = {
"0" = 0;
"1" = 0;
"10" = 0;
"11" = 0;
"2" = 0;
"3" = 0;
"4" = 0;
"5" = 0;
"6" = 0;
"7" = 0;
"8" = 0;
"9" = 0;
};
};
width = 559;
},
{
associatedMasterId = "E311F2CF-05EC-45EB-99C0-CA1AFFE6A9D5";
layerId = "93D16219-1C25-4C9A-AC22-8D13BD3AB25A";
name = "6 de sep. de 23, 10:02";
shapes = (
{
closed = 1;
nodes = (
(178,670,l),
(178,693,l),
(12,693,l),
(12,670,l),
(47,656,l),
(151,368,l),
(192,384,l),
(282,582,l),
(371,368,l),
(411,384,l),
(515,655,l),
(556,670,l),
(556,693,l),
(424,693,l),
(424,670,l),
(463,655,l),
(465,655,l),
(407,475,l),
(318,693,l),
(279,693,l),
(192,474,l),
(129,655,l),
(130,655,l)
);
},
{
closed = 1;
nodes = (
(178,290,l),
(178,313,l),
(12,313,l),
(12,290,l),
(47,276,l),
(151,-12,l),
(192,4,l),
(282,202,l),
(371,-12,l),
(411,4,l),
(515,275,l),
(556,290,l),
(556,313,l),
(424,313,l),
(424,290,l),
(463,275,l),
(465,275,l),
(407,95,l),
(318,313,l),
(279,313,l),
(192,94,l),
(129,275,l),
(130,275,l)
);
}
);
visible = 1;
width = 600;
}
);
unicode = 684;
},
{
color = 4;
glyphname = c;
kernLeft = KO_e;
kernRight = KO_c;
lastChange = "2024-02-12 15:02:33 +0000";
layers = (
{
anchors = (
{
name = bottom;
pos = (220,-100);
},
{
name = top;
pos = (174,450);
}
);
layerId = m001;
shapes = (
{
closed = 1;
nodes = (
(297,-19,o),
(315,-10,o),
(420,61,c),
(406,99,l),
(367,84,o),
(345,83,o),
(315,83,cs),
(250,83,o),
(178,126,o),
(178,271,cs),
(178,397,o),
(205,415,o),
(227,415,cs),
(242,415,o),
(260,412,o),
(264,411,c),
(356,294,l),
(380,294,l),
(406,447,l),
(370,461,o),
(340,469,o),
(291,469,cs),
(121,469,o),
(12,387,o),
(12,200,cs),
(12,32,o),
(137,-19,o),
(219,-19,cs)
);
}
);
userData = {
com.hugojourdan.ColorFlow = {
"0" = 0;
"1" = 0;
"10" = 0;
"11" = 0;
"2" = 0;
"3" = 0;
"4" = 0;
"5" = 0;
"6" = 0;
"7" = 0;
"8" = 0;
"9" = 0;
};
};
width = 426;
},
{
anchors = (
{
name = bottom;
pos = (226,-100);
},
{
name = top;
pos = (286,450);
}
);
layerId = "E311F2CF-05EC-45EB-99C0-CA1AFFE6A9D5";
shapes = (
{
closed = 1;
nodes = (
(294,-10,o),
(347,15,o),
(403,52,c),
(394,74,l),
(355,57,o),
(312,46,o),
(277,46,cs),
(183,46,o),
(108,101,o),
(108,255,cs),
(108,372,o),
(151,418,o),
(234,418,cs),
(242,418,o),
(270,417,o),
(279,415,c),
(339,353,l),
(361,353,l),
(376,442,l),
(348,456,o),
(296,460,o),
(261,460,cs),
(145,460,o),
(50,362,o),
(50,211,cs),
(50,78,o),
(115,-10,o),
(253,-10,cs)
);
}
);
userData = {
com.hugojourdan.ColorFlow = {
"0" = 0;
"1" = 0;
"10" = 0;
"11" = 0;
"2" = 0;
"3" = 0;
"4" = 0;
"5" = 0;
"6" = 0;
"7" = 0;
"8" = 0;
"9" = 0;
};
};
width = 432;
}
);
metricLeft = o;
unicode = 99;
},
{
color = 3;
glyphname = ccurl;
lastChange = "2024-02-13 17:37:52 +0000";
layers = (
{
anchors = (
{
name = top;
pos = (174,450);
}
);
layerId = m001;
shapes = (
{
closed = 1;
nodes = (
(289,120,o),
(307,135,o),
(338,135,cs),
(357,135,o),
(372,121,o),
(372,97,cs),
(372,64,o),
(340,48,o),
(300,48,cs),
(228,48,o),
(178,126,o),
(178,271,cs),
(178,397,o),
(205,415,o),
(227,415,cs),
(242,415,o),
(260,412,o),
(264,411,c),
(356,294,l),
(380,294,l),
(406,447,l),
(370,461,o),
(340,469,o),
(291,469,cs),
(121,469,o),
(12,387,o),
(12,200,cs),
(12,32,o),
(136,-19,o),
(241,-19,cs),
(343,-19,o),
(428,30,o),
(428,105,cs),
(428,154,o),
(396,191,o),
(345,188,cs),
(283,186,o),
(249,156,o),
(125,-75,c),
(173,-94,l)
);
}
);
userData = {
com.hugojourdan.ColorFlow = {
"0" = 0;
"1" = 0;
"10" = 0;
"11" = 0;
"2" = 0;
"3" = 0;
"4" = 0;
"5" = 0;
"6" = 0;
"7" = 0;
"8" = 0;
"9" = 0;
};
};
width = 434;
},
{
associatedMasterId = m001;
layerId = "86C268A3-D59D-4BE8-A35C-425439082941";
name = "9 de oct. de 23, 8:36";
shapes = (
{
closed = 1;
nodes = (
(350,-19,o),
(463,69,o),
(463,162,cs),
(463,219,o),
(434,252,o),
(356,252,cs),
(273,252,o),
(202,201,o),
(187,191,c),
(182,209,o),
(178,252,o),
(178,271,cs),
(178,397,o),
(205,415,o),
(223,415,cs),
(240,415,o),
(252,414,o),
(263,410,c),
(356,294,l),
(380,294,l),
(406,447,l),
(370,461,o),
(340,469,o),
(291,469,cs),
(121,469,o),
(12,387,o),
(12,201,cs),
(12,154,o),
(21,115,o),
(38,81,c),
(16,55,o),
(-4,29,o),
(-22,1,c),
(15,-25,l),
(31,-1,o),
(47,22,o),
(66,44,c),
(100,8,o),
(151,-19,o),
(240,-19,cs)
);
},
{
closed = 1;
nodes = (
(257,83,o),
(217,122,o),
(203,149,c),
(220,165,o),
(285,202,o),
(332,204,cs),
(374,206,o),
(404,194,o),
(404,149,cs),
(404,111,o),
(380,83,o),
(301,83,cs)
);
}
);
width = 426;
},
{
associatedMasterId = m001;
layerId = "A6806E79-1E76-4B83-AEB6-C1C570475322";
name = "5 de sep. de 23, 9:44";
shapes = (
{
closed = 1;
nodes = (
(297,-19,o),
(315,-10,o),
(420,61,c),
(406,99,l),
(367,84,o),
(345,83,o),
(315,83,cs),
(250,83,o),
(178,126,o),
(178,271,cs),
(178,397,o),
(205,415,o),
(223,415,cs),
(240,415,o),
(252,414,o),
(263,410,c),
(356,294,l),
(380,294,l),
(406,447,l),
(370,461,o),
(340,469,o),
(291,469,cs),
(121,469,o),
(12,387,o),
(12,200,cs),
(12,32,o),
(137,-19,o),
(219,-19,cs)
);
},
{
closed = 1;
nodes = (
(16,-26,l),
(71,75,o),
(264,208,o),
(333,205,c),
(315,243,l),
(246,246,o),
(29,100,o),
(-26,-1,c)
);
}
);
width = 426;
},
{
associatedMasterId = "E311F2CF-05EC-45EB-99C0-CA1AFFE6A9D5";
layerId = "0852E489-D051-4754-8341-29096FCA2CE6";
name = "5 de sep. de 23, 9:38";
shapes = (
{
closed = 1;
nodes = (
(297,-10,o),
(350,15,o),
(406,52,c),
(397,74,l),
(358,57,o),
(315,46,o),
(280,46,cs),
(186,46,o),
(111,101,o),
(111,255,cs),
(111,372,o),
(154,418,o),
(237,418,cs),
(245,418,o),
(273,417,o),
(282,415,c),
(342,353,l),
(364,353,l),
(379,442,l),
(351,456,o),
(299,460,o),
(264,460,cs),
(148,460,o),
(53,362,o),
(53,211,cs),
(53,78,o),
(118,-10,o),
(256,-10,cs)
);
},
{
closed = 1;
nodes = (
(40,-7,l),
(83,69,o),
(186,170,o),
(288,170,cs),
(403,170,o),
(403,103,o),
(351,57,c),
(368,32,l),
(404,61,o),
(417,83,o),
(417,118,cs),
(417,185,o),
(349,199,o),
(296,199,cs),
(181,199,o),
(66,98,o),
(18,5,c)
);
}
);
width = 435;
},
{
associatedMasterId = "E311F2CF-05EC-45EB-99C0-CA1AFFE6A9D5";
layerId = "547E0B7C-7551-4305-9472-311384428033";
name = "9 de oct. de 23, 8:37";
shapes = (
{
closed = 1;
nodes = (
(313,-10,o),
(417,36,o),
(417,118,cs),
(417,185,o),
(361,201,o),
(296,201,cs),
(243,201,o),
(181,174,o),
(132,137,c),
(119,167,o),
(111,206,o),
(111,255,cs),
(111,372,o),
(154,418,o),
(237,418,cs),
(256,418,o),
(276,416,o),
(285,414,c),
(335,353,l),
(357,353,l),
(380,442,l),
(352,456,o),
(299,460,o),
(264,460,cs),
(148,460,o),
(53,362,o),
(53,211,cs),
(53,164,o),
(61,122,o),
(78,88,c),
(53,62,o),
(32,33,o),
(18,5,c),
(43,-10,l),
(56,13,o),
(74,37,o),
(95,61,c),
(130,16,o),
(179,-10,o),
(256,-10,cs)
);
},
{
closed = 1;
nodes = (
(225,46,o),
(176,61,o),
(145,108,c),
(188,142,o),
(238,169,o),
(288,169,cs),
(349,169,o),
(383,145,o),
(383,116,cs),
(383,79,o),
(370,46,o),
(280,46,cs)
);
}
);
width = 435;
},
{
anchors = (
{
name = top;
pos = (286,450);
}
);
layerId = "E311F2CF-05EC-45EB-99C0-CA1AFFE6A9D5";
name = Light;
shapes = (
{
closed = 1;
nodes = (
(275,109,o),
(294,133,o),
(326,133,cs),
(350,133,o),
(365,118,o),
(365,100,cs),
(365,65,o),
(326,46,o),
(277,46,c),
(183,46,o),
(108,101,o),
(108,255,cs),
(108,372,o),
(151,418,o),
(234,418,cs),
(242,418,o),
(270,417,o),
(279,415,c),
(339,353,l),
(361,353,l),
(376,442,l),
(348,456,o),
(296,460,o),
(261,460,cs),
(145,460,o),
(50,362,o),
(50,211,cs),
(50,78,o),
(115,-10,o),
(253,-10,cs),
(329,-10,o),
(405,53,o),
(405,105,cs),
(405,139,o),
(377,171,o),
(333,169,cs),
(278,167,o),
(248,139,o),
(133,-77,c),
(167,-92,l)
);
}
);
userData = {
com.hugojourdan.ColorFlow = {
"0" = 0;
"1" = 0;
"10" = 0;
"11" = 0;
"2" = 0;
"3" = 0;
"4" = 0;
"5" = 0;
"6" = 0;
"7" = 0;
"8" = 0;
"9" = 0;
};
};
width = 434;
},
{
associatedMasterId = "E311F2CF-05EC-45EB-99C0-CA1AFFE6A9D5";
layerId = "FF3C080E-450D-4FBD-844C-76B1830F276C";
name = "15 de dic. de 23, 14:20";
shapes = (
{
closed = 1;
nodes = (
(313,-10,o),
(417,36,o),
(417,118,cs),
(417,185,o),
(361,201,o),
(296,201,cs),
(243,201,o),
(181,174,o),
(132,137,c),
(119,167,o),
(111,206,o),
(111,255,cs),
(111,372,o),
(154,418,o),
(237,418,cs),
(245,418,o),
(273,417,o),
(282,415,c),
(342,353,l),
(364,353,l),
(379,442,l),
(351,456,o),
(299,460,o),
(264,460,cs),
(148,460,o),
(53,362,o),
(53,211,cs),
(53,164,o),
(61,122,o),
(78,88,c),
(53,62,o),
(32,33,o),
(18,5,c),
(43,-10,l),
(56,13,o),
(74,37,o),
(95,61,c),
(130,16,o),
(179,-10,o),
(256,-10,cs)
);
},
{
closed = 1;
nodes = (
(225,46,o),
(176,61,o),
(145,108,c),
(188,142,o),
(238,169,o),
(288,169,cs),
(349,169,o),
(383,145,o),
(383,116,cs),
(383,79,o),
(370,46,o),
(280,46,cs)
);
}
);
width = 435;
}
);
metricLeft = c;
metricRight = c;
unicode = 597;
},
{
color = 3;
glyphname = chook;
lastChange = "2024-02-13 17:37:55 +0000";
layers = (
{
layerId = m001;
shapes = (
{
ref = c;
},
{
closed = 1;
nodes = (
(394,538,o),
(416,570,o),
(474,570,cs),
(477,570,o),
(480,570,o),
(483,570,c),
(487,592,l),
(447,612,o),
(423,623,o),
(396,623,cs),
(364,623,o),
(326,597,o),
(326,543,cs),
(326,506,o),
(342,475,o),
(376,434,c),
(406,446,l)
);
}
);
userData = {
com.hugojourdan.ColorFlow = {
"0" = 0;
"1" = 0;
"10" = 0;
"11" = 0;
"2" = 0;
"3" = 0;
"4" = 0;
"5" = 0;
"6" = 0;
"7" = 0;
"8" = 0;
"9" = 0;
};
};
width = 426;
},
{
layerId = "E311F2CF-05EC-45EB-99C0-CA1AFFE6A9D5";
shapes = (
{
ref = c;
},
{
closed = 1;
nodes = (
(314,511,o),
(327,602,o),
(386,602,cs),
(398,602,o),
(411,599,o),
(426,594,c),
(431,614,l),
(397,626,o),
(380,636,o),
(358,636,cs),
(326,636,o),
(290,605,o),
(290,561,cs),
(290,516,o),
(317,468,o),
(352,436,c),
(374,443,l)
);
}
);
userData = {
com.hugojourdan.ColorFlow = {
"0" = 0;
"1" = 0;
"10" = 0;
"11" = 0;
"2" = 0;
"3" = 0;
"4" = 0;
"5" = 0;
"6" = 0;
"7" = 0;
"8" = 0;
"9" = 0;
};
};
width = 432;
},
{
associatedMasterId = m001;
layerId = "2A03573C-5847-4C94-A2E7-63BA97B6FDA5";
name = "9 de oct. de 23, 8:39";
shapes = (
{
closed = 1;
nodes = (
(297,-19,o),
(315,-10,o),
(420,61,c),
(406,99,l),
(367,84,o),
(345,83,o),
(315,83,cs),
(250,83,o),
(178,126,o),
(178,271,cs),
(178,397,o),
(205,415,o),
(227,415,cs),
(249,415,o),
(271,412,o),
(293,408,c),
(377,294,l),
(406,294,l),
(406,447,ls),
(406,592,o),
(412,594,o),
(427,594,c),
(494,538,l),
(519,538,l),
(537,640,l),
(518,646,o),
(483,649,o),
(460,649,cs),
(319,649,o),
(270,560,o),
(264,468,c),
(109,460,o),
(12,377,o),
(12,200,cs),
(12,32,o),
(137,-19,o),
(219,-19,cs)
);
}
);
width = 426;
},
{
associatedMasterId = m001;
layerId = "D49CC103-4D82-42B4-B9D3-D7FA48F12F98";
name = "14 de dic. de 23, 11:07";
shapes = (
{
closed = 1;
nodes = (
(297,-19,o),
(315,-10,o),
(420,61,c),
(406,99,l),
(367,84,o),
(345,83,o),
(315,83,cs),
(250,83,o),
(178,126,o),
(178,271,cs),
(178,397,o),
(205,415,o),
(227,415,cs),
(249,415,o),
(271,412,o),
(293,408,c),
(377,294,l),
(406,294,l),
(406,447,ls),
(406,592,o),
(412,594,o),
(427,594,c),
(494,538,l),
(519,538,l),
(537,640,l),
(518,646,o),
(483,649,o),
(460,649,cs),
(319,649,o),
(270,560,o),
(264,468,c),
(249,466,o),
(233,465,o),
(218,463,cs),
(90,442,o),
(12,359,o),
(12,200,cs),
(12,32,o),
(137,-19,o),
(219,-19,cs)
);
}
);
width = 426;
}
);
metricLeft = c;
unicode = 392;
},
{
color = 11;
glyphname = cstretched;
lastChange = "2024-05-17 05:36:50 +0000";
layers = (
{
layerId = m001;
shapes = (
{
closed = 1;
nodes = (
(327,-236,o),
(400,-227,o),
(478,-189,c),
(510,-5,l),
(478,-5,l),
(400,-139,l),
(369,-155,o),
(338,-163,o),
(312,-159,cs),
(251,-150,o),
(220,-55,o),
(220,121,cs),
(220,321,o),
(263,398,o),
(304,401,cs),
(332,403,o),
(347,396,o),
(361,386,c),
(440,262,l),
(474,262,l),
(502,401,l),
(453,456,o),
(379,464,o),
(309,464,cs),
(192,464,o),
(35,363,o),
(35,97,cs),
(35,-120,o),
(148,-236,o),
(288,-236,cs)
);
}
);
userData = {
com.hugojourdan.ColorFlow = {
"0" = 0;
"1" = 0;
"10" = 0;
"11" = 0;
"2" = 0;
"3" = 0;
"4" = 0;
"5" = 0;
"6" = 0;
"7" = 0;
"8" = 0;
"9" = 0;
};
};
width = 554;
},
{
layerId = "E311F2CF-05EC-45EB-99C0-CA1AFFE6A9D5";
shapes = (
{
closed = 1;
nodes = (
(345,-238,o),
(393,-233,o),
(464,-195,c),
(485,-76,l),
(462,-76,l),
(376,-184,l),
(352,-197,o),
(336,-200,o),
(317,-200,cs),
(189,-200,o),
(118,-86,o),
(119,149,cs),
(120,346,o),
(182,439,o),
(281,439,cs),
(316,439,o),
(333,436,o),
(370,421,c),
(424,325,l),
(446,325,l),
(467,449,l),
(430,472,o),
(385,487,o),
(321,487,cs),
(152,487,o),
(51,329,o),
(51,120,cs),
(51,-119,o),
(131,-238,o),
(278,-238,cs)
);
}
);
userData = {
com.hugojourdan.ColorFlow = {
"0" = 0;
"1" = 0;
"10" = 0;
"11" = 0;
"2" = 0;
"3" = 0;
"4" = 0;
"5" = 0;
"6" = 0;
"7" = 0;
"8" = 0;
"9" = 0;
};
};
width = 535;
}
);
metricLeft = C;
metricRight = C;
unicode = 663;
},
{
color = 4;
glyphname = d;
kernLeft = KO_d;
lastChange = "2024-02-12 15:02:33 +0000";
layers = (
{
anchors = (
{
name = bottom;
pos = (285,-100);
},
{
name = top;
pos = (285,450);
}
);
layerId = m001;
shapes = (
{
closed = 1;
nodes = (
(204,72,o),
(195,134,o),
(195,246,cs),
(195,373,o),
(223,397,o),
(249,397,cs),
(269,397,o),
(309,383,o),
(325,368,c),
(325,90,l),
(287,73,o),
(283,72,o),
(260,72,cs)
);
},
{
closed = 1;
nodes = (
(242,-19,o),
(273,3,o),
(325,44,c),
(325,-19,l),
(356,-19,l),
(557,14,l),
(557,45,l),
(498,65,l),
(498,549,l),
(512,693,l),
(481,693,l),
(254,656,l),
(254,622,l),
(325,604,l),
(325,465,l),
(303,468,o),
(282,469,o),
(262,469,cs),
(152,469,o),
(12,378,o),
(12,181,cs),
(12,56,o),
(65,-19,o),
(170,-19,cs)
);
}
);
userData = {
com.hugojourdan.ColorFlow = {
"0" = 0;
"1" = 0;
"10" = 0;
"11" = 0;
"2" = 0;
"3" = 0;
"4" = 0;
"5" = 0;
"6" = 0;
"7" = 0;
"8" = 0;
"9" = 0;
};
};
width = 566;
},
{
anchors = (
{
name = bottom;
pos = (288,-100);
},
{
name = top;
pos = (288,450);
}
);
layerId = "E311F2CF-05EC-45EB-99C0-CA1AFFE6A9D5";
shapes = (
{
closed = 1;
nodes = (
(195,47,o),
(115,99,o),
(115,243,cs),
(115,362,o),
(170,408,o),
(260,408,cs),
(303,408,o),
(345,401,o),
(371,388,c),
(371,73,l),
(344,60,o),
(296,47,o),
(269,47,cs)
);
},
{
closed = 1;
nodes = (
(260,-10,o),
(305,12,o),
(371,46,c),
(371,-10,l),
(402,-10,l),
(522,28,l),
(522,42,l),
(436,62,l),
(436,606,l),
(445,693,l),
(414,693,l),
(299,656,l),
(299,643,l),
(371,623,l),
(371,451,l),
(351,456,o),
(325,460,o),
(299,460,cs),
(173,460,o),
(53,362,o),
(53,211,cs),
(53,56,o),
(145,-10,o),
(229,-10,cs)
);
}
);
userData = {
com.hugojourdan.ColorFlow = {
"0" = 0;
"1" = 0;
"10" = 0;
"11" = 0;
"2" = 0;
"3" = 0;
"4" = 0;
"5" = 0;
"6" = 0;
"7" = 0;
"8" = 0;
"9" = 0;
};
};
width = 531;
}
);
unicode = 100;
},
{
color = 4;
glyphname = dcroat;
lastChange = "2024-02-12 15:02:33 +0000";
layers = (
{
layerId = m001;
shapes = (
{
closed = 1;
nodes = (
(229,579,l),
(229,521,l),
(545,521,l),
(545,579,l)
);
},
{
ref = d;
}
);
userData = {
com.hugojourdan.ColorFlow = {
"0" = 0;
"1" = 0;
"10" = 0;
"11" = 0;
"2" = 0;
"3" = 0;
"4" = 0;
"5" = 0;
"6" = 0;
"7" = 0;
"8" = 0;
"9" = 0;
};
};
width = 563;
},
{
layerId = "E311F2CF-05EC-45EB-99C0-CA1AFFE6A9D5";
shapes = (
{
closed = 1;
nodes = (
(240,568,l),
(240,530,l),
(515,530,l),
(515,568,l)
);
},
{
ref = d;
}
);
userData = {
com.hugojourdan.ColorFlow = {
"0" = 0;
"1" = 0;
"10" = 0;
"11" = 0;
"2" = 0;
"3" = 0;
"4" = 0;
"5" = 0;
"6" = 0;
"7" = 0;
"8" = 0;
"9" = 0;
};
};
width = 536;
}
);
unicode = 273;
},
{
color = 3;
glyphname = dezh;
lastChange = "2024-02-13 17:37:59 +0000";
layers = (
{
layerId = m001;
shapes = (
{
closed = 1;
nodes = (
(204,72,o),
(195,134,o),
(195,246,cs),
(195,373,o),
(223,397,o),
(249,397,cs),
(269,397,o),
(309,383,o),
(325,368,c),
(325,90,l),
(287,73,o),
(283,72,o),
(260,72,cs)
);
},
{
closed = 1;
nodes = (
(242,-19,o),
(273,3,o),
(325,44,c),
(325,-19,l),
(376,-19,l),
(498,11,l),
(498,549,l),
(512,693,l),
(481,693,l),
(254,656,l),
(254,622,l),
(325,604,l),
(325,465,l),
(303,468,o),
(282,469,o),
(262,469,cs),
(152,469,o),
(12,378,o),
(12,181,cs),
(12,56,o),
(65,-19,o),
(170,-19,cs)
);
},
{
pos = (436,0);
ref = ezh;
}
);
userData = {
com.hugojourdan.ColorFlow = {
"0" = 0;
"1" = 0;
"10" = 0;
"11" = 0;
"2" = 0;
"3" = 0;
"4" = 0;
"5" = 0;
"6" = 0;
"7" = 0;
"8" = 0;
"9" = 0;
};
};
width = 951;
},
{
layerId = "E311F2CF-05EC-45EB-99C0-CA1AFFE6A9D5";
shapes = (
{
closed = 1;
nodes = (
(195,47,o),
(115,99,o),
(115,243,cs),
(115,362,o),
(170,408,o),
(260,408,cs),
(303,408,o),
(345,401,o),
(371,388,c),
(371,73,l),
(344,60,o),
(296,47,o),
(269,47,cs)
);
},
{
closed = 1;
nodes = (
(260,-10,o),
(305,12,o),
(371,46,c),
(371,-20,l),
(381,-20,l),
(435,-5,l),
(436,606,l),
(445,693,l),
(414,693,l),
(300,656,l),
(300,643,l),
(371,623,l),
(371,451,l),
(351,456,o),
(325,460,o),
(299,460,cs),
(173,460,o),
(53,362,o),
(53,211,cs),
(53,56,o),
(145,-10,o),
(229,-10,cs)
);
},
{
pos = (370,0);
ref = ezh;
}
);
userData = {
com.hugojourdan.ColorFlow = {
"0" = 0;
"1" = 0;
"10" = 0;
"11" = 0;
"2" = 0;
"3" = 0;
"4" = 0;
"5" = 0;
"6" = 0;
"7" = 0;
"8" = 0;
"9" = 0;
};
};
width = 822;
},
{
associatedMasterId = m001;
layerId = "C8980C97-83A2-48E0-BC41-0F6E9B089908";
name = "9 de oct. de 23, 8:40";
shapes = (
{
closed = 1;
nodes = (
(204,72,o),
(195,134,o),
(195,246,cs),
(195,373,o),
(223,397,o),
(249,397,cs),
(269,397,o),
(309,383,o),
(325,368,c),
(325,90,l),
(287,73,o),
(283,72,o),
(260,72,cs)
);
},
{
closed = 1;
nodes = (
(242,-19,o),
(273,3,o),
(325,44,c),
(325,-19,l),
(376,-19,l),
(498,11,l),
(498,245,l),
(555,341,l),
(761,340,l),
(568,119,l),
(574,90,l),
(583,93,o),
(606,100,o),
(627,100,cs),
(691,100,o),
(748,33,o),
(748,-40,cs),
(748,-105,o),
(706,-125,o),
(627,-125,cs),
(622,-125,o),
(618,-125,o),
(613,-125,c),
(546,-15,l),
(494,-15,l),
(463,-184,l),
(507,-194,o),
(572,-198,o),
(645,-198,cs),
(794,-198,o),
(916,-105,o),
(916,9,cs),
(916,76,o),
(871,161,o),
(723,161,c),
(933,414,l),
(933,461,l),
(498,461,l),
(498,549,l),
(512,693,l),
(481,693,l),
(254,656,l),
(254,622,l),
(325,604,l),
(325,465,l),
(303,468,o),
(282,469,o),
(262,469,cs),
(152,469,o),
(12,378,o),
(12,181,cs),
(12,56,o),
(65,-19,o),
(170,-19,cs)
);
}
);
width = 953;
},
{
associatedMasterId = "E311F2CF-05EC-45EB-99C0-CA1AFFE6A9D5";
layerId = "D2185265-C28A-49C5-97B6-B2204ED88918";
name = "9 de oct. de 23, 8:40";
shapes = (
{
closed = 1;
nodes = (
(195,47,o),
(115,99,o),
(115,243,cs),
(115,362,o),
(170,408,o),
(260,408,cs),
(303,408,o),
(345,401,o),
(371,388,c),
(371,73,l),
(344,60,o),
(296,47,o),
(269,47,cs)
);
},
{
closed = 1;
nodes = (
(260,-10,o),
(305,12,o),
(371,46,c),
(371,-20,l),
(381,-20,l),
(435,-5,l),
(435,312,l),
(492,388,l),
(722,388,l),
(506,113,l),
(512,109,l),
(530,111,o),
(545,110,o),
(559,110,cs),
(655,110,o),
(719,39,o),
(719,-41,cs),
(719,-120,o),
(667,-183,o),
(547,-183,cs),
(540,-183,o),
(534,-183,o),
(529,-183,c),
(462,-121,l),
(441,-121,l),
(423,-196,l),
(466,-206,o),
(500,-210,o),
(546,-210,cs),
(711,-210,o),
(797,-115,o),
(797,-19,cs),
(797,70,o),
(737,157,o),
(590,166,c),
(796,423,l),
(796,450,l),
(436,450,l),
(436,606,l),
(445,693,l),
(414,693,l),
(300,656,l),
(300,643,l),
(371,623,l),
(371,451,l),
(351,456,o),
(325,460,o),
(299,460,cs),
(173,460,o),
(53,362,o),
(53,211,cs),
(53,56,o),
(145,-10,o),
(229,-10,cs)
);
}
);
width = 847;
}
);
metricLeft = d;
metricRight = ezh;
unicode = 676;
},
{
color = 3;
glyphname = dhook;
lastChange = "2024-02-13 17:37:59 +0000";
layers = (
{
layerId = m001;
shapes = (
{
closed = 1;
nodes = (
(242,-19,o),
(273,3,o),
(325,44,c),
(325,-19,l),
(356,-19,l),
(557,14,l),
(557,45,l),
(498,65,l),
(498,600,ls),
(498,620,o),
(497,647,o),
(509,647,c),
(585,587,l),
(607,587,l),
(625,694,l),
(600,702,o),
(589,705,o),
(534,705,cs),
(448,705,o),
(325,651,o),
(325,519,cs),
(325,465,l),
(303,468,o),
(282,469,o),
(262,469,cs),
(152,469,o),
(12,378,o),
(12,181,cs),
(12,56,o),
(65,-19,o),
(170,-19,cs)
);
},
{
closed = 1;
nodes = (
(204,72,o),
(195,134,o),
(195,246,cs),
(195,373,o),
(223,397,o),
(249,397,cs),
(269,397,o),
(309,383,o),
(325,368,c),
(325,90,l),
(287,73,o),
(283,72,o),
(260,72,cs)
);
}
);
userData = {
com.hugojourdan.ColorFlow = {
"0" = 0;
"1" = 0;
"10" = 0;
"11" = 0;
"2" = 0;
"3" = 0;
"4" = 0;
"5" = 0;
"6" = 0;
"7" = 0;
"8" = 0;
"9" = 0;
};
};
width = 541;
},
{
layerId = "E311F2CF-05EC-45EB-99C0-CA1AFFE6A9D5";
shapes = (
{
closed = 1;
nodes = (
(260,-10,o),
(305,12,o),
(371,46,c),
(371,-10,l),
(402,-10,l),
(522,28,l),
(522,42,l),
(436,62,l),
(437,517,ls),
(437,627,o),
(456,674,o),
(506,674,c),
(562,624,l),
(584,624,l),
(596,694,l),
(577,700,o),
(551,703,o),
(528,703,cs),
(442,703,o),
(371,635,o),
(371,480,cs),
(371,451,l),
(351,456,o),
(325,460,o),
(299,460,cs),
(173,460,o),
(53,362,o),
(53,211,cs),
(53,56,o),
(145,-10,o),
(229,-10,cs)
);
},
{
closed = 1;
nodes = (
(195,47,o),
(115,99,o),
(115,243,cs),
(115,362,o),
(170,408,o),
(260,408,cs),
(303,408,o),
(345,401,o),
(371,388,c),
(371,73,l),
(344,60,o),
(296,47,o),
(269,47,cs)
);
}
);
userData = {
com.hugojourdan.ColorFlow = {
"0" = 0;
"1" = 0;
"10" = 0;
"11" = 0;
"2" = 0;
"3" = 0;
"4" = 0;
"5" = 0;
"6" = 0;
"7" = 0;
"8" = 0;
"9" = 0;
};
};
width = 525;
}
);
metricLeft = d;
metricRight = esh;
unicode = 599;
},
{
color = 3;
glyphname = dtail;
lastChange = "2024-02-13 17:37:59 +0000";
layers = (
{
layerId = m001;
shapes = (
{
closed = 1;
nodes = (
(204,72,o),
(195,134,o),
(195,246,cs),
(195,373,o),
(223,397,o),
(249,397,cs),
(269,397,o),
(309,383,o),
(325,368,c),
(325,90,l),
(287,73,o),
(283,72,o),
(260,72,cs)
);
},
{
closed = 1;
nodes = (
(242,-19,o),
(273,3,o),
(325,44,c),
(325,-81,ls),
(325,-169,o),
(362,-219,o),
(438,-221,cs),
(482,-222,o),
(530,-181,o),
(545,-159,c),
(545,-131,l),
(538,-133,o),
(529,-136,o),
(520,-136,cs),
(501,-136,o),
(498,-87,o),
(498,-60,cs),
(498,549,l),
(512,693,l),
(481,693,l),
(254,656,l),
(254,622,l),
(325,604,l),
(325,465,l),
(303,468,o),
(282,469,o),
(262,469,cs),
(152,469,o),
(12,378,o),
(12,181,cs),
(12,56,o),
(65,-19,o),
(170,-19,cs)
);
}
);
userData = {
com.hugojourdan.ColorFlow = {
"0" = 0;
"1" = 0;
"10" = 0;
"11" = 0;
"2" = 0;
"3" = 0;
"4" = 0;
"5" = 0;
"6" = 0;
"7" = 0;
"8" = 0;
"9" = 0;
};
};
width = 554;
},
{
layerId = "E311F2CF-05EC-45EB-99C0-CA1AFFE6A9D5";
shapes = (
{
closed = 1;
nodes = (
(195,47,o),
(115,99,o),
(115,243,cs),
(115,362,o),
(170,408,o),
(260,408,cs),
(303,408,o),
(345,401,o),
(371,388,c),
(371,73,l),
(344,60,o),
(296,47,o),
(269,47,cs)
);
},
{
closed = 1;
nodes = (
(260,-10,o),
(305,12,o),
(371,46,c),
(371,-146,ls),
(371,-213,o),
(397,-236,o),
(440,-236,cs),
(465,-236,o),
(492,-210,o),
(511,-187,c),
(511,-169,l),
(496,-173,o),
(486,-175,o),
(473,-175,cs),
(440,-175,o),
(436,-142,o),
(436,-107,cs),
(436,606,l),
(445,693,l),
(414,693,l),
(300,656,l),
(300,643,l),
(371,623,l),
(371,451,l),
(351,456,o),
(325,460,o),
(299,460,cs),
(173,460,o),
(53,362,o),
(53,211,cs),
(53,56,o),
(145,-10,o),
(229,-10,cs)
);
}
);
userData = {
com.hugojourdan.ColorFlow = {
"0" = 0;
"1" = 0;
"10" = 0;
"11" = 0;
"2" = 0;
"3" = 0;
"4" = 0;
"5" = 0;
"6" = 0;
"7" = 0;
"8" = 0;
"9" = 0;
};
};
width = 520;
},
{
associatedMasterId = "E311F2CF-05EC-45EB-99C0-CA1AFFE6A9D5";
layerId = "A1FE1ED6-A8DE-427D-B501-A4531A920DA4";
name = "5 de sep. de 23, 10:05";
shapes = (
{
closed = 1;
nodes = (
(195,47,o),
(115,99,o),
(115,243,cs),
(115,362,o),
(170,408,o),
(260,408,cs),
(303,408,o),
(345,401,o),
(371,388,c),
(371,73,l),
(344,60,o),
(296,47,o),
(269,47,cs)
);
},
{
closed = 0;
nodes = (
(365,-177,l),
(371,-206,o),
(391,-236,o),
(433,-236,cs),
(465,-236,o),
(492,-210,o),
(511,-187,c),
(511,-169,l),
(496,-173,o),
(486,-175,o),
(473,-175,cs),
(440,-175,o),
(436,-142,o),
(436,-107,cs),
(437,517,ls),
(437,627,o),
(456,674,o),
(506,674,c),
(562,624,l),
(584,624,l),
(596,694,l),
(577,700,o),
(551,703,o),
(528,703,cs),
(442,703,o),
(371,635,o),
(371,480,cs),
(371,451,l),
(351,456,o),
(325,460,o),
(299,460,cs),
(173,460,o),
(53,362,o),
(53,211,cs),
(53,56,o),
(145,-10,o),
(229,-10,cs),
(260,-10,o),
(305,12,o),
(371,46,c),
(371,-177,l)
);
}
);
width = 600;
},
{
associatedMasterId = m001;
layerId = "A40D6E9D-7A24-4C56-905F-E37E13560AB8";
name = "5 de sep. de 23, 10:09";
shapes = (
{
closed = 1;
nodes = (
(269,397,o),
(309,383,o),
(325,368,c),
(325,90,l),
(287,73,o),
(283,72,o),
(260,72,cs),
(204,72,o),
(195,134,o),
(195,246,cs),
(195,373,o),
(223,397,o),
(249,397,cs)
);
},
{
closed = 1;
nodes = (
(12,56,o),
(65,-19,o),
(170,-19,cs),
(242,-19,o),
(273,3,o),
(325,44,c),
(325,-169,l),
(498,-169,l),
(498,549,l),
(512,693,l),
(481,693,l),
(254,656,l),
(254,622,l),
(325,604,l),
(325,465,l),
(303,468,o),
(282,469,o),
(262,469,cs),
(152,469,o),
(12,378,o),
(12,181,cs)
);
},
{
closed = 0;
nodes = (
(339,-158,l),
(367,-209,o),
(395,-221,o),
(433,-221,cs),
(481,-221,o),
(532,-181,o),
(547,-159,c),
(547,-131,l),
(540,-133,o),
(531,-136,o),
(522,-136,cs),
(503,-136,o),
(500,-87,o),
(500,-60,cs)
);
}
);
width = 600;
}
);
metricLeft = d;
metricRight = d;
unicode = 598;
},
{
color = 3;
glyphname = dzaltone;
kernLeft = KO_d;
lastChange = "2024-02-13 17:37:59 +0000";
layers = (
{
layerId = m001;
shapes = (
{
closed = 1;
nodes = (
(204,72,o),
(195,134,o),
(195,246,cs),
(195,373,o),
(223,397,o),
(249,397,cs),
(269,397,o),
(309,383,o),
(325,368,c),
(325,90,l),
(287,73,o),
(283,72,o),
(260,72,cs)
);
},
{
closed = 1;
nodes = (
(242,-19,o),
(273,3,o),
(325,44,c),
(325,-19,l),
(376,-19,l),
(498,11,l),
(498,281,l),
(599,405,l),
(769,405,l),
(526,45,l),
(526,0,l),
(927,0,l),
(962,212,l),
(936,212,l),
(800,45,l),
(708,45,l),
(948,403,l),
(948,450,l),
(498,450,l),
(498,549,l),
(512,693,l),
(481,693,l),
(254,656,l),
(254,622,l),
(325,604,l),
(325,465,l),
(303,468,o),
(282,469,o),
(262,469,cs),
(152,469,o),
(12,378,o),
(12,181,cs),
(12,56,o),
(65,-19,o),
(170,-19,cs)
);
}
);
userData = {
com.hugojourdan.ColorFlow = {
"0" = 0;
"1" = 0;
"10" = 0;
"11" = 0;
"2" = 0;
"3" = 0;
"4" = 0;
"5" = 0;
"6" = 0;
"7" = 0;
"8" = 0;
"9" = 0;
};
};
width = 980;
},
{
layerId = "E311F2CF-05EC-45EB-99C0-CA1AFFE6A9D5";
shapes = (
{
closed = 1;
nodes = (
(195,47,o),
(115,99,o),
(115,243,cs),
(115,362,o),
(170,408,o),
(260,408,cs),
(303,408,o),
(345,401,o),
(371,388,c),
(371,73,l),
(344,60,o),
(296,47,o),
(269,47,cs)
);
},
{
closed = 1;
nodes = (
(260,-10,o),
(305,12,o),
(371,46,c),
(371,-20,l),
(381,-20,l),
(435,-5,l),
(436,337,l),
(496,416,l),
(738,416,l),
(474,18,l),
(474,0,l),
(831,0,l),
(854,132,l),
(838,132,l),
(763,34,l),
(564,34,l),
(829,430,l),
(829,450,l),
(436,450,l),
(436,606,l),
(445,693,l),
(414,693,l),
(300,656,l),
(300,643,l),
(371,623,l),
(371,451,l),
(351,456,o),
(325,460,o),
(299,460,cs),
(173,460,o),
(53,362,o),
(53,211,cs),
(53,56,o),
(145,-10,o),
(229,-10,cs)
);
}
);
userData = {
com.hugojourdan.ColorFlow = {
"0" = 0;
"1" = 0;
"10" = 0;
"11" = 0;
"2" = 0;
"3" = 0;
"4" = 0;
"5" = 0;
"6" = 0;
"7" = 0;
"8" = 0;
"9" = 0;
};
};
width = 873;
}
);
metricLeft = d;
metricRight = z;
unicode = 675;
},
{
color = 3;
glyphname = dzcurl;
lastChange = "2024-02-13 17:37:59 +0000";
layers = (
{
layerId = m001;
shapes = (
{
closed = 1;
nodes = (
(242,-19,o),
(273,3,o),
(325,44,c),
(325,-19,l),
(376,-19,l),
(498,11,l),
(498,549,l),
(512,693,l),
(481,693,l),
(254,656,l),
(254,622,l),
(325,604,l),
(325,465,l),
(303,468,o),
(282,469,o),
(262,469,cs),
(152,469,o),
(12,378,o),
(12,181,cs),
(12,56,o),
(65,-19,o),
(170,-19,cs)
);
},
{
closed = 1;
nodes = (
(195,373,o),
(223,397,o),
(249,397,cs),
(269,397,o),
(309,383,o),
(325,368,c),
(325,90,l),
(287,73,o),
(283,72,o),
(260,72,cs),
(204,72,o),
(195,134,o),
(195,246,cs)
);
},
{
closed = 1;
nodes = (
(869,125,o),
(887,140,o),
(918,140,cs),
(937,140,o),
(952,126,o),
(952,102,cs),
(952,59,o),
(909,32,o),
(829,37,cs),
(708,45,l),
(966,430,l),
(966,450,l),
(498,450,l),
(466,252,l),
(493,252,l),
(618,405,l),
(769,405,l),
(526,45,l),
(526,0,l),
(648,0,o),
(757,-13,o),
(821,-13,cs),
(942,-13,o),
(1008,35,o),
(1008,110,cs),
(1008,159,o),
(976,196,o),
(925,193,cs),
(863,191,o),
(829,161,o),
(705,-70,c),
(753,-89,l)
);
}
);
userData = {
com.hugojourdan.ColorFlow = {
"0" = 0;
"1" = 0;
"10" = 0;
"11" = 0;
"2" = 0;
"3" = 0;
"4" = 0;
"5" = 0;
"6" = 0;
"7" = 0;
"8" = 0;
"9" = 0;
};
};
width = 1014;
},
{
layerId = "E311F2CF-05EC-45EB-99C0-CA1AFFE6A9D5";
shapes = (
{
closed = 1;
nodes = (
(260,-10,o),
(305,12,o),
(371,46,c),
(371,-20,l),
(381,-20,l),
(435,-5,l),
(436,606,l),
(445,693,l),
(414,693,l),
(300,656,l),
(300,643,l),
(371,623,l),
(371,451,l),
(351,456,o),
(325,460,o),
(299,460,cs),
(173,460,o),
(53,362,o),
(53,211,cs),
(53,56,o),
(145,-10,o),
(229,-10,cs)
);
},
{
closed = 1;
nodes = (
(115,362,o),
(170,408,o),
(260,408,cs),
(303,408,o),
(345,401,o),
(371,388,c),
(371,73,l),
(344,60,o),
(296,47,o),
(269,47,cs),
(195,47,o),
(115,99,o),
(115,243,cs)
);
},
{
closed = 1;
nodes = (
(732,108,o),
(751,132,o),
(783,132,cs),
(807,132,o),
(822,117,o),
(822,91,cs),
(822,44,o),
(770,19,o),
(707,22,cs),
(572,29,l),
(840,430,l),
(840,450,l),
(435,450,l),
(414,327,l),
(430,327,l),
(498,416,l),
(749,416,l),
(485,18,l),
(485,0,l),
(558,0,o),
(648,-11,o),
(700,-11,cs),
(805,-11,o),
(862,31,o),
(862,99,cs),
(862,138,o),
(834,170,o),
(790,168,cs),
(735,166,o),
(705,138,o),
(590,-78,c),
(624,-93,l)
);
}
);
userData = {
com.hugojourdan.ColorFlow = {
"0" = 0;
"1" = 0;
"10" = 0;
"11" = 0;
"2" = 0;
"3" = 0;
"4" = 0;
"5" = 0;
"6" = 0;
"7" = 0;
"8" = 0;
"9" = 0;
};
};
width = 881;
},
{
associatedMasterId = m001;
layerId = "7B80E587-F970-41EC-A3AF-35E7C6992998";
name = "9 de oct. de 23, 8:44";
shapes = (
{
closed = 1;
nodes = (
(242,-19,o),
(273,3,o),
(325,44,c),
(325,-19,l),
(376,-19,l),
(498,11,l),
(498,549,l),
(512,693,l),
(481,693,l),
(254,656,l),
(254,622,l),
(325,604,l),
(325,465,l),
(303,468,o),
(282,469,o),
(262,469,cs),
(152,469,o),
(12,378,o),
(12,181,cs),
(12,56,o),
(65,-19,o),
(170,-19,cs)
);
},
{
closed = 1;
nodes = (
(204,72,o),
(195,134,o),
(195,246,cs),
(195,373,o),
(223,397,o),
(249,397,cs),
(269,397,o),
(309,383,o),
(325,368,c),
(325,90,l),
(287,73,o),
(283,72,o),
(260,72,cs)
);
},
{
closed = 1;
nodes = (
(805,-13,o),
(866,137,o),
(936,137,cs),
(963,137,o),
(975,114,o),
(975,90,cs),
(975,21,o),
(873,33,o),
(815,37,cs),
(710,45,l),
(968,430,l),
(968,450,l),
(481,450,l),
(449,252,l),
(476,252,l),
(601,405,l),
(771,405,l),
(528,45,l),
(528,0,l),
(572,-2,o),
(806,-12,o),
(852,-16,cs),
(972,-24,o),
(1035,9,o),
(1035,97,cs),
(1035,145,o),
(1001,186,o),
(956,186,cs),
(828,186,o),
(745,28,o),
(715,-74,c),
(770,-102,l)
);
}
);
width = 1054;
},
{
associatedMasterId = "E311F2CF-05EC-45EB-99C0-CA1AFFE6A9D5";
layerId = "C44C74FA-342C-405B-B9B1-E748F96C142C";
name = "9 de oct. de 23, 8:45";
shapes = (
{
closed = 1;
nodes = (
(260,-10,o),
(305,12,o),
(371,46,c),
(371,-20,l),
(381,-20,l),
(435,-5,l),
(436,606,l),
(445,693,l),
(414,693,l),
(300,656,l),
(300,643,l),
(371,623,l),
(371,451,l),
(351,456,o),
(325,460,o),
(299,460,cs),
(173,460,o),
(53,362,o),
(53,211,cs),
(53,56,o),
(145,-10,o),
(229,-10,cs)
);
},
{
closed = 1;
nodes = (
(195,47,o),
(115,99,o),
(115,243,cs),
(115,362,o),
(170,408,o),
(260,408,cs),
(303,408,o),
(345,401,o),
(371,388,c),
(371,73,l),
(344,60,o),
(296,47,o),
(269,47,cs)
);
},
{
closed = 1;
nodes = (
(633,-19,o),
(715,135,o),
(791,135,cs),
(815,135,o),
(833,117,o),
(833,91,cs),
(833,27,o),
(776,15,o),
(657,23,cs),
(573,29,l),
(841,430,l),
(841,450,l),
(434,450,l),
(413,327,l),
(429,327,l),
(497,416,l),
(750,416,l),
(486,18,l),
(486,0,l),
(559,-4,o),
(660,-10,o),
(701,-11,cs),
(816,-14,o),
(873,20,o),
(873,99,cs),
(873,138,o),
(847,169,o),
(804,169,cs),
(685,169,o),
(592,-10,o),
(571,-78,c),
(605,-93,l)
);
}
);
width = 892;
}
);
metricLeft = d;
metricRight = zcurl;
unicode = 677;
},
{
color = 4;
glyphname = eth;
lastChange = "2024-02-12 15:02:33 +0000";
layers = (
{
layerId = m001;
shapes = (
{
closed = 1;
nodes = (
(362,-19,o),
(493,77,o),
(493,301,cs),
(493,442,o),
(449,542,o),
(365,610,c),
(437,644,l),
(437,712,l),
(305,650,l),
(251,679,o),
(187,700,o),
(112,714,c),
(83,689,l),
(139,660,o),
(182,634,o),
(214,607,c),
(99,553,l),
(99,485,l),
(258,560,l),
(277,534,o),
(290,504,o),
(298,469,c),
(287,469,o),
(276,469,o),
(266,468,cs),
(100,456,o),
(12,355,o),
(12,201,cs),
(12,76,o),
(89,-19,o),
(221,-19,cs)
);
},
{
closed = 1;
nodes = (
(224,75,o),
(203,126,o),
(203,233,cs),
(203,383,o),
(217,401,o),
(271,401,cs),
(284,401,o),
(296,397,o),
(308,390,c),
(311,347,o),
(312,296,o),
(312,235,cs),
(312,83,o),
(294,76,o),
(282,75,cs)
);
}
);
userData = {
com.hugojourdan.ColorFlow = {
"0" = 0;
"1" = 0;
"10" = 0;
"11" = 0;
"2" = 0;
"3" = 0;
"4" = 0;
"5" = 0;
"6" = 0;
"7" = 0;
"8" = 0;
"9" = 0;
};
};
width = 514;
},
{
layerId = "E311F2CF-05EC-45EB-99C0-CA1AFFE6A9D5";
shapes = (
{
closed = 1;
nodes = (
(343,-10,o),
(458,68,o),
(458,292,cs),
(458,438,o),
(408,541,o),
(323,609,c),
(442,665,l),
(442,701,l),
(293,631,l),
(239,665,o),
(174,688,o),
(101,700,c),
(94,678,l),
(156,659,o),
(207,637,o),
(248,610,c),
(104,542,l),
(104,506,l),
(277,587,l),
(318,552,o),
(347,508,o),
(365,449,c),
(340,456,o),
(310,460,o),
(274,460,cs),
(174,460,o),
(53,366,o),
(53,212,cs),
(53,76,o),
(126,-10,o),
(242,-10,cs)
);
},
{
closed = 1;
nodes = (
(178,43,o),
(107,107,o),
(107,252,cs),
(107,353,o),
(155,406,o),
(236,406,cs),
(289,406,o),
(346,398,o),
(382,372,c),
(387,332,o),
(390,287,o),
(390,235,cs),
(390,83,o),
(358,41,o),
(261,43,cs)
);
}
);
userData = {
com.hugojourdan.ColorFlow = {
"0" = 0;
"1" = 0;
"10" = 0;
"11" = 0;
"2" = 0;
"3" = 0;
"4" = 0;
"5" = 0;
"6" = 0;
"7" = 0;
"8" = 0;
"9" = 0;
};
};
width = 523;
}
);
unicode = 240;
},
{
color = 4;
glyphname = e;
kernLeft = KO_e;
kernRight = KO_e;
lastChange = "2024-02-12 15:02:33 +0000";
layers = (
{
anchors = (
{
name = bottom;
pos = (121,-100);
},
{
name = top;
pos = (250,450);
}
);
layerId = m001;
shapes = (
{
closed = 1;
nodes = (
(311,-19,o),
(382,18,o),
(438,65,c),
(412,103,l),
(382,89,o),
(365,82,o),
(310,82,cs),
(244,82,o),
(179,114,o),
(170,232,c),
(430,232,l),
(452,352,o),
(405,469,o),
(251,469,cs),
(133,469,o),
(12,409,o),
(12,204,cs),
(12,53,o),
(112,-19,o),
(234,-19,cs)
);
},
{
closed = 1;
nodes = (
(169,388,o),
(178,405,o),
(200,405,cs),
(239,405,o),
(278,374,o),
(278,273,c),
(169,273,l)
);
}
);
userData = {
com.hugojourdan.ColorFlow = {
"0" = 0;
"1" = 0;
"10" = 0;
"11" = 0;
"2" = 0;
"3" = 0;
"4" = 0;
"5" = 0;
"6" = 0;
"7" = 0;
"8" = 0;
"9" = 0;
};
};
width = 452;
},
{
anchors = (
{
name = bottom;
pos = (372,-100);
},
{
name = top;
pos = (231,450);
}
);
layerId = "E311F2CF-05EC-45EB-99C0-CA1AFFE6A9D5";
shapes = (
{
closed = 1;
nodes = (
(314,-10,o),
(372,27,o),
(427,65,c),
(421,87,l),
(373,57,o),
(324,47,o),
(296,47,cs),
(195,47,o),
(118,110,o),
(123,253,c),
(414,253,l),
(427,324,o),
(408,460,o),
(256,460,cs),
(138,460,o),
(53,350,o),
(53,223,cs),
(53,53,o),
(144,-10,o),
(259,-10,cs)
);
},
{
closed = 1;
nodes = (
(131,391,o),
(161,421,o),
(227,421,cs),
(308,421,o),
(342,369,o),
(342,287,c),
(124,287,l)
);
}
);
userData = {
com.hugojourdan.ColorFlow = {
"0" = 0;
"1" = 0;
"10" = 0;
"11" = 0;
"2" = 0;
"3" = 0;
"4" = 0;
"5" = 0;
"6" = 0;
"7" = 0;
"8" = 0;
"9" = 0;
};
};
width = 477;
},
{
anchors = (
{
name = bottom;
pos = (372,-100);
},
{
name = top;
pos = (231,450);
}
);
associatedMasterId = "E311F2CF-05EC-45EB-99C0-CA1AFFE6A9D5";
layerId = "FD22C473-64BA-4EBD-81E2-1E0561ACCA83";
name = "22 de ago. de 23, 12:11";
shapes = (
{
closed = 1;
nodes = (
(314,-10,o),
(372,27,o),
(427,65,c),
(421,87,l),
(373,57,o),
(324,47,o),
(296,47,cs),
(198,47,o),
(123,105,o),
(123,241,cs),
(123,253,l),
(414,253,l),
(416,264,o),
(415,282,o),
(415,290,cs),
(415,391,o),
(375,460,o),
(256,460,cs),
(138,460,o),
(53,350,o),
(53,223,cs),
(53,53,o),
(144,-10,o),
(259,-10,cs)
);
},
{
closed = 1;
nodes = (
(131,391,o),
(161,421,o),
(227,421,cs),
(308,421,o),
(342,369,o),
(342,287,c),
(124,287,l)
);
}
);
visible = 1;
width = 477;
}
);
unicode = 101;
},
{
color = 4;
glyphname = eogonek;
kernLeft = KO_e;
kernRight = KO_e;
lastChange = "2024-02-12 15:02:33 +0000";
layers = (
{
layerId = m001;
shapes = (
{
closed = 1;
nodes = (
(185,-159,o),
(213,-189,o),
(283,-189,cs),
(303,-189,o),
(336,-187,o),
(418,-158,c),
(413,-138,l),
(409,-138,o),
(404,-136,o),
(400,-136,cs),
(356,-136,o),
(325,-125,o),
(325,-81,cs),
(325,-51,o),
(328,-20,o),
(395,37,c),
(376,44,l),
(238,-11,o),
(187,-88,o),
(187,-121,cs)
);
},
{
ref = e;
}
);
userData = {
com.hugojourdan.ColorFlow = {
"0" = 0;
"1" = 0;
"10" = 0;
"11" = 0;
"2" = 0;
"3" = 0;
"4" = 0;
"5" = 0;
"6" = 0;
"7" = 0;
"8" = 0;
"9" = 0;
};
};
width = 452;
},
{
layerId = "E311F2CF-05EC-45EB-99C0-CA1AFFE6A9D5";
shapes = (
{
closed = 1;
nodes = (
(249,-162,o),
(288,-192,o),
(326,-192,cs),
(349,-192,o),
(366,-182,o),
(399,-169,c),
(394,-149,l),
(379,-154,o),
(367,-157,o),
(354,-157,cs),
(319,-157,o),
(298,-128,o),
(298,-97,cs),
(298,-51,o),
(319,-4,o),
(406,51,c),
(401,58,l),
(311,0,o),
(249,-37,o),
(249,-112,cs)
);
},
{
ref = e;
}
);
userData = {
com.hugojourdan.ColorFlow = {
"0" = 0;
"1" = 0;
"10" = 0;
"11" = 0;
"2" = 0;
"3" = 0;
"4" = 0;
"5" = 0;
"6" = 0;
"7" = 0;
"8" = 0;
"9" = 0;
};
};
width = 477;
}
);
unicode = 281;
},
{
color = 3;
glyphname = eopen;
lastChange = "2024-02-13 17:38:08 +0000";
layers = (
{
layerId = m001;
shapes = (
{
ref = epsilon;
}
);
userData = {
com.hugojourdan.ColorFlow = {
"0" = 0;
"1" = 0;
"10" = 0;
"11" = 0;
"2" = 0;
"3" = 0;
"4" = 0;
"5" = 0;
"6" = 0;
"7" = 0;
"8" = 0;
"9" = 0;
};
};
width = 437;
},
{
layerId = "E311F2CF-05EC-45EB-99C0-CA1AFFE6A9D5";
shapes = (
{
ref = epsilon;
}
);
userData = {
com.hugojourdan.ColorFlow = {
"0" = 0;
"1" = 0;
"10" = 0;
"11" = 0;
"2" = 0;
"3" = 0;
"4" = 0;
"5" = 0;
"6" = 0;
"7" = 0;
"8" = 0;
"9" = 0;
};
};
width = 405;
},
{
associatedMasterId = m001;
layerId = "13456898-D7DA-4D42-9264-904186F15453";
name = "5 de sep. de 23, 10:23";
shapes = (
{
closed = 1;
nodes = (
(270,-19,o),
(311,-9,o),
(426,100,c),
(399,129,l),
(358,91,o),
(315,72,o),
(279,72,cs),
(228,72,o),
(198,88,o),
(198,141,cs),
(198,185,o),
(227,217,o),
(270,217,cs),
(292,217,o),
(322,206,o),
(342,192,c),
(360,200,l),
(360,217,ls),
(360,225,o),
(357,250,o),
(354,272,cs),
(351,289,l),
(324,284,o),
(275,275,o),
(247,275,cs),
(228,275,o),
(207,307,o),
(207,355,cs),
(207,403,o),
(229,429,o),
(254,429,cs),
(259,429,o),
(267,427,o),
(270,424,cs),
(356,318,l),
(380,318,l),
(408,445,l),
(364,456,o),
(313,469,o),
(252,469,cs),
(143,469,o),
(33,410,o),
(33,342,cs),
(33,277,o),
(77,249,o),
(164,242,c),
(71,232,o),
(28,182,o),
(28,124,cs),
(28,24,o),
(110,-19,o),
(221,-19,cs)
);
}
);
width = 442;
},
{
associatedMasterId = "E311F2CF-05EC-45EB-99C0-CA1AFFE6A9D5";
layerId = "E61F4AE9-E821-4261-85BD-F8F34537A39F";
name = "5 de sep. de 23, 10:50";
shapes = (
{
closed = 1;
nodes = (
(380,441,l),
(339,458,o),
(285,461,o),
(236,461,cs),
(155,461,o),
(69,402,o),
(69,336,cs),
(69,293,o),
(97,246,o),
(168,232,c),
(77,212,o),
(43,173,o),
(43,114,cs),
(43,38,o),
(118,-12,o),
(232,-12,cs),
(281,-12,o),
(344,-1,o),
(399,18,c),
(391,102,l),
(368,102,l),
(318,33,l),
(298,29,o),
(276,25,o),
(254,25,cs),
(170,25,o),
(117,83,o),
(117,131,cs),
(117,188,o),
(163,214,o),
(226,214,cs),
(261,214,o),
(301,204,o),
(321,190,c),
(340,197,l),
(341,221,l),
(332,263,l),
(303,256,o),
(261,253,o),
(235,253,cs),
(179,253,o),
(135,302,o),
(135,354,cs),
(135,398,o),
(145,428,o),
(223,428,cs),
(255,428,o),
(273,424,o),
(281,420,c),
(342,354,l),
(363,354,l)
);
}
);
width = 446;
},
{
associatedMasterId = m001;
layerId = "07E1CCA5-C65D-43F2-ADDC-25513E2DB7A2";
name = "13 de dic. de 23, 15:51";
shapes = (
{
closed = 1;
nodes = (
(284,-16,o),
(349,-5,o),
(397,9,c),
(379,109,l),
(336,109,l),
(278,47,l),
(273,46,o),
(251,45,o),
(243,45,cs),
(207,45,o),
(170,68,o),
(170,131,cs),
(170,188,o),
(196,204,o),
(238,204,cs),
(257,204,o),
(284,197,o),
(304,183,c),
(324,189,l),
(315,275,l),
(300,270,o),
(271,268,o),
(247,268,cs),
(209,268,o),
(169,302,o),
(169,348,cs),
(169,398,o),
(191,422,o),
(226,422,cs),
(239,422,o),
(257,420,o),
(263,418,c),
(332,346,l),
(375,346,l),
(392,446,l),
(350,459,o),
(268,469,o),
(228,469,cs),
(124,469,o),
(41,409,o),
(41,336,cs),
(41,287,o),
(57,249,o),
(140,232,c),
(49,207,o),
(25,168,o),
(25,99,cs),
(25,25,o),
(106,-16,o),
(217,-16,cs)
);
}
);
width = 427;
}
);
unicode = 603;
},
{
color = 11;
glyphname = eopenclosed;
lastChange = "2024-05-17 05:36:50 +0000";
layers = (
{
layerId = m001;
shapes = (
{
closed = 1;
nodes = (
(407,-19,o),
(545,52,o),
(545,212,cs),
(545,370,o),
(450,469,o),
(270,469,cs),
(118,469,o),
(33,410,o),
(33,342,cs),
(33,277,o),
(77,249,o),
(164,242,c),
(71,232,o),
(28,182,o),
(28,124,cs),
(28,24,o),
(127,-19,o),
(279,-19,cs)
);
},
{
closed = 1;
nodes = (
(228,42,o),
(198,75,o),
(198,124,cs),
(198,185,o),
(227,217,o),
(270,217,cs),
(292,217,o),
(308,206,o),
(328,192,c),
(346,200,l),
(337,289,l),
(310,284,o),
(275,275,o),
(247,275,cs),
(228,275,o),
(207,307,o),
(207,355,cs),
(207,403,o),
(229,429,o),
(275,429,cs),
(328,429,o),
(369,376,o),
(369,224,cs),
(369,93,o),
(328,42,o),
(279,42,cs)
);
}
);
userData = {
com.hugojourdan.ColorFlow = {
"0" = 0;
"1" = 0;
"10" = 0;
"11" = 0;
"2" = 0;
"3" = 0;
"4" = 0;
"5" = 0;
"6" = 0;
"7" = 0;
"8" = 0;
"9" = 0;
};
};
width = 557;
},
{
layerId = "E311F2CF-05EC-45EB-99C0-CA1AFFE6A9D5";
shapes = (
{
closed = 1;
nodes = (
(361,-10,o),
(454,79,o),
(454,217,cs),
(454,370,o),
(393,460,o),
(262,460,cs),
(161,460,o),
(65,409,o),
(65,327,cs),
(65,274,o),
(99,240,o),
(154,231,c),
(90,222,o),
(47,179,o),
(47,124,cs),
(47,45,o),
(117,-10,o),
(229,-10,cs)
);
},
{
closed = 1;
nodes = (
(162,45,o),
(120,85,o),
(120,136,cs),
(120,190,o),
(158,217,o),
(217,217,cs),
(255,217,o),
(285,209,o),
(305,195,c),
(325,200,l),
(316,273,l),
(287,265,o),
(259,264,o),
(233,264,cs),
(169,264,o),
(132,286,o),
(132,331,cs),
(132,394,o),
(180,417,o),
(230,417,cs),
(326,417,o),
(386,356,o),
(386,231,cs),
(386,100,o),
(346,45,o),
(259,45,cs)
);
}
);
userData = {
com.hugojourdan.ColorFlow = {
"0" = 0;
"1" = 0;
"10" = 0;
"11" = 0;
"2" = 0;
"3" = 0;
"4" = 0;
"5" = 0;
"6" = 0;
"7" = 0;
"8" = 0;
"9" = 0;
};
};
width = 504;
}
);
unicode = 666;
},
{
color = 3;
glyphname = eopenreversed;
lastChange = "2024-02-13 17:38:08 +0000";
layers = (
{
anchors = (
{
name = top;
pos = (215,450);
}
);
layerId = m001;
shapes = (
{
closed = 1;
nodes = (
(327,-19,o),
(409,24,o),
(409,124,cs),
(409,182,o),
(366,232,o),
(273,242,c),
(360,249,o),
(404,277,o),
(404,342,cs),
(404,410,o),
(294,469,o),
(185,469,cs),
(124,469,o),
(73,456,o),
(29,445,c),
(51,318,l),
(75,318,l),
(163,424,ls),
(166,427,o),
(178,429,o),
(183,429,cs),
(208,429,o),
(230,403,o),
(230,355,cs),
(230,307,o),
(209,275,o),
(190,275,cs),
(162,275,o),
(113,284,o),
(86,289,c),
(77,200,l),
(95,192,l),
(115,206,o),
(145,217,o),
(167,217,cs),
(210,217,o),
(239,185,o),
(239,141,cs),
(239,88,o),
(209,72,o),
(158,72,cs),
(122,72,o),
(79,91,o),
(38,129,c),
(11,100,l),
(126,-9,o),
(167,-19,o),
(216,-19,cs)
);
}
);
userData = {
com.hugojourdan.ColorFlow = {
"0" = 0;
"1" = 0;
"10" = 0;
"11" = 0;
"2" = 0;
"3" = 0;
"4" = 0;
"5" = 0;
"6" = 0;
"7" = 0;
"8" = 0;
"9" = 0;
};
};
width = 437;
},
{
anchors = (
{
name = top;
pos = (172,450);
}
);
layerId = "E311F2CF-05EC-45EB-99C0-CA1AFFE6A9D5";
shapes = (
{
closed = 1;
nodes = (
(281,-10,o),
(358,35,o),
(358,115,cs),
(358,179,o),
(315,228,o),
(240,237,c),
(306,246,o),
(340,290,o),
(340,337,cs),
(340,419,o),
(276,460,o),
(180,460,cs),
(138,460,o),
(84,453,o),
(43,440,c),
(58,350,l),
(82,350,l),
(134,415,l),
(146,418,o),
(160,420,o),
(176,420,cs),
(235,420,o),
(273,392,o),
(273,341,cs),
(273,296,o),
(236,264,o),
(172,264,cs),
(146,264,o),
(118,265,o),
(89,273,c),
(80,200,l),
(100,195,l),
(120,209,o),
(150,220,o),
(188,220,cs),
(247,220,o),
(285,190,o),
(285,136,cs),
(285,85,o),
(246,47,o),
(179,47,cs),
(115,47,o),
(63,70,o),
(25,115,c),
(4,97,l),
(94,-6,o),
(149,-10,o),
(189,-10,cs)
);
}
);
userData = {
com.hugojourdan.ColorFlow = {
"0" = 0;
"1" = 0;
"10" = 0;
"11" = 0;
"2" = 0;
"3" = 0;
"4" = 0;
"5" = 0;
"6" = 0;
"7" = 0;
"8" = 0;
"9" = 0;
};
};
width = 405;
}
);
unicode = 604;
},
{
color = 1;
glyphname = eopenreversedclosed;
lastChange = "2024-04-15 22:15:19 +0000";
layers = (
{
layerId = m001;
shapes = (
{
closed = 1;
nodes = (
(430,-19,o),
(529,24,o),
(529,124,cs),
(529,182,o),
(486,232,o),
(393,242,c),
(480,249,o),
(524,277,o),
(524,342,cs),
(524,410,o),
(439,469,o),
(287,469,cs),
(107,469,o),
(12,370,o),
(12,212,cs),
(12,52,o),
(150,-19,o),
(278,-19,cs)
);
},
{
closed = 1;
nodes = (
(229,42,o),
(188,93,o),
(188,224,cs),
(188,376,o),
(229,429,o),
(282,429,cs),
(328,429,o),
(350,403,o),
(350,355,cs),
(350,307,o),
(329,275,o),
(310,275,cs),
(282,275,o),
(247,284,o),
(220,289,c),
(211,200,l),
(229,192,l),
(249,206,o),
(265,217,o),
(287,217,cs),
(330,217,o),
(359,185,o),
(359,124,cs),
(359,75,o),
(329,42,o),
(278,42,cs)
);
}
);
userData = {
com.hugojourdan.ColorFlow = {
"0" = 0;
"1" = 0;
"10" = 0;
"11" = 0;
"2" = 0;
"3" = 0;
"4" = 0;
"5" = 0;
"6" = 0;
"7" = 0;
"8" = 0;
"9" = 0;
};
};
width = 557;
},
{
layerId = "E311F2CF-05EC-45EB-99C0-CA1AFFE6A9D5";
shapes = (
{
closed = 1;
nodes = (
(372,-10,o),
(457,45,o),
(457,124,cs),
(457,179,o),
(414,228,o),
(339,237,c),
(405,246,o),
(439,290,o),
(439,337,cs),
(439,419,o),
(373,460,o),
(277,460,cs),
(154,460,o),
(50,370,o),
(50,217,cs),
(50,79,o),
(129,-10,o),
(275,-10,cs)
);
},
{
closed = 1;
nodes = (
(176,38,o),
(118,120,o),
(118,251,cs),
(118,376,o),
(154,411,o),
(264,411,cs),
(310,411,o),
(372,392,o),
(372,341,cs),
(372,296,o),
(335,264,o),
(271,264,cs),
(245,264,o),
(217,265,o),
(188,273,c),
(179,200,l),
(199,195,l),
(219,209,o),
(249,220,o),
(287,220,cs),
(346,220,o),
(384,190,o),
(384,136,cs),
(384,85,o),
(336,38,o),
(269,38,cs)
);
}
);
userData = {
com.hugojourdan.ColorFlow = {
"0" = 0;
"1" = 0;
"10" = 0;
"11" = 0;
"2" = 0;
"3" = 0;
"4" = 0;
"5" = 0;
"6" = 0;
"7" = 0;
"8" = 0;
"9" = 0;
};
};
width = 504;
},
{
associatedMasterId = "E311F2CF-05EC-45EB-99C0-CA1AFFE6A9D5";
layerId = "6D399DA7-D234-443C-A075-981D44DE4205";
name = "5 de sep. de 23, 11:04";
shapes = (
{
closed = 1;
nodes = (
(236,420,l),
(305,420,l),
(313,424,o),
(331,428,o),
(363,428,cs),
(441,428,o),
(451,398,o),
(451,354,cs),
(451,302,o),
(407,253,o),
(351,253,cs),
(325,253,o),
(283,256,o),
(254,263,c),
(245,221,l),
(246,197,l),
(265,190,l),
(285,204,o),
(325,214,o),
(360,214,cs),
(423,214,o),
(469,188,o),
(469,131,cs),
(469,83,o),
(416,25,o),
(332,25,cs),
(310,25,o),
(288,29,o),
(268,33,c),
(187,18,l),
(242,-1,o),
(305,-12,o),
(354,-12,cs),
(468,-12,o),
(543,38,o),
(543,114,cs),
(543,173,o),
(509,212,o),
(418,232,c),
(489,246,o),
(517,293,o),
(517,336,cs),
(517,402,o),
(431,461,o),
(350,461,cs),
(301,461,o),
(247,458,o),
(206,441,c)
);
},
{
closed = 1;
nodes = (
(321,39,l),
(314,38,o),
(307,38,o),
(299,38,cs),
(206,38,o),
(148,120,o),
(148,251,cs),
(148,376,o),
(184,411,o),
(281,411,cs),
(290,411,o),
(299,410,o),
(307,409,c),
(332,459,l),
(324,460,o),
(315,460,o),
(307,460,cs),
(184,460,o),
(80,370,o),
(80,217,cs),
(80,79,o),
(159,-10,o),
(274,-10,cs),
(285,-10,o),
(296,-9,o),
(307,-8,c)
);
}
);
userData = {
com.hugojourdan.ColorFlow = {
"0" = 0;
"1" = 0;
"10" = 0;
"11" = 0;
"2" = 0;
"3" = 0;
"4" = 0;
"5" = 0;
"6" = 0;
"7" = 0;
"8" = 0;
"9" = 0;
};
};
width = 583;
},
{
associatedMasterId = m001;
layerId = "66351317-D834-4762-AC4F-2A224D4282F3";
name = "5 de sep. de 23, 11:16";
shapes = (
{
closed = 1;
nodes = (
(283,346,l),
(351,418,l),
(357,420,o),
(375,422,o),
(388,422,cs),
(423,422,o),
(445,398,o),
(445,348,cs),
(445,302,o),
(405,268,o),
(367,268,cs),
(343,268,o),
(314,270,o),
(299,275,c),
(290,220,l),
(290,189,l),
(310,183,l),
(330,197,o),
(357,204,o),
(376,204,cs),
(418,204,o),
(444,188,o),
(444,131,cs),
(444,68,o),
(407,45,o),
(371,45,cs),
(363,45,o),
(341,46,o),
(336,47,c),
(278,109,l),
(235,109,l),
(217,9,l),
(265,-5,o),
(330,-16,o),
(397,-16,cs),
(508,-16,o),
(589,25,o),
(589,99,cs),
(589,168,o),
(565,207,o),
(474,232,c),
(557,249,o),
(573,287,o),
(573,336,cs),
(573,409,o),
(490,469,o),
(386,469,cs),
(346,469,o),
(264,459,o),
(222,446,c),
(240,346,l)
);
},
{
closed = 1;
nodes = (
(328,57,l),
(322,45,o),
(313,41,o),
(300,41,cs),
(251,41,o),
(219,87,o),
(219,218,cs),
(219,370,o),
(229,400,o),
(260,400,cs),
(271,400,o),
(281,398,o),
(290,393,c),
(354,460,l),
(341,462,o),
(326,463,o),
(311,463,cs),
(135,463,o),
(43,364,o),
(43,206,cs),
(43,46,o),
(117,-25,o),
(251,-25,cs),
(302,-25,o),
(345,-17,o),
(382,-1,c)
);
}
);
width = 634;
},
{
associatedMasterId = "E311F2CF-05EC-45EB-99C0-CA1AFFE6A9D5";
layerId = "D285835F-9D1A-4A52-B876-E0061E55C9A6";
name = "15 de dic. de 23, 18:53";
shapes = (
{
closed = 1;
nodes = (
(417,-10,o),
(510,34,o),
(510,114,cs),
(510,173,o),
(480,212,o),
(389,232,c),
(460,246,o),
(488,293,o),
(488,336,cs),
(488,410,o),
(433,461,o),
(296,461,cs),
(171,461,o),
(50,392,o),
(50,217,cs),
(50,50,o),
(152,-10,o),
(300,-10,cs)
);
},
{
closed = 1;
nodes = (
(215,27,o),
(121,91,o),
(121,251,cs),
(121,380,o),
(209,428,o),
(283,428,cs),
(367,428,o),
(422,398,o),
(422,354,cs),
(422,302,o),
(378,253,o),
(322,253,cs),
(296,253,o),
(256,256,o),
(227,263,c),
(219,198,l),
(238,191,l),
(258,205,o),
(296,211,o),
(331,211,cs),
(394,211,o),
(436,188,o),
(436,131,cs),
(436,68,o),
(389,27,o),
(295,27,cs)
);
},
{
closed = 0;
nodes = (
(277,461,ls),
(154,461,o),
(50,370,o),
(50,217,cs),
(50,79,o),
(129,-10,o),
(244,-10,cs)
);
},
{
closed = 0;
nodes = (
(269,38,ls),
(176,38,o),
(118,120,o),
(118,251,cs),
(118,376,o),
(154,411,o),
(251,411,cs)
);
}
);
visible = 1;
width = 557;
}
);
metricLeft = o;
metricRight = eopenreversed;
unicode = 606;
},
{
color = 3;
glyphname = eopenreversedhook;
lastChange = "2024-02-13 17:38:08 +0000";
layers = (
{
layerId = m001;
shapes = (
{
closed = 1;
nodes = (
(512,195,o),
(536,206,o),
(576,226,c),
(572,248,l),
(569,248,o),
(566,248,o),
(563,248,cs),
(505,248,o),
(483,280,o),
(495,372,c),
(465,384,l),
(431,343,o),
(415,312,o),
(415,275,cs),
(415,221,o),
(453,195,o),
(485,195,cs)
);
},
{
pos = (442,0);
ref = eopen;
scale = (-1,1);
},
{
closed = 1;
nodes = (
(462,373,l),
(495,372,l),
(502,421,l),
(478,421,l),
(327,363,l),
(336,324,l)
);
}
);
userData = {
com.hugojourdan.ColorFlow = {
"0" = 0;
"1" = 0;
"10" = 0;
"11" = 0;
"2" = 0;
"3" = 0;
"4" = 0;
"5" = 0;
"6" = 0;
"7" = 0;
"8" = 0;
"9" = 0;
};
};
width = 546;
},
{
layerId = "E311F2CF-05EC-45EB-99C0-CA1AFFE6A9D5";
shapes = (
{
closed = 1;
nodes = (
(512,190,o),
(529,200,o),
(563,212,c),
(558,232,l),
(543,227,o),
(530,224,o),
(518,224,cs),
(459,224,o),
(446,315,o),
(506,383,c),
(484,390,l),
(449,358,o),
(422,310,o),
(422,265,cs),
(422,221,o),
(458,190,o),
(490,190,cs)
);
},
{
pos = (446,0);
ref = eopen;
scale = (-1,1);
},
{
closed = 1;
nodes = (
(478,364,l),
(491,364,l),
(514,392,l),
(477,392,l),
(335,338,l),
(343,311,l)
);
}
);
userData = {
com.hugojourdan.ColorFlow = {
"0" = 0;
"1" = 0;
"10" = 0;
"11" = 0;
"2" = 0;
"3" = 0;
"4" = 0;
"5" = 0;
"6" = 0;
"7" = 0;
"8" = 0;
"9" = 0;
};
};
width = 563;
}
);
unicode = 605;
},
{
color = 3;
glyphname = ereversed;
kernRight = KO_o;
lastChange = "2024-02-13 17:38:08 +0000";
layers = (
{
guides = (
{
pos = (381,240);
}
);
layerId = m001;
shapes = (
{
closed = 1;
nodes = (
(375,-19,o),
(465,80,o),
(465,238,cs),
(465,398,o),
(392,469,o),
(258,469,cs),
(101,469,o),
(19,386,o),
(12,240,c),
(381,240,l),
(381,273,l),
(131,273,l),
(176,251,l),
(177,379,o),
(184,406,o),
(213,406,cs),
(260,406,o),
(289,357,o),
(289,226,cs),
(289,74,o),
(281,47,o),
(247,47,cs),
(206,47,o),
(177,79,o),
(168,167,c),
(21,68,l),
(55,8,o),
(115,-19,o),
(198,-19,cs)
);
}
);
userData = {
com.hugojourdan.ColorFlow = {
"0" = 0;
"1" = 0;
"10" = 0;
"11" = 0;
"2" = 0;
"3" = 0;
"4" = 0;
"5" = 0;
"6" = 0;
"7" = 0;
"8" = 0;
"9" = 0;
};
};
width = 477;
},
{
layerId = "E311F2CF-05EC-45EB-99C0-CA1AFFE6A9D5";
shapes = (
{
closed = 1;
nodes = (
(337,-10,o),
(440,80,o),
(440,233,cs),
(440,371,o),
(362,461,o),
(247,461,cs),
(163,461,o),
(50,406,o),
(50,253,c),
(400,253,l),
(400,287,l),
(83,287,l),
(129,269,l),
(129,389,o),
(145,411,o),
(221,411,cs),
(316,411,o),
(372,330,o),
(372,199,cs),
(372,74,o),
(337,38,o),
(239,38,cs),
(181,38,o),
(137,70,o),
(111,126,c),
(56,76,l),
(90,22,o),
(146,-10,o),
(214,-10,cs)
);
}
);
userData = {
com.hugojourdan.ColorFlow = {
"0" = 0;
"1" = 0;
"10" = 0;
"11" = 0;
"2" = 0;
"3" = 0;
"4" = 0;
"5" = 0;
"6" = 0;
"7" = 0;
"8" = 0;
"9" = 0;
};
};
width = 490;
},
{
anchors = (
{
name = bottom;
pos = (331,-100);
},
{
name = top;
pos = (202,450);
}
);
associatedMasterId = m001;
layerId = "78CC8224-62A2-4443-916F-5141304113A8";
name = "15 de dic. de 23, 20:51";
shapes = (
{
closed = 1;
nodes = (
(340,-19,o),
(440,53,o),
(440,204,cs),
(440,409,o),
(319,469,o),
(201,469,cs),
(47,469,o),
(0,352,o),
(22,232,c),
(282,232,l),
(273,114,o),
(208,82,o),
(142,82,cs),
(87,82,o),
(70,89,o),
(40,103,c),
(14,65,l),
(70,18,o),
(141,-19,o),
(218,-19,cs)
);
},
{
closed = 1;
nodes = (
(174,273,l),
(174,374,o),
(213,405,o),
(252,405,cs),
(274,405,o),
(283,388,o),
(283,273,c)
);
}
);
visible = 1;
width = 452;
},
{
anchors = (
{
name = bottom;
pos = (105,-100);
},
{
name = top;
pos = (246,450);
}
);
associatedMasterId = "E311F2CF-05EC-45EB-99C0-CA1AFFE6A9D5";
layerId = "001F15E6-E148-4AE1-B94F-54D6F6A98092";
name = "15 de dic. de 23, 20:51";
shapes = (
{
closed = 1;
nodes = (
(333,-10,o),
(424,53,o),
(424,223,cs),
(424,350,o),
(339,460,o),
(221,460,cs),
(69,460,o),
(50,324,o),
(63,253,c),
(354,253,l),
(359,110,o),
(282,47,o),
(181,47,cs),
(153,47,o),
(104,57,o),
(56,87,c),
(50,65,l),
(105,27,o),
(163,-10,o),
(218,-10,cs)
);
},
{
closed = 1;
nodes = (
(135,287,l),
(135,369,o),
(169,421,o),
(250,421,cs),
(316,421,o),
(346,391,o),
(353,287,c)
);
}
);
width = 474;
}
);
metricRight = o;
unicode = 600;
},
{
color = 3;
glyphname = esh;
lastChange = "2024-02-13 17:38:08 +0000";
layers = (
{
layerId = m001;
shapes = (
{
pos = (-65,0);
ref = integral;
}
);
userData = {
com.hugojourdan.ColorFlow = {
"0" = 0;
"1" = 0;
"10" = 0;
"11" = 0;
"2" = 0;
"3" = 0;
"4" = 0;
"5" = 0;
"6" = 0;
"7" = 0;
"8" = 0;
"9" = 0;
};
};
width = 266;
},
{
layerId = "E311F2CF-05EC-45EB-99C0-CA1AFFE6A9D5";
shapes = (
{
pos = (3,0);
ref = integral;
}
);
userData = {
com.hugojourdan.ColorFlow = {
"0" = 0;
"1" = 0;
"10" = 0;
"11" = 0;
"2" = 0;
"3" = 0;
"4" = 0;
"5" = 0;
"6" = 0;
"7" = 0;
"8" = 0;
"9" = 0;
};
};
width = 269;
},
{
associatedMasterId = "E311F2CF-05EC-45EB-99C0-CA1AFFE6A9D5";
layerId = "8FBF6529-CF16-42C5-B2F7-311ED46EB106";
name = "7 de sep. de 23, 8:31";
shapes = (
{
closed = 1;
nodes = (
(233,0,l),
(233,16,l),
(161,50,l),
(161,602,l),
(170,693,l),
(139,693,l),
(24,656,l),
(24,643,l),
(95,623,l),
(95,50,l),
(20,16,l),
(20,0,l)
);
}
);
width = 253;
},
{
associatedMasterId = m001;
layerId = "5C925233-3214-4B1B-B1EB-6DCA0C8A737A";
name = "7 de sep. de 23, 8:34";
shapes = (
{
closed = 1;
nodes = (
(241,64,l),
(241,565,l),
(68,565,l),
(68,64,l)
);
},
{
closed = 0;
nodes = (
(254,616,ls),
(254,654,o),
(263,656,o),
(275,656,c),
(342,600,l),
(367,600,l),
(385,702,l),
(366,708,o),
(331,711,o),
(308,711,cs),
(157,711,o),
(81,608,o),
(81,510,cs)
);
},
{
closed = 0;
nodes = (
(75,-50,ls),
(75,-160,o),
(66,-188,o),
(32,-188,c),
(-27,-131,l),
(-57,-131,l),
(-71,-220,l),
(-52,-226,o),
(-17,-243,o),
(47,-243,cs),
(126,-243,o),
(265,-160,o),
(265,-13,cs)
);
}
);
width = 600;
}
);
unicode = 643;
},
{
color = 11;
glyphname = eshcurl;
lastChange = "2024-05-17 05:36:53 +0000";
layers = (
{
layerId = m001;
shapes = (
{
closed = 1;
nodes = (
(220,-240,o),
(346,-167,o),
(345,-33,cs),
(344,129,o),
(333,318,o),
(325,480,cs),
(316,650,o),
(317,661,o),
(326,661,c),
(422,603,l),
(444,603,l),
(461,703,l),
(442,709,o),
(407,712,o),
(384,712,cs),
(255,712,o),
(153,633,o),
(155,480,cs),
(157,301,o),
(169,123,o),
(175,-56,cs),
(175,-138,o),
(158,-184,o),
(115,-184,cs),
(91,-184,o),
(73,-168,o),
(73,-139,cs),
(73,-86,o),
(129,-45,o),
(331,-47,cs),
(362,-47,o),
(386,-49,o),
(411,-51,c),
(411,-3,l),
(387,-1,o),
(363,0,o),
(331,0,cs),
(65,-1,o),
(19,-77,o),
(19,-148,cs),
(19,-208,o),
(69,-240,o),
(138,-240,cs)
);
}
);
userData = {
com.hugojourdan.ColorFlow = {
"0" = 0;
"1" = 0;
"10" = 0;
"11" = 0;
"2" = 0;
"3" = 0;
"4" = 0;
"5" = 0;
"6" = 0;
"7" = 0;
"8" = 0;
"9" = 0;
};
};
width = 461;
},
{
layerId = "E311F2CF-05EC-45EB-99C0-CA1AFFE6A9D5";
shapes = (
{
closed = 1;
nodes = (
(194,-235,o),
(274,-188,o),
(274,-83,cs),
(274,89,o),
(251,345,o),
(251,516,cs),
(251,618,o),
(284,667,o),
(340,664,c),
(405,617,l),
(427,617,l),
(440,692,l),
(421,698,o),
(397,701,o),
(374,701,cs),
(282,701,o),
(185,635,o),
(185,480,cs),
(185,300,o),
(205,89,o),
(205,-88,cs),
(205,-161,o),
(178,-201,o),
(137,-201,cs),
(111,-201,o),
(94,-183,o),
(94,-159,cs),
(94,-131,o),
(121,-107,o),
(167,-107,cs),
(248,-107,o),
(284,-114,o),
(349,-129,c),
(349,-95,l),
(289,-78,o),
(249,-72,o),
(178,-72,cs),
(107,-72,o),
(54,-112,o),
(54,-160,cs),
(54,-208,o),
(96,-235,o),
(142,-235,cs)
);
}
);
userData = {
com.hugojourdan.ColorFlow = {
"0" = 0;
"1" = 0;
"10" = 0;
"11" = 0;
"2" = 0;
"3" = 0;
"4" = 0;
"5" = 0;
"6" = 0;
"7" = 0;
"8" = 0;
"9" = 0;
};
};
width = 440;
}
);
unicode = 646;
},
{
color = 11;
glyphname = eshsquatreversed;
lastChange = "2024-05-17 05:36:53 +0000";
layers = (
{
layerId = m001;
shapes = (
{
closed = 1;
nodes = (
(392,-235,o),
(441,-226,o),
(460,-219,c),
(443,-122,l),
(423,-122,l),
(346,-167,l),
(319,-166,o),
(300,-131,o),
(300,-56,cs),
(300,64,o),
(305,117,o),
(306,237,cs),
(307,390,o),
(252,469,o),
(77,469,cs),
(54,469,o),
(19,466,o),
(0,460,c),
(17,360,l),
(39,360,l),
(103,399,l),
(130,397,o),
(141,407,o),
(136,237,cs),
(133,134,o),
(132,98,o),
(130,-5,cs),
(127,-166,o),
(233,-235,o),
(376,-235,cs)
);
}
);
userData = {
com.hugojourdan.ColorFlow = {
"0" = 0;
"1" = 0;
"10" = 0;
"11" = 0;
"2" = 0;
"3" = 0;
"4" = 0;
"5" = 0;
"6" = 0;
"7" = 0;
"8" = 0;
"9" = 0;
};
};
width = 460;
},
{
layerId = "E311F2CF-05EC-45EB-99C0-CA1AFFE6A9D5";
shapes = (
{
closed = 1;
nodes = (
(379,-235,o),
(389,-235,o),
(408,-233,c),
(394,-154,l),
(369,-154,l),
(336,-189,l),
(288,-193,o),
(250,-140,o),
(250,-56,cs),
(250,30,o),
(255,114,o),
(255,239,cs),
(255,415,o),
(191,460,o),
(66,460,cs),
(43,460,o),
(19,457,o),
(0,451,c),
(13,376,l),
(47,376,l),
(82,413,l),
(135,413,o),
(192,397,o),
(189,275,cs),
(186,159,o),
(184,82,o),
(184,1,cs),
(184,-118,o),
(196,-235,o),
(363,-235,cs)
);
}
);
userData = {
com.hugojourdan.ColorFlow = {
"0" = 0;
"1" = 0;
"10" = 0;
"11" = 0;
"2" = 0;
"3" = 0;
"4" = 0;
"5" = 0;
"6" = 0;
"7" = 0;
"8" = 0;
"9" = 0;
};
};
width = 408;
}
);
unicode = 645;
},
{
color = 3;
glyphname = schwahook;
lastChange = "2024-02-13 17:38:13 +0000";
layers = (
{
layerId = m001;
shapes = (
{
closed = 1;
nodes = (
(319,-19,o),
(440,41,o),
(440,246,cs),
(440,367,o),
(371,469,o),
(218,469,cs),
(141,469,o),
(70,428,o),
(14,385,c),
(40,347,l),
(70,361,o),
(93,367,o),
(148,367,cs),
(237,367,o),
(274,292,o),
(274,263,c),
(15,164,l),
(15,121,o),
(29,-19,o),
(201,-19,cs)
);
},
{
closed = 1;
nodes = (
(213,45,o),
(174,77,o),
(174,178,c),
(282,221,l),
(286,77,o),
(274,45,o),
(244,45,cs)
);
},
{
closed = 1;
nodes = (
(567,135,o),
(591,146,o),
(631,166,c),
(627,188,l),
(624,188,o),
(621,188,o),
(618,188,cs),
(560,188,o),
(538,220,o),
(550,312,c),
(520,324,l),
(486,283,o),
(470,252,o),
(470,215,cs),
(470,161,o),
(508,135,o),
(540,135,cs)
);
},
{
closed = 1;
nodes = (
(517,313,l),
(550,312,l),
(557,361,l),
(533,361,l),
(382,303,l),
(391,264,l)
);
}
);
userData = {
com.hugojourdan.ColorFlow = {
"0" = 0;
"1" = 0;
"10" = 0;
"11" = 0;
"2" = 0;
"3" = 0;
"4" = 0;
"5" = 0;
"6" = 0;
"7" = 0;
"8" = 0;
"9" = 0;
};
};
width = 601;
},
{
layerId = "E311F2CF-05EC-45EB-99C0-CA1AFFE6A9D5";
shapes = (
{
closed = 1;
nodes = (
(339,-10,o),
(424,100,o),
(424,227,cs),
(424,359,o),
(354,460,o),
(218,460,cs),
(163,460,o),
(105,423,o),
(50,385,c),
(56,363,l),
(104,393,o),
(153,403,o),
(181,403,cs),
(274,403,o),
(324,352,o),
(345,286,c),
(59,179,l),
(59,115,o),
(69,-10,o),
(221,-10,cs)
);
},
{
closed = 1;
nodes = (
(172,29,o),
(134,75,o),
(134,176,c),
(351,258,l),
(364,52,o),
(315,29,o),
(250,29,cs)
);
},
{
closed = 1;
nodes = (
(559,150,o),
(576,160,o),
(610,172,c),
(605,192,l),
(590,187,o),
(577,184,o),
(565,184,cs),
(506,184,o),
(493,275,o),
(553,343,c),
(531,350,l),
(496,318,o),
(469,270,o),
(469,225,cs),
(469,181,o),
(505,150,o),
(537,150,cs)
);
},
{
closed = 1;
nodes = (
(525,324,l),
(538,324,l),
(561,352,l),
(524,352,l),
(382,298,l),
(390,271,l)
);
}
);
userData = {
com.hugojourdan.ColorFlow = {
"0" = 0;
"1" = 0;
"10" = 0;
"11" = 0;
"2" = 0;
"3" = 0;
"4" = 0;
"5" = 0;
"6" = 0;
"7" = 0;
"8" = 0;
"9" = 0;
};
};
width = 610;
},
{
associatedMasterId = m001;
layerId = "2B659718-A864-471E-B9FF-D1C2390993DB";
name = "9 de oct. de 23, 8:48";
shapes = (
{
closed = 1;
nodes = (
(317,-19,o),
(438,41,o),
(438,246,cs),
(438,397,o),
(338,469,o),
(216,469,cs),
(139,469,o),
(68,428,o),
(12,385,c),
(38,347,l),
(68,361,o),
(91,367,o),
(146,367,cs),
(235,367,o),
(272,292,o),
(272,263,c),
(13,164,l),
(13,121,o),
(27,-19,o),
(199,-19,cs)
);
},
{
closed = 1;
nodes = (
(211,45,o),
(172,77,o),
(172,178,c),
(280,221,l),
(283,130,o),
(284,45,o),
(253,45,cs)
);
},
{
closed = 1;
nodes = (
(468,134,o),
(578,71,o),
(648,217,c),
(623,240,l),
(584,174,o),
(557,204,o),
(557,264,cs),
(557,297,o),
(570,335,o),
(576,363,c),
(532,363,l),
(288,269,l),
(302,230,l),
(500,309,l),
(480,276,o),
(468,258,o),
(468,210,cs)
);
}
);
width = 600;
},
{
associatedMasterId = "E311F2CF-05EC-45EB-99C0-CA1AFFE6A9D5";
layerId = "687E994D-64D8-4B9B-B038-82A77215E4B4";
name = "9 de oct. de 23, 8:48";
shapes = (
{
closed = 1;
nodes = (
(342,-10,o),
(427,100,o),
(427,227,cs),
(427,397,o),
(336,460,o),
(221,460,cs),
(166,460,o),
(108,423,o),
(53,385,c),
(59,363,l),
(107,393,o),
(156,403,o),
(184,403,cs),
(277,403,o),
(327,352,o),
(348,286,c),
(62,179,l),
(62,115,o),
(72,-10,o),
(224,-10,cs)
);
},
{
closed = 1;
nodes = (
(175,29,o),
(137,75,o),
(137,176,c),
(354,258,l),
(367,52,o),
(318,29,o),
(253,29,cs)
);
},
{
closed = 1;
nodes = (
(481,163,o),
(566,97,o),
(629,222,c),
(614,237,l),
(581,179,o),
(531,192,o),
(531,252,cs),
(531,277,o),
(546,322,o),
(552,350,c),
(522,350,l),
(369,293,l),
(375,265,l),
(508,316,l),
(493,291,o),
(481,262,o),
(481,215,cs)
);
}
);
width = 588;
}
);
metricLeft = schwa;
unicode = 602;
},
{
color = 3;
glyphname = ezh;
lastChange = "2024-02-13 17:38:13 +0000";
layers = (
{
layerId = m001;
shapes = (
{
closed = 1;
nodes = (
(347,-209,o),
(469,-116,o),
(469,-2,cs),
(469,85,o),
(402,169,o),
(286,190,c),
(486,403,l),
(486,450,l),
(61,450,l),
(23,231,l),
(49,231,l),
(110,314,l),
(307,314,l),
(121,108,l),
(127,79,l),
(136,82,o),
(159,89,o),
(180,89,cs),
(244,89,o),
(301,22,o),
(301,-51,cs),
(301,-116,o),
(259,-146,o),
(180,-146,cs),
(175,-146,o),
(169,-146,o),
(164,-146,c),
(97,-26,l),
(45,-26,l),
(16,-195,l),
(60,-205,o),
(125,-209,o),
(198,-209,cs)
);
}
);
userData = {
com.hugojourdan.ColorFlow = {
"0" = 0;
"1" = 0;
"10" = 0;
"11" = 0;
"2" = 0;
"3" = 0;
"4" = 0;
"5" = 0;
"6" = 0;
"7" = 0;
"8" = 0;
"9" = 0;
};
};
width = 515;
},
{
layerId = "E311F2CF-05EC-45EB-99C0-CA1AFFE6A9D5";
shapes = (
{
closed = 1;
nodes = (
(321,-210,o),
(407,-115,o),
(407,-19,cs),
(407,70,o),
(347,157,o),
(200,166,c),
(406,423,l),
(406,450,l),
(65,450,l),
(39,300,l),
(65,300,l),
(126,389,l),
(332,388,l),
(116,113,l),
(122,109,l),
(140,111,o),
(155,110,o),
(169,110,cs),
(265,110,o),
(329,39,o),
(329,-41,cs),
(329,-120,o),
(277,-183,o),
(157,-183,cs),
(150,-183,o),
(140,-183,o),
(134,-182,c),
(69,-121,l),
(48,-121,l),
(35,-196,l),
(78,-206,o),
(110,-210,o),
(156,-210,cs)
);
}
);
userData = {
com.hugojourdan.ColorFlow = {
"0" = 0;
"1" = 0;
"10" = 0;
"11" = 0;
"2" = 0;
"3" = 0;
"4" = 0;
"5" = 0;
"6" = 0;
"7" = 0;
"8" = 0;
"9" = 0;
};
};
width = 452;
}
);
metricLeft = z;
metricRight = s;
unicode = 658;
},
{
color = 11;
glyphname = ezhcurl;
lastChange = "2024-05-17 05:36:53 +0000";
layers = (
{
layerId = m001;
shapes = (
{
closed = 1;
nodes = (
(334,-208,o),
(461,-116,o),
(461,-2,cs),
(461,85,o),
(394,169,o),
(278,190,c),
(478,403,l),
(478,450,l),
(53,450,l),
(15,231,l),
(41,231,l),
(102,314,l),
(299,314,l),
(113,108,l),
(119,79,l),
(128,82,o),
(151,89,o),
(172,89,cs),
(236,89,o),
(293,22,o),
(285,-51,cs),
(285,-116,o),
(232,-146,o),
(149,-146,cs),
(105,-146,o),
(59,-126,o),
(59,-94,cs),
(59,-67,o),
(85,-56,o),
(109,-56,cs),
(146,-56,o),
(189,-91,o),
(398,-216,c),
(433,-173,l),
(219,-28,o),
(174,-2,o),
(104,-2,cs),
(47,-2,o),
(0,-42,o),
(0,-94,cs),
(0,-153,o),
(51,-210,o),
(177,-209,cs)
);
}
);
userData = {
com.hugojourdan.ColorFlow = {
"0" = 0;
"1" = 0;
"10" = 0;
"11" = 0;
"2" = 0;
"3" = 0;
"4" = 0;
"5" = 0;
"6" = 0;
"7" = 0;
"8" = 0;
"9" = 0;
};
};
width = 478;
},
{
layerId = "E311F2CF-05EC-45EB-99C0-CA1AFFE6A9D5";
shapes = (
{
closed = 1;
nodes = (
(289,-210,o),
(375,-115,o),
(375,-19,cs),
(375,70,o),
(315,157,o),
(168,166,c),
(374,423,l),
(374,450,l),
(33,450,l),
(7,300,l),
(33,300,l),
(94,389,l),
(300,388,l),
(84,113,l),
(90,109,l),
(108,111,o),
(123,110,o),
(137,110,cs),
(233,110,o),
(297,39,o),
(297,-41,cs),
(297,-120,o),
(243,-176,o),
(123,-176,cs),
(81,-176,o),
(37,-149,o),
(37,-104,cs),
(37,-80,o),
(56,-63,o),
(90,-63,cs),
(104,-63,o),
(140,-72,o),
(285,-229,c),
(316,-204,l),
(164,-37,o),
(128,-27,o),
(90,-26,cs),
(41,-25,o),
(0,-60,o),
(0,-108,cs),
(0,-174,o),
(58,-210,o),
(124,-210,cs)
);
}
);
userData = {
com.hugojourdan.ColorFlow = {
"0" = 0;
"1" = 0;
"10" = 0;
"11" = 0;
"2" = 0;
"3" = 0;
"4" = 0;
"5" = 0;
"6" = 0;
"7" = 0;
"8" = 0;
"9" = 0;
};
};
width = 375;
}
);
unicode = 659;
},
{
color = 4;
glyphname = f;
lastChange = "2024-02-12 15:02:33 +0000";
layers = (
{
anchors = (
{
name = bottom;
pos = (197,-100);
},
{
name = top;
pos = (197,450);
}
);
layerId = m001;
shapes = (
{
closed = 1;
nodes = (
(310,0,l),
(310,27,l),
(243,64,l),
(243,400,l),
(271,400,l),
(331,392,l),
(347,455,l),
(271,450,l),
(243,450,l),
(243,619,ls),
(243,657,o),
(252,659,o),
(264,659,c),
(330,603,l),
(356,603,l),
(374,705,l),
(355,711,o),
(320,714,o),
(297,714,cs),
(146,714,o),
(70,611,o),
(70,513,cs),
(70,450,l),
(9,450,l),
(9,400,l),
(70,400,l),
(70,64,l),
(22,27,l),
(22,0,l)
);
}
);
userData = {
com.hugojourdan.ColorFlow = {
"0" = 0;
"1" = 0;
"10" = 0;
"11" = 0;
"2" = 0;
"3" = 0;
"4" = 0;
"5" = 0;
"6" = 0;
"7" = 0;
"8" = 0;
"9" = 0;
};
};
width = 317;
},
{
anchors = (
{
name = bottom;
pos = (230,-100);
},
{
name = top;
pos = (241,450);
}
);
layerId = "E311F2CF-05EC-45EB-99C0-CA1AFFE6A9D5";
shapes = (
{
closed = 1;
nodes = (
(275,0,l),
(275,16,l),
(168,50,l),
(168,416,l),
(196,416,l),
(290,408,l),
(299,455,l),
(196,450,l),
(168,450,l),
(168,493,ls),
(168,620,o),
(201,668,o),
(255,668,c),
(326,617,l),
(345,617,l),
(358,691,l),
(339,697,o),
(315,700,o),
(292,700,cs),
(205,700,o),
(102,641,o),
(102,472,cs),
(102,450,l),
(41,450,l),
(41,416,l),
(102,416,l),
(102,50,l),
(27,16,l),
(27,0,l)
);
}
);
userData = {
com.hugojourdan.ColorFlow = {
"0" = 0;
"1" = 0;
"10" = 0;
"11" = 0;
"2" = 0;
"3" = 0;
"4" = 0;
"5" = 0;
"6" = 0;
"7" = 0;
"8" = 0;
"9" = 0;
};
};
width = 320;
},
{
anchors = (
{
name = bottom;
pos = (230,-100);
},
{
name = top;
pos = (241,450);
}
);
associatedMasterId = "E311F2CF-05EC-45EB-99C0-CA1AFFE6A9D5";
layerId = "9E4A5B99-F09A-456A-9F22-FBDDCD3A1A81";
name = "3 de oct. de 23, 9:58";
shapes = (
{
closed = 1;
nodes = (
(275,0,l),
(275,16,l),
(168,50,l),
(168,416,l),
(196,416,l),
(290,408,l),
(299,455,l),
(196,450,l),
(168,450,l),
(168,493,ls),
(168,620,o),
(201,668,o),
(255,668,c),
(326,617,l),
(344,617,l),
(358,691,l),
(339,697,o),
(315,700,o),
(292,700,cs),
(205,700,o),
(102,641,o),
(102,472,cs),
(102,450,l),
(41,450,l),
(41,416,l),
(102,416,l),
(102,50,l),
(27,16,l),
(27,0,l)
);
}
);
width = 320;
},
{
anchors = (
{
name = bottom;
pos = (197,-100);
},
{
name = top;
pos = (197,450);
}
);
associatedMasterId = m001;
layerId = "8202AD77-EF75-45A3-A1EF-AC0AE2EBF006";
name = "3 de oct. de 23, 9:58";
shapes = (
{
closed = 1;
nodes = (
(310,0,l),
(310,27,l),
(243,64,l),
(243,400,l),
(271,400,l),
(331,392,l),
(347,455,l),
(271,450,l),
(243,450,l),
(243,619,ls),
(243,657,o),
(252,659,o),
(264,659,c),
(330,603,l),
(355,603,l),
(374,705,l),
(355,711,o),
(320,714,o),
(297,714,cs),
(146,714,o),
(70,611,o),
(70,513,cs),
(70,450,l),
(9,450,l),
(9,400,l),
(70,400,l),
(70,64,l),
(22,27,l),
(22,0,l)
);
}
);
width = 317;
}
);
unicode = 102;
userData = {
KernOnName = f;
};
},
{
color = 3;
glyphname = fengdigraph;
lastChange = "2024-02-13 17:38:13 +0000";
layers = (
{
layerId = m001;
shapes = (
{
closed = 1;
nodes = (
(290,0,l),
(290,27,l),
(243,64,l),
(243,400,l),
(308,400,l),
(367,357,l),
(367,64,l),
(319,27,l),
(319,0,l),
(583,0,l),
(583,27,l),
(540,64,l),
(540,371,l),
(548,375,o),
(562,378,o),
(576,378,cs),
(610,378,o),
(646,363,o),
(646,287,cs),
(646,-128,ls),
(646,-109,o),
(651,-167,o),
(638,-167,c),
(558,-104,l),
(536,-104,l),
(518,-208,l),
(537,-218,o),
(554,-222,o),
(609,-222,cs),
(696,-222,o),
(819,-166,o),
(819,-36,cs),
(819,355,ls),
(819,422,o),
(777,469,o),
(713,469,cs),
(662,469,o),
(616,465,o),
(540,411,c),
(540,469,l),
(509,469,l),
(411,450,l),
(243,450,l),
(243,619,ls),
(243,657,o),
(252,659,o),
(264,659,c),
(330,603,l),
(356,603,l),
(374,705,l),
(355,711,o),
(320,714,o),
(297,714,cs),
(146,714,o),
(70,611,o),
(70,513,cs),
(70,450,l),
(9,450,l),
(9,400,l),
(70,400,l),
(70,64,l),
(22,27,l),
(22,0,l)
);
}
);
userData = {
com.hugojourdan.ColorFlow = {
"0" = 0;
"1" = 0;
"10" = 0;
"11" = 0;
"2" = 0;
"3" = 0;
"4" = 0;
"5" = 0;
"6" = 0;
"7" = 0;
"8" = 0;
"9" = 0;
};
};
width = 868;
},
{
layerId = "E311F2CF-05EC-45EB-99C0-CA1AFFE6A9D5";
shapes = (
{
closed = 1;
nodes = (
(235,0,l),
(235,16,l),
(168,50,l),
(168,416,l),
(309,416,l),
(382,392,l),
(382,50,l),
(307,16,l),
(307,0,l),
(518,0,l),
(518,16,l),
(448,50,l),
(448,374,l),
(488,394,o),
(529,403,o),
(564,403,cs),
(620,403,o),
(661,363,o),
(661,314,cs),
(661,-39,ls),
(661,-192,o),
(625,-204,o),
(578,-204,c),
(532,-163,l),
(508,-163,l),
(496,-235,l),
(515,-237,o),
(532,-238,o),
(539,-238,cs),
(684,-238,o),
(727,-118,o),
(727,10,cs),
(727,346,ls),
(727,425,o),
(664,460,o),
(591,460,cs),
(554,460,o),
(502,431,o),
(448,401,c),
(448,460,l),
(417,460,l),
(326,450,l),
(168,450,l),
(168,493,ls),
(168,620,o),
(201,668,o),
(255,668,c),
(326,617,l),
(345,617,l),
(358,691,l),
(339,697,o),
(315,700,o),
(292,700,cs),
(205,700,o),
(102,641,o),
(102,472,cs),
(102,450,l),
(41,450,l),
(41,416,l),
(102,416,l),
(102,50,l),
(27,16,l),
(27,0,l)
);
}
);
userData = {
com.hugojourdan.ColorFlow = {
"0" = 0;
"1" = 0;
"10" = 0;
"11" = 0;
"2" = 0;
"3" = 0;
"4" = 0;
"5" = 0;
"6" = 0;
"7" = 0;
"8" = 0;
"9" = 0;
};
};
width = 800;
},
{
associatedMasterId = "E311F2CF-05EC-45EB-99C0-CA1AFFE6A9D5";
layerId = "BC0055CB-3042-4039-919A-26F597342701";
name = "9 de oct. de 23, 8:49";
shapes = (
{
closed = 1;
nodes = (
(265,0,l),
(265,16,l),
(168,50,l),
(168,416,l),
(313,416,l),
(381,403,l),
(381,50,l),
(306,16,l),
(306,0,l),
(519,0,l),
(519,16,l),
(447,50,l),
(447,374,l),
(487,394,o),
(528,403,o),
(563,403,cs),
(619,403,o),
(660,363,o),
(660,314,cs),
(660,-17,ls),
(660,-162,o),
(621,-200,o),
(581,-206,c),
(531,-159,l),
(507,-159,l),
(495,-228,l),
(506,-231,o),
(531,-234,o),
(538,-234,cs),
(676,-234,o),
(726,-125,o),
(726,-3,cs),
(726,346,ls),
(726,425,o),
(663,460,o),
(592,460,cs),
(548,460,o),
(500,431,o),
(447,401,c),
(447,460,l),
(416,460,l),
(308,450,l),
(168,450,l),
(168,493,ls),
(168,620,o),
(201,668,o),
(255,668,c),
(326,617,l),
(347,617,l),
(358,691,l),
(339,697,o),
(315,700,o),
(292,700,cs),
(205,700,o),
(102,641,o),
(102,472,cs),
(102,450,l),
(41,450,l),
(41,416,l),
(102,416,l),
(102,50,l),
(27,16,l),
(27,0,l)
);
}
);
width = 739;
},
{
associatedMasterId = m001;
layerId = "F082EEE5-8FCD-43CC-B898-78328C5D777E";
name = "9 de oct. de 23, 8:49";
shapes = (
{
closed = 1;
nodes = (
(310,0,l),
(310,27,l),
(243,64,l),
(243,400,l),
(341,400,l),
(400,357,l),
(400,64,l),
(352,27,l),
(352,0,l),
(605,0,l),
(605,27,l),
(573,64,l),
(573,371,l),
(581,375,o),
(595,378,o),
(609,378,cs),
(643,378,o),
(679,363,o),
(679,287,cs),
(679,-116,ls),
(679,-136,o),
(680,-163,o),
(668,-163,c),
(591,-103,l),
(569,-103,l),
(552,-210,l),
(577,-218,o),
(588,-221,o),
(643,-221,cs),
(729,-221,o),
(852,-167,o),
(852,-35,cs),
(852,355,ls),
(852,422,o),
(810,469,o),
(737,469,cs),
(713,469,o),
(650,465,o),
(573,411,c),
(573,469,l),
(522,469,l),
(404,450,l),
(243,450,l),
(243,619,ls),
(243,657,o),
(252,659,o),
(264,659,c),
(331,603,l),
(356,603,l),
(374,705,l),
(355,711,o),
(320,714,o),
(297,714,cs),
(146,714,o),
(70,611,o),
(70,513,cs),
(70,450,l),
(9,450,l),
(9,400,l),
(70,400,l),
(70,64,l),
(22,27,l),
(22,0,l)
);
}
);
width = 868;
}
);
metricLeft = f;
metricRight = eng;
unicode = 681;
},
{
color = 4;
glyphname = g;
kernLeft = KO_g;
kernRight = KO_g;
lastChange = "2024-02-12 15:02:33 +0000";
layers = (
{
anchors = (
{
name = bottom;
pos = (270,-100);
},
{
name = top;
pos = (291,450);
}
);
layerId = m001;
shapes = (
{
closed = 1;
nodes = (
(339,-236,o),
(488,-128,o),
(488,-21,cs),
(488,68,o),
(429,114,o),
(353,116,cs),
(188,120,ls),
(154,121,o),
(141,126,o),
(141,137,cs),
(141,145,o),
(147,153,o),
(159,159,c),
(177,157,o),
(198,156,o),
(220,156,cs),
(359,156,o),
(446,217,o),
(446,325,cs),
(446,352,o),
(442,374,o),
(434,393,c),
(501,353,l),
(529,353,l),
(549,470,l),
(410,430,l),
(381,456,o),
(330,470,o),
(253,470,cs),
(107,470,o),
(20,409,o),
(20,303,cs),
(20,230,o),
(48,185,o),
(119,167,c),
(66,134,o),
(40,109,o),
(40,62,cs),
(40,26,o),
(58,-6,o),
(98,-26,c),
(40,-47,o),
(1,-89,o),
(1,-135,cs),
(1,-190,o),
(54,-236,o),
(187,-236,cs)
);
},
{
closed = 1;
nodes = (
(152,-131,o),
(107,-105,o),
(107,-74,cs),
(107,-61,o),
(119,-45,o),
(140,-41,c),
(157,-45,o),
(176,-46,o),
(197,-47,cs),
(249,-49,o),
(300,-50,o),
(352,-52,cs),
(395,-53,o),
(404,-64,o),
(404,-82,cs),
(404,-129,o),
(332,-131,o),
(259,-131,cs)
);
},
{
closed = 1;
nodes = (
(210,219,o),
(173,253,o),
(173,321,cs),
(173,400,o),
(182,420,o),
(227,420,cs),
(255,420,o),
(292,384,o),
(292,317,cs),
(292,236,o),
(280,219,o),
(235,219,cs)
);
}
);
userData = {
com.hugojourdan.ColorFlow = {
"0" = 0;
"1" = 0;
"10" = 0;
"11" = 0;
"2" = 0;
"3" = 0;
"4" = 0;
"5" = 0;
"6" = 0;
"7" = 0;
"8" = 0;
"9" = 0;
};
};
width = 500;
},
{
anchors = (
{
name = bottom;
pos = (224,-100);
},
{
name = top;
pos = (197,450);
}
);
layerId = "E311F2CF-05EC-45EB-99C0-CA1AFFE6A9D5";
shapes = (
{
closed = 1;
nodes = (
(292,-199,o),
(399,-96,o),
(399,-21,cs),
(399,25,o),
(382,46,o),
(281,69,cs),
(237,79,ls),
(174,93,o),
(155,99,o),
(155,121,cs),
(155,132,o),
(164,149,o),
(179,177,c),
(181,177,o),
(183,177,o),
(185,177,cs),
(270,177,o),
(361,233,o),
(361,316,cs),
(361,360,o),
(342,401,o),
(307,427,c),
(401,401,l),
(418,401,l),
(432,481,l),
(292,437,l),
(268,451,o),
(238,459,o),
(202,459,cs),
(128,459,o),
(36,404,o),
(36,308,cs),
(36,232,o),
(95,191,o),
(154,180,c),
(103,131,o),
(91,116,o),
(91,102,cs),
(91,72,o),
(106,55,o),
(166,40,c),
(46,-31,o),
(15,-67,o),
(15,-108,cs),
(15,-158,o),
(65,-199,o),
(162,-199,cs)
);
},
{
closed = 1;
nodes = (
(122,-156,o),
(86,-121,o),
(86,-84,cs),
(86,-45,o),
(132,-9,o),
(191,33,c),
(200,31,o),
(210,28,o),
(219,26,cs),
(245,19,o),
(281,10,o),
(294,4,cs),
(325,-10,o),
(340,-30,o),
(340,-55,cs),
(340,-104,o),
(291,-156,o),
(202,-156,cs)
);
},
{
closed = 1;
nodes = (
(148,205,o),
(104,244,o),
(104,330,cs),
(104,409,o),
(134,429,o),
(181,429,cs),
(250,429,o),
(292,387,o),
(292,301,cs),
(292,222,o),
(261,205,o),
(216,205,cs)
);
}
);
userData = {
com.hugojourdan.ColorFlow = {
"0" = 0;
"1" = 0;
"10" = 0;
"11" = 0;
"2" = 0;
"3" = 0;
"4" = 0;
"5" = 0;
"6" = 0;
"7" = 0;
"8" = 0;
"9" = 0;
};
};
width = 438;
},
{
anchors = (
{
name = bottom;
pos = (224,-100);
},
{
name = top;
pos = (197,450);
}
);
associatedMasterId = "E311F2CF-05EC-45EB-99C0-CA1AFFE6A9D5";
layerId = "202FD9C1-5A1D-4F79-9F65-A1C950F19436";
name = "3 de oct. de 23, 10:12";
shapes = (
{
closed = 1;
nodes = (
(292,-199,o),
(399,-96,o),
(399,-21,cs),
(399,25,o),
(382,46,o),
(281,69,cs),
(237,79,ls),
(174,93,o),
(155,99,o),
(155,121,cs),
(155,132,o),
(164,149,o),
(179,177,c),
(181,177,o),
(183,177,o),
(185,177,cs),
(270,177,o),
(361,233,o),
(361,316,cs),
(361,360,o),
(342,401,o),
(307,427,c),
(406,401,l),
(423,401,l),
(432,481,l),
(292,437,l),
(268,451,o),
(238,459,o),
(202,459,cs),
(128,459,o),
(36,404,o),
(36,308,cs),
(36,232,o),
(95,191,o),
(154,180,c),
(103,131,o),
(91,116,o),
(91,102,cs),
(91,72,o),
(106,55,o),
(166,40,c),
(46,-31,o),
(15,-67,o),
(15,-108,cs),
(15,-158,o),
(65,-199,o),
(162,-199,cs)
);
},
{
closed = 1;
nodes = (
(122,-156,o),
(86,-121,o),
(86,-84,cs),
(86,-45,o),
(132,-9,o),
(191,33,c),
(200,31,o),
(210,28,o),
(219,26,cs),
(245,19,o),
(281,10,o),
(294,4,cs),
(325,-10,o),
(340,-30,o),
(340,-55,cs),
(340,-104,o),
(291,-156,o),
(202,-156,cs)
);
},
{
closed = 1;
nodes = (
(148,205,o),
(104,244,o),
(104,330,cs),
(104,409,o),
(134,429,o),
(181,429,cs),
(250,429,o),
(292,387,o),
(292,301,cs),
(292,222,o),
(261,205,o),
(216,205,cs)
);
}
);
width = 438;
},
{
anchors = (
{
name = bottom;
pos = (270,-100);
},
{
name = top;
pos = (291,450);
}
);
associatedMasterId = m001;
layerId = "95923CA4-9201-4F8E-B767-DB6D1554975C";
name = "3 de oct. de 23, 10:12";
shapes = (
{
closed = 1;
nodes = (
(339,-236,o),
(488,-128,o),
(488,-21,cs),
(488,68,o),
(429,114,o),
(353,116,cs),
(188,120,ls),
(154,121,o),
(141,126,o),
(141,137,cs),
(141,145,o),
(147,153,o),
(159,159,c),
(177,157,o),
(198,156,o),
(220,156,cs),
(359,156,o),
(446,217,o),
(446,325,cs),
(446,352,o),
(442,374,o),
(434,393,c),
(505,353,l),
(533,353,l),
(549,470,l),
(410,430,l),
(381,456,o),
(330,470,o),
(253,470,cs),
(107,470,o),
(20,409,o),
(20,303,cs),
(20,230,o),
(48,185,o),
(119,167,c),
(66,134,o),
(40,109,o),
(40,62,cs),
(40,26,o),
(58,-6,o),
(98,-26,c),
(40,-47,o),
(1,-89,o),
(1,-135,cs),
(1,-190,o),
(54,-236,o),
(187,-236,cs)
);
},
{
closed = 1;
nodes = (
(152,-131,o),
(107,-105,o),
(107,-74,cs),
(107,-61,o),
(119,-45,o),
(140,-41,c),
(157,-45,o),
(176,-46,o),
(197,-47,cs),
(249,-49,o),
(300,-50,o),
(352,-52,cs),
(395,-53,o),
(404,-64,o),
(404,-82,cs),
(404,-129,o),
(332,-131,o),
(259,-131,cs)
);
},
{
closed = 1;
nodes = (
(210,219,o),
(173,253,o),
(173,321,cs),
(173,400,o),
(182,420,o),
(227,420,cs),
(255,420,o),
(292,384,o),
(292,317,cs),
(292,236,o),
(280,219,o),
(235,219,cs)
);
}
);
width = 500;
}
);
unicode = 103;
},
{
color = 3;
glyphname = "gamma-latin";
lastChange = "2024-02-13 17:39:07 +0000";
layers = (
{
layerId = m001;
shapes = (
{
closed = 1;
nodes = (
(343,-223,o),
(405,-170,o),
(405,-104,cs),
(405,-52,o),
(379,3,o),
(355,60,c),
(486,388,l),
(530,423,l),
(530,450,l),
(346,450,l),
(346,423,l),
(410,388,l),
(318,137,l),
(234,388,l),
(312,423,l),
(312,450,l),
(0,450,l),
(-1,424,l),
(39,388,l),
(195,-10,l),
(160,-68,o),
(148,-99,o),
(148,-137,cs),
(148,-187,o),
(186,-223,o),
(256,-223,cs)
);
},
{
closed = 1;
nodes = (
(227,-182,o),
(216,-167,o),
(216,-140,cs),
(216,-120,o),
(229,-93,o),
(241,-68,c),
(255,-96,o),
(268,-121,o),
(268,-144,cs),
(268,-164,o),
(261,-182,o),
(245,-182,cs)
);
}
);
userData = {
com.hugojourdan.ColorFlow = {
"0" = 0;
"1" = 0;
"10" = 0;
"11" = 0;
"2" = 0;
"3" = 0;
"4" = 0;
"5" = 0;
"6" = 0;
"7" = 0;
"8" = 0;
"9" = 0;
};
};
width = 518;
},
{
layerId = "E311F2CF-05EC-45EB-99C0-CA1AFFE6A9D5";
shapes = (
{
closed = 1;
nodes = (
(276,-220,o),
(322,-177,o),
(322,-120,cs),
(322,-55,o),
(307,-18,o),
(272,60,c),
(422,398,l),
(480,433,l),
(480,450,l),
(322,450,l),
(322,433,l),
(373,398,l),
(256,89,l),
(130,398,l),
(191,433,l),
(191,450,l),
(8,450,l),
(8,433,l),
(53,399,l),
(210,20,l),
(192,-28,o),
(161,-78,o),
(161,-132,cs),
(161,-179,o),
(188,-220,o),
(231,-220,cs)
);
},
{
closed = 1;
nodes = (
(212,-188,o),
(200,-164,o),
(200,-131,cs),
(200,-89,o),
(211,-58,o),
(224,-18,c),
(246,-72,o),
(260,-108,o),
(260,-137,cs),
(260,-159,o),
(253,-188,o),
(231,-188,cs)
);
}
);
userData = {
com.hugojourdan.ColorFlow = {
"0" = 0;
"1" = 0;
"10" = 0;
"11" = 0;
"2" = 0;
"3" = 0;
"4" = 0;
"5" = 0;
"6" = 0;
"7" = 0;
"8" = 0;
"9" = 0;
};
};
width = 479;
},
{
associatedMasterId = "E311F2CF-05EC-45EB-99C0-CA1AFFE6A9D5";
layerId = "F1FE2118-527F-4815-BAE1-42B7D1CCF654";
name = "5 de sep. de 23, 11:29";
shapes = (
{
closed = 1;
nodes = (
(262,14,l),
(424,397,l),
(483,434,l),
(483,450,l),
(325,450,l),
(325,434,l),
(376,397,l),
(264,89,l),
(132,397,l),
(194,434,l),
(194,450,l),
(8,450,l),
(8,434,l),
(56,399,l),
(229,-10,l)
);
}
);
width = 513;
},
{
associatedMasterId = m001;
layerId = "FEA7D12D-478A-4F36-804D-D65FCAE08466";
name = "5 de sep. de 23, 11:37";
shapes = (
{
closed = 1;
nodes = (
(342,5,l),
(486,390,l),
(529,423,l),
(529,450,l),
(346,450,l),
(346,423,l),
(410,388,l),
(325,137,l),
(233,388,l),
(311,423,l),
(311,450,l),
(-1,450,l),
(-1,423,l),
(39,388,l),
(197,-19,l)
);
},
{
closed = 1;
nodes = (
(268,-193,l),
(392,137,l),
(325,137,l),
(201,-193,l)
);
}
);
visible = 1;
width = 517;
},
{
associatedMasterId = m001;
layerId = "58621CAF-3038-4C31-AF2C-89B198757F69";
name = "15 de dic. de 23, 10:17";
shapes = (
{
closed = 1;
nodes = (
(351,-223,o),
(453,-193,o),
(425,-90,cs),
(410,-34,o),
(379,50,o),
(368,72,c),
(486,388,l),
(530,423,l),
(530,450,l),
(346,450,l),
(346,423,l),
(410,388,l),
(326,137,l),
(234,388,l),
(312,423,l),
(312,450,l),
(0,450,l),
(-1,424,l),
(39,388,l),
(203,-10,l),
(194,-30,o),
(144,-106,o),
(145,-144,cs),
(146,-203,o),
(229,-223,o),
(289,-223,cs)
);
},
{
closed = 1;
nodes = (
(235,-182,o),
(224,-167,o),
(224,-140,cs),
(224,-120,o),
(237,-93,o),
(249,-68,c),
(263,-96,o),
(276,-121,o),
(276,-144,cs),
(276,-164,o),
(269,-182,o),
(253,-182,cs)
);
}
);
width = 518;
}
);
metricLeft = v;
metricRight = v;
unicode = 611;
},
{
color = 3;
glyphname = ghook;
lastChange = "2024-02-13 17:39:07 +0000";
layers = (
{
layerId = m001;
shapes = (
{
closed = 1;
nodes = (
(353,-235,o),
(501,-171,o),
(500,-1,cs),
(498,600,ls),
(498,620,o),
(497,647,o),
(519,647,c),
(585,587,l),
(607,587,l),
(625,694,l),
(600,702,o),
(589,705,o),
(534,705,cs),
(448,705,o),
(325,651,o),
(325,519,cs),
(325,457,l),
(300,464,o),
(280,469,o),
(262,469,cs),
(152,469,o),
(12,378,o),
(12,181,cs),
(12,56,o),
(65,-19,o),
(170,-19,cs),
(243,-19,o),
(274,4,o),
(327,46,c),
(327,-31,ls),
(327,-179,o),
(220,-169,o),
(157,-164,c),
(92,-84,l),
(60,-84,l),
(40,-202,l),
(89,-218,o),
(147,-235,o),
(235,-235,cs)
);
},
{
closed = 1;
nodes = (
(204,72,o),
(195,134,o),
(195,246,cs),
(195,373,o),
(223,397,o),
(249,397,cs),
(269,397,o),
(311,382,o),
(326,367,c),
(327,90,l),
(286,72,o),
(284,72,o),
(260,72,cs)
);
}
);
userData = {
com.hugojourdan.ColorFlow = {
"0" = 0;
"1" = 0;
"10" = 0;
"11" = 0;
"2" = 0;
"3" = 0;
"4" = 0;
"5" = 0;
"6" = 0;
"7" = 0;
"8" = 0;
"9" = 0;
};
};
width = 541;
},
{
layerId = "E311F2CF-05EC-45EB-99C0-CA1AFFE6A9D5";
shapes = (
{
closed = 1;
nodes = (
(326,-235,o),
(437,-173,o),
(436,-4,cs),
(434,517,l),
(434,627,o),
(453,674,o),
(503,674,c),
(559,624,l),
(581,624,l),
(593,694,l),
(574,700,o),
(548,703,o),
(525,703,cs),
(439,703,o),
(368,635,o),
(368,480,cs),
(368,452,l),
(349,457,o),
(324,460,o),
(299,460,cs),
(173,460,o),
(53,362,o),
(53,211,cs),
(53,56,o),
(145,-10,o),
(229,-10,cs),
(260,-10,o),
(316,12,o),
(370,46,c),
(370,-24,ls),
(370,-216,o),
(216,-223,o),
(171,-205,c),
(126,-122,l),
(95,-122,l),
(80,-211,l),
(91,-214,o),
(145,-235,o),
(209,-235,cs)
);
},
{
closed = 1;
nodes = (
(195,47,o),
(115,99,o),
(115,243,cs),
(115,362,o),
(170,408,o),
(260,408,cs),
(303,408,o),
(344,401,o),
(370,389,c),
(370,73,l),
(344,60,o),
(295,47,o),
(269,47,cs)
);
}
);
userData = {
com.hugojourdan.ColorFlow = {
"0" = 0;
"1" = 0;
"10" = 0;
"11" = 0;
"2" = 0;
"3" = 0;
"4" = 0;
"5" = 0;
"6" = 0;
"7" = 0;
"8" = 0;
"9" = 0;
};
};
width = 522;
},
{
associatedMasterId = m001;
layerId = "BB031497-1CB3-473A-AF92-DF9DA6DA5F55";
name = "4 de sep. de 23, 11:47";
shapes = (
{
closed = 1;
nodes = (
(242,-19,o),
(273,3,o),
(325,44,c),
(325,-19,l),
(356,-19,l),
(557,14,l),
(557,45,l),
(498,65,l),
(498,600,ls),
(498,620,o),
(497,647,o),
(509,647,c),
(586,587,l),
(608,587,l),
(625,694,l),
(600,702,o),
(589,705,o),
(534,705,cs),
(448,705,o),
(325,651,o),
(325,519,cs),
(325,465,l),
(303,468,o),
(282,469,o),
(262,469,cs),
(152,469,o),
(12,378,o),
(12,181,cs),
(12,56,o),
(65,-19,o),
(170,-19,cs)
);
}
);
width = 600;
}
);
metricLeft = d;
metricRight = esh;
unicode = 608;
},
{
color = 3;
glyphname = glottalstop;
lastChange = "2024-02-13 17:39:07 +0000";
layers = (
{
layerId = m001;
shapes = (
{
closed = 1;
nodes = (
(124,64,l),
(67,27,l),
(67,0,l),
(368,0,l),
(368,27,l),
(302,64,l),
(302,264,l),
(342,292,o),
(471,369,o),
(471,477,cs),
(471,565,o),
(379,631,o),
(275,631,cs),
(218,631,o),
(132,605,o),
(36,564,c),
(12,438,l),
(90,438,l),
(186,565,l),
(200,566,o),
(205,565,o),
(214,565,cs),
(250,565,o),
(298,542,o),
(298,457,cs),
(298,346,o),
(176,273,o),
(124,224,c)
);
}
);
userData = {
com.hugojourdan.ColorFlow = {
"0" = 0;
"1" = 0;
"10" = 0;
"11" = 0;
"2" = 0;
"3" = 0;
"4" = 0;
"5" = 0;
"6" = 0;
"7" = 0;
"8" = 0;
"9" = 0;
};
};
width = 483;
},
{
layerId = "E311F2CF-05EC-45EB-99C0-CA1AFFE6A9D5";
shapes = (
{
closed = 1;
nodes = (
(139,50,l),
(64,16,l),
(64,0,l),
(277,0,l),
(277,16,l),
(205,50,l),
(205,256,l),
(247,284,o),
(354,342,o),
(354,486,cs),
(354,565,o),
(290,622,o),
(186,622,cs),
(136,622,o),
(103,604,o),
(41,577,c),
(18,438,l),
(36,438,l),
(112,565,l),
(118,569,o),
(134,570,o),
(147,570,cs),
(222,570,o),
(276,523,o),
(276,457,cs),
(276,330,o),
(170,275,o),
(139,247,c)
);
}
);
userData = {
com.hugojourdan.ColorFlow = {
"0" = 0;
"1" = 0;
"10" = 0;
"11" = 0;
"2" = 0;
"3" = 0;
"4" = 0;
"5" = 0;
"6" = 0;
"7" = 0;
"8" = 0;
"9" = 0;
};
};
width = 372;
},
{
associatedMasterId = "E311F2CF-05EC-45EB-99C0-CA1AFFE6A9D5";
layerId = "BB899052-4230-4771-8EB5-44812D04B31D";
name = "9 de oct. de 23, 8:51";
shapes = (
{
closed = 1;
nodes = (
(164,50,l),
(89,16,l),
(89,0,l),
(302,0,l),
(302,16,l),
(230,50,l),
(230,256,l),
(272,284,o),
(379,342,o),
(379,486,cs),
(379,565,o),
(315,622,o),
(211,622,cs),
(175,622,o),
(156,609,o),
(65,577,c),
(45,438,l),
(63,438,l),
(137,565,l),
(143,569,o),
(159,570,o),
(172,570,cs),
(247,570,o),
(301,523,o),
(301,457,cs),
(301,330,o),
(195,275,o),
(164,247,c)
);
}
);
width = 398;
},
{
associatedMasterId = "E311F2CF-05EC-45EB-99C0-CA1AFFE6A9D5";
layerId = "9DEA68E0-6E4F-4567-B8E1-29DFFC8989E3";
name = "6 de sep. de 23, 8:39";
shapes = (
{
closed = 1;
nodes = (
(72,0,l),
(298,0,l),
(298,18,l),
(228,53,l),
(228,152,l),
(240,152,l),
(338,144,l),
(348,194,l),
(240,189,l),
(228,189,l),
(228,266,l),
(318,326,o),
(386,388,o),
(386,479,cs),
(386,560,o),
(310,624,o),
(208,624,cs),
(169,624,o),
(121,606,o),
(31,572,c),
(10,436,l),
(38,436,l),
(116,563,l),
(129,566,o),
(147,569,o),
(166,569,cs),
(233,569,o),
(293,522,o),
(293,452,cs),
(293,363,o),
(234,321,o),
(142,256,c),
(142,189,l),
(46,189,l),
(46,152,l),
(142,152,l),
(142,53,l),
(72,18,l)
);
}
);
width = 401;
},
{
associatedMasterId = m001;
layerId = "DC00A343-28E6-4615-AD02-2EA80238566F";
name = "9 de oct. de 23, 8:51";
shapes = (
{
closed = 1;
nodes = (
(70,64,l),
(22,27,l),
(22,0,l),
(292,0,l),
(292,27,l),
(233,64,l),
(233,264,l),
(269,292,o),
(385,369,o),
(385,477,cs),
(385,565,o),
(302,631,o),
(209,631,cs),
(157,631,o),
(76,604,o),
(-10,563,c),
(-27,438,l),
(43,438,l),
(129,565,l),
(141,566,o),
(146,565,o),
(154,565,cs),
(186,565,o),
(229,542,o),
(229,457,cs),
(229,346,o),
(117,273,o),
(70,224,c)
);
}
);
width = 396;
}
);
unicode = 660;
},
{
color = 3;
glyphname = glottalstopreversed;
lastChange = "2024-02-13 17:39:07 +0000";
layers = (
{
layerId = m001;
shapes = (
{
closed = 1;
nodes = (
(176,64,l),
(111,27,l),
(111,0,l),
(407,0,l),
(407,27,l),
(354,64,l),
(354,294,l),
(277,343,o),
(170,390,o),
(170,502,cs),
(170,524,o),
(179,565,o),
(241,565,cs),
(269,565,o),
(306,561,o),
(333,553,c),
(404,447,l),
(438,447,l),
(466,604,l),
(412,624,o),
(329,631,o),
(260,631,cs),
(140,631,o),
(12,565,o),
(12,457,cs),
(12,372,o),
(78,284,o),
(176,224,c)
);
}
);
userData = {
com.hugojourdan.ColorFlow = {
"0" = 0;
"1" = 0;
"10" = 0;
"11" = 0;
"2" = 0;
"3" = 0;
"4" = 0;
"5" = 0;
"6" = 0;
"7" = 0;
"8" = 0;
"9" = 0;
};
};
width = 478;
},
{
layerId = "E311F2CF-05EC-45EB-99C0-CA1AFFE6A9D5";
shapes = (
{
closed = 1;
nodes = (
(164,50,l),
(89,16,l),
(89,0,l),
(302,0,l),
(302,16,l),
(230,50,l),
(230,253,l),
(174,293,o),
(93,360,o),
(93,464,cs),
(93,549,o),
(121,570,o),
(159,570,cs),
(218,570,o),
(259,558,o),
(275,547,c),
(316,438,l),
(331,438,l),
(357,594,l),
(342,604,o),
(271,622,o),
(214,622,cs),
(96,622,o),
(18,547,o),
(18,445,cs),
(18,350,o),
(107,254,o),
(164,226,c)
);
}
);
userData = {
com.hugojourdan.ColorFlow = {
"0" = 0;
"1" = 0;
"10" = 0;
"11" = 0;
"2" = 0;
"3" = 0;
"4" = 0;
"5" = 0;
"6" = 0;
"7" = 0;
"8" = 0;
"9" = 0;
};
};
width = 375;
},
{
associatedMasterId = "E311F2CF-05EC-45EB-99C0-CA1AFFE6A9D5";
layerId = "C327F2C8-35F6-4926-86E5-EABFD86A87CD";
name = "6 de sep. de 23, 8:46";
shapes = (
{
closed = 1;
nodes = (
(99,0,l),
(325,0,l),
(325,18,l),
(255,53,l),
(255,152,l),
(352,144,l),
(362,194,l),
(255,189,l),
(255,268,l),
(163,333,o),
(97,384,o),
(97,467,cs),
(97,543,o),
(126,580,o),
(197,580,cs),
(236,580,o),
(280,570,o),
(302,559,c),
(336,445,l),
(362,445,l),
(388,595,l),
(345,613,o),
(298,624,o),
(245,624,cs),
(102,624,o),
(11,557,o),
(11,436,cs),
(11,345,o),
(79,292,o),
(169,232,c),
(169,189,l),
(60,189,l),
(60,152,l),
(169,152,l),
(169,53,l),
(99,18,l)
);
}
);
width = 406;
},
{
associatedMasterId = "E311F2CF-05EC-45EB-99C0-CA1AFFE6A9D5";
layerId = "A780A120-50D6-4046-9C8D-8D92CCEBE845";
name = "6 de sep. de 23, 9:06";
shapes = (
{
closed = 1;
nodes = (
(231,253,l),
(175,293,o),
(94,360,o),
(94,464,cs),
(94,549,o),
(122,570,o),
(160,570,c),
(215,622,l),
(97,622,o),
(19,547,o),
(19,445,cs),
(19,350,o),
(108,254,o),
(165,226,c)
);
},
{
closed = 1;
nodes = (
(303,0,l),
(303,16,l),
(231,50,l),
(231,253,l),
(165,226,l),
(165,50,l),
(90,16,l),
(90,0,l)
);
},
{
closed = 0;
nodes = (
(265,566,l),
(309,473,l),
(334,473,l),
(355,596,l),
(321,611,o),
(277,622,o),
(215,622,cs)
);
}
);
width = 375;
},
{
associatedMasterId = m001;
layerId = "7ADF6150-2748-40B2-9940-FE9A0B4172DE";
name = "6 de sep. de 23, 9:11";
shapes = (
{
closed = 1;
nodes = (
(326,294,l),
(255,343,o),
(167,380,o),
(167,457,cs),
(167,534,o),
(185,565,o),
(242,565,c),
(239,631,l),
(171,631,o),
(11,565,o),
(11,477,cs),
(11,369,o),
(61,292,o),
(163,224,c)
);
},
{
closed = 1;
nodes = (
(374,0,l),
(374,27,l),
(326,64,l),
(326,294,l),
(163,224,l),
(163,64,l),
(104,27,l),
(104,0,l)
);
},
{
closed = 0;
nodes = (
(196,567,ls),
(234,567,o),
(277,563,o),
(305,552,c),
(370,448,l),
(402,448,l),
(429,605,l),
(390,620,o),
(311,631,o),
(230,631,cs)
);
}
);
visible = 1;
width = 396;
}
);
unicode = 661;
},
{
color = 3;
glyphname = glottalstopstroke;
lastChange = "2024-02-13 17:39:07 +0000";
layers = (
{
layerId = m001;
shapes = (
{
ref = glottalstop;
},
{
closed = 1;
nodes = (
(380,112,l),
(381,169,l),
(59,169,l),
(59,112,l)
);
}
);
userData = {
com.hugojourdan.ColorFlow = {
"0" = 0;
"1" = 0;
"10" = 0;
"11" = 0;
"2" = 0;
"3" = 0;
"4" = 0;
"5" = 0;
"6" = 0;
"7" = 0;
"8" = 0;
"9" = 0;
};
};
width = 483;
},
{
layerId = "E311F2CF-05EC-45EB-99C0-CA1AFFE6A9D5";
shapes = (
{
ref = glottalstop;
},
{
closed = 1;
nodes = (
(273,135,l),
(274,170,l),
(68,170,l),
(68,135,l)
);
}
);
userData = {
com.hugojourdan.ColorFlow = {
"0" = 0;
"1" = 0;
"10" = 0;
"11" = 0;
"2" = 0;
"3" = 0;
"4" = 0;
"5" = 0;
"6" = 0;
"7" = 0;
"8" = 0;
"9" = 0;
};
};
width = 372;
}
);
unicode = 673;
},
{
color = 3;
glyphname = glottalstopstrokereversed;
lastChange = "2024-02-13 17:39:07 +0000";
layers = (
{
layerId = m001;
shapes = (
{
ref = glottalstopreversed;
},
{
closed = 1;
nodes = (
(429,112,l),
(429,169,l),
(107,169,l),
(107,112,l)
);
}
);
userData = {
com.hugojourdan.ColorFlow = {
"0" = 0;
"1" = 0;
"10" = 0;
"11" = 0;
"2" = 0;
"3" = 0;
"4" = 0;
"5" = 0;
"6" = 0;
"7" = 0;
"8" = 0;
"9" = 0;
};
};
width = 478;
},
{
layerId = "E311F2CF-05EC-45EB-99C0-CA1AFFE6A9D5";
shapes = (
{
ref = glottalstopreversed;
},
{
closed = 1;
nodes = (
(301,135,l),
(302,170,l),
(96,170,l),
(96,135,l)
);
}
);
userData = {
com.hugojourdan.ColorFlow = {
"0" = 0;
"1" = 0;
"10" = 0;
"11" = 0;
"2" = 0;
"3" = 0;
"4" = 0;
"5" = 0;
"6" = 0;
"7" = 0;
"8" = 0;
"9" = 0;
};
};
width = 375;
}
);
unicode = 674;
},
{
color = 3;
glyphname = gsingle;
lastChange = "2024-02-13 17:39:07 +0000";
layers = (
{
layerId = m001;
shapes = (
{
closed = 1;
nodes = (
(353,-235,o),
(500,-171,o),
(500,-1,cs),
(500,493,l),
(467,498,l),
(411,448,l),
(369,461,o),
(310,469,o),
(262,469,cs),
(152,469,o),
(12,378,o),
(12,181,cs),
(12,56,o),
(65,-19,o),
(170,-19,cs),
(243,-19,o),
(274,4,o),
(327,46,c),
(327,-31,ls),
(327,-179,o),
(220,-169,o),
(157,-164,c),
(92,-84,l),
(60,-84,l),
(40,-202,l),
(89,-218,o),
(147,-235,o),
(235,-235,cs)
);
},
{
closed = 1;
nodes = (
(204,72,o),
(195,134,o),
(195,246,cs),
(195,373,o),
(223,397,o),
(249,397,cs),
(269,397,o),
(311,382,o),
(326,367,c),
(327,90,l),
(286,72,o),
(284,72,o),
(260,72,cs)
);
}
);
userData = {
com.hugojourdan.ColorFlow = {
"0" = 0;
"1" = 0;
"10" = 0;
"11" = 0;
"2" = 0;
"3" = 0;
"4" = 0;
"5" = 0;
"6" = 0;
"7" = 0;
"8" = 0;
"9" = 0;
};
};
width = 548;
},
{
layerId = "E311F2CF-05EC-45EB-99C0-CA1AFFE6A9D5";
shapes = (
{
closed = 1;
nodes = (
(326,-235,o),
(436,-173,o),
(436,-4,cs),
(436,468,l),
(421,477,l),
(390,445,l),
(372,453,o),
(335,460,o),
(299,460,cs),
(173,460,o),
(53,362,o),
(53,211,cs),
(53,56,o),
(145,-10,o),
(229,-10,cs),
(260,-10,o),
(316,12,o),
(370,46,c),
(370,-24,ls),
(370,-216,o),
(216,-223,o),
(171,-205,c),
(126,-122,l),
(95,-122,l),
(80,-211,l),
(91,-214,o),
(145,-235,o),
(209,-235,cs)
);
},
{
closed = 1;
nodes = (
(195,47,o),
(115,99,o),
(115,243,cs),
(115,362,o),
(170,408,o),
(260,408,cs),
(303,408,o),
(344,401,o),
(370,389,c),
(370,73,l),
(344,60,o),
(295,47,o),
(269,47,cs)
);
}
);
userData = {
com.hugojourdan.ColorFlow = {
"0" = 0;
"1" = 0;
"10" = 0;
"11" = 0;
"2" = 0;
"3" = 0;
"4" = 0;
"5" = 0;
"6" = 0;
"7" = 0;
"8" = 0;
"9" = 0;
};
};
width = 508;
},
{
associatedMasterId = "E311F2CF-05EC-45EB-99C0-CA1AFFE6A9D5";
layerId = "3DF364FF-2A96-4E98-A1D5-BC940CD2C016";
name = "4 de sep. de 23, 11:34";
shapes = (
{
closed = 1;
nodes = (
(430,481,l),
(394,446,l),
(371,455,o),
(330,462,o),
(292,462,cs),
(169,462,o),
(45,365,o),
(45,205,cs),
(45,56,o),
(130,-12,o),
(218,-12,cs),
(257,-12,o),
(299,10,o),
(362,46,c),
(362,-53,ls),
(362,-143,o),
(312,-191,o),
(228,-191,cs),
(206,-191,o),
(191,-187,o),
(179,-181,c),
(126,-108,l),
(99,-108,l),
(79,-212,l),
(118,-227,o),
(163,-235,o),
(216,-235,cs),
(342,-235,o),
(448,-144,o),
(448,-12,cs),
(448,473,l)
);
},
{
closed = 1;
nodes = (
(296,406,o),
(338,397,o),
(362,385,c),
(362,76,l),
(334,63,o),
(293,52,o),
(267,52,cs),
(197,52,o),
(130,106,o),
(130,244,cs),
(130,364,o),
(180,406,o),
(258,406,cs)
);
}
);
width = 600;
}
);
metricLeft = q;
unicode = 609;
},
{
color = 4;
glyphname = h;
kernRight = KO_n;
lastChange = "2024-02-12 15:02:33 +0000";
layers = (
{
anchors = (
{
name = bottom;
pos = (281,-100);
},
{
name = top;
pos = (281,450);
}
);
layerId = m001;
shapes = (
{
closed = 1;
nodes = (
(265,0,l),
(265,27,l),
(239,64,l),
(239,371,l),
(247,375,o),
(261,378,o),
(275,378,cs),
(309,378,o),
(345,363,o),
(345,287,cs),
(345,64,l),
(326,27,l),
(326,0,l),
(566,0,l),
(566,27,l),
(518,64,l),
(518,355,ls),
(518,422,o),
(476,469,o),
(403,469,cs),
(379,469,o),
(316,465,o),
(239,411,c),
(239,549,l),
(253,693,l),
(222,693,l),
(-5,656,l),
(-5,622,l),
(66,604,l),
(66,64,l),
(18,27,l),
(18,0,l)
);
}
);
userData = {
com.hugojourdan.ColorFlow = {
"0" = 0;
"1" = 0;
"10" = 0;
"11" = 0;
"2" = 0;
"3" = 0;
"4" = 0;
"5" = 0;
"6" = 0;
"7" = 0;
"8" = 0;
"9" = 0;
};
};
width = 582;
},
{
anchors = (
{
name = bottom;
pos = (272,-100);
},
{
name = top;
pos = (272,450);
}
);
layerId = "E311F2CF-05EC-45EB-99C0-CA1AFFE6A9D5";
shapes = (
{
closed = 1;
nodes = (
(244,0,l),
(244,16,l),
(164,50,l),
(164,374,l),
(204,394,o),
(245,403,o),
(280,403,cs),
(336,403,o),
(377,363,o),
(377,314,cs),
(377,50,l),
(345,16,l),
(345,0,l),
(518,0,l),
(518,16,l),
(443,50,l),
(443,346,ls),
(443,425,o),
(380,460,o),
(309,460,cs),
(265,460,o),
(217,431,o),
(164,401,c),
(164,606,l),
(173,693,l),
(142,693,l),
(27,656,l),
(27,643,l),
(98,623,l),
(98,50,l),
(23,16,l),
(23,0,l)
);
}
);
userData = {
com.hugojourdan.ColorFlow = {
"0" = 0;
"1" = 0;
"10" = 0;
"11" = 0;
"2" = 0;
"3" = 0;
"4" = 0;
"5" = 0;
"6" = 0;
"7" = 0;
"8" = 0;
"9" = 0;
};
};
width = 531;
}
);
unicode = 104;
userData = {
KernOnName = h;
};
},
{
color = 4;
glyphname = hbar;
lastChange = "2024-02-12 15:02:33 +0000";
layers = (
{
layerId = m001;
shapes = (
{
closed = 1;
nodes = (
(324,492,l),
(324,560,l),
(-2,560,l),
(-2,492,l)
);
},
{
ref = h;
}
);
userData = {
com.hugojourdan.ColorFlow = {
"0" = 0;
"1" = 0;
"10" = 0;
"11" = 0;
"2" = 0;
"3" = 0;
"4" = 0;
"5" = 0;
"6" = 0;
"7" = 0;
"8" = 0;
"9" = 0;
};
};
width = 582;
},
{
layerId = "E311F2CF-05EC-45EB-99C0-CA1AFFE6A9D5";
shapes = (
{
closed = 1;
nodes = (
(265,524,l),
(265,560,l),
(25,560,l),
(25,524,l)
);
},
{
ref = h;
}
);
userData = {
com.hugojourdan.ColorFlow = {
"0" = 0;
"1" = 0;
"10" = 0;
"11" = 0;
"2" = 0;
"3" = 0;
"4" = 0;
"5" = 0;
"6" = 0;
"7" = 0;
"8" = 0;
"9" = 0;
};
};
width = 531;
}
);
unicode = 295;
},
{
color = 3;
glyphname = henghook;
lastChange = "2024-02-13 17:39:07 +0000";
layers = (
{
layerId = m001;
shapes = (
{
closed = 1;
nodes = (
(256,0,l),
(256,27,l),
(230,64,l),
(230,371,l),
(238,375,o),
(252,378,o),
(266,378,cs),
(300,378,o),
(336,363,o),
(336,287,cs),
(336,-116,ls),
(336,-136,o),
(337,-163,o),
(325,-163,c),
(249,-103,l),
(227,-103,l),
(209,-210,l),
(234,-218,o),
(245,-221,o),
(300,-221,cs),
(384,-221,o),
(509,-168,o),
(509,-45,cs),
(509,355,ls),
(509,422,o),
(467,469,o),
(394,469,cs),
(370,469,o),
(307,465,o),
(230,411,c),
(230,600,ls),
(230,620,o),
(229,647,o),
(251,647,c),
(317,587,l),
(339,587,l),
(357,694,l),
(332,702,o),
(321,705,o),
(266,705,cs),
(180,705,o),
(57,651,o),
(57,519,cs),
(57,64,l),
(9,27,l),
(9,0,l)
);
}
);
userData = {
com.hugojourdan.ColorFlow = {
"0" = 0;
"1" = 0;
"10" = 0;
"11" = 0;
"2" = 0;
"3" = 0;
"4" = 0;
"5" = 0;
"6" = 0;
"7" = 0;
"8" = 0;
"9" = 0;
};
};
width = 558;
},
{
layerId = "E311F2CF-05EC-45EB-99C0-CA1AFFE6A9D5";
shapes = (
{
closed = 1;
nodes = (
(248,0,l),
(248,16,l),
(168,50,l),
(168,373,l),
(202,390,o),
(238,402,o),
(285,402,cs),
(325,402,o),
(381,376,o),
(381,313,cs),
(381,-17,ls),
(381,-162,o),
(342,-200,o),
(302,-206,c),
(252,-159,l),
(228,-159,l),
(216,-228,l),
(227,-231,o),
(252,-234,o),
(259,-234,cs),
(397,-234,o),
(447,-125,o),
(447,-3,cs),
(447,348,ls),
(447,424,o),
(386,460,o),
(315,460,cs),
(275,460,o),
(226,435,o),
(168,401,c),
(168,517,ls),
(168,627,o),
(187,674,o),
(237,674,c),
(293,624,l),
(315,624,l),
(327,694,l),
(308,700,o),
(282,703,o),
(259,703,cs),
(173,703,o),
(102,635,o),
(102,480,cs),
(102,50,l),
(27,16,l),
(27,0,l)
);
}
);
userData = {
com.hugojourdan.ColorFlow = {
"0" = 0;
"1" = 0;
"10" = 0;
"11" = 0;
"2" = 0;
"3" = 0;
"4" = 0;
"5" = 0;
"6" = 0;
"7" = 0;
"8" = 0;
"9" = 0;
};
};
width = 520;
},
{
associatedMasterId = "E311F2CF-05EC-45EB-99C0-CA1AFFE6A9D5";
layerId = "4B10E93E-A85C-4DD1-BBFD-73F62656C414";
name = "  ";
shapes = (
{
closed = 1;
nodes = (
(22,0,l),
(248,0,l),
(248,18,l),
(178,53,l),
(178,373,l),
(211,390,o),
(247,398,o),
(278,398,cs),
(330,398,o),
(370,363,o),
(370,309,cs),
(370,-49,ls),
(370,-159,o),
(361,-198,o),
(315,-198,c),
(255,-146,l),
(233,-146,l),
(221,-226,l),
(240,-232,o),
(266,-235,o),
(289,-235,cs),
(375,-235,o),
(456,-167,o),
(456,-12,cs),
(456,348,ls),
(456,424,o),
(397,462,o),
(326,462,cs),
(286,462,o),
(236,437,o),
(178,404,c),
(178,517,ls),
(178,627,o),
(187,666,o),
(233,666,c),
(293,614,l),
(315,614,l),
(327,694,l),
(308,700,o),
(282,703,o),
(259,703,cs),
(173,703,o),
(92,635,o),
(92,480,cs),
(92,53,l),
(22,18,l)
);
}
);
visible = 1;
width = 531;
}
);
metricLeft = f;
metricRight = eng;
unicode = 615;
},
{
color = 3;
glyphname = hhook;
lastChange = "2024-02-13 17:39:07 +0000";
layers = (
{
layerId = m001;
shapes = (
{
closed = 1;
nodes = (
(256,0,l),
(256,27,l),
(230,64,l),
(230,371,l),
(238,375,o),
(252,378,o),
(266,378,cs),
(300,378,o),
(336,363,o),
(336,287,cs),
(336,64,l),
(317,27,l),
(317,0,l),
(557,0,l),
(557,27,l),
(509,64,l),
(509,355,ls),
(509,422,o),
(467,469,o),
(394,469,cs),
(370,469,o),
(307,465,o),
(230,411,c),
(230,600,ls),
(230,620,o),
(229,647,o),
(251,647,c),
(317,587,l),
(339,587,l),
(357,694,l),
(332,702,o),
(321,705,o),
(266,705,cs),
(180,705,o),
(57,651,o),
(57,519,cs),
(57,64,l),
(9,27,l),
(9,0,l)
);
}
);
userData = {
com.hugojourdan.ColorFlow = {
"0" = 0;
"1" = 0;
"10" = 0;
"11" = 0;
"2" = 0;
"3" = 0;
"4" = 0;
"5" = 0;
"6" = 0;
"7" = 0;
"8" = 0;
"9" = 0;
};
};
width = 573;
},
{
layerId = "E311F2CF-05EC-45EB-99C0-CA1AFFE6A9D5";
shapes = (
{
closed = 1;
nodes = (
(248,0,l),
(248,16,l),
(168,50,l),
(168,373,l),
(202,390,o),
(238,402,o),
(285,402,cs),
(325,402,o),
(381,376,o),
(381,313,cs),
(381,50,l),
(349,16,l),
(349,0,l),
(522,0,l),
(522,16,l),
(447,50,l),
(447,348,ls),
(447,424,o),
(386,460,o),
(315,460,cs),
(275,460,o),
(226,435,o),
(168,401,c),
(168,517,ls),
(168,627,o),
(187,674,o),
(237,674,c),
(293,624,l),
(315,624,l),
(327,694,l),
(308,700,o),
(282,703,o),
(259,703,cs),
(173,703,o),
(102,635,o),
(102,480,cs),
(102,50,l),
(27,16,l),
(27,0,l)
);
}
);
userData = {
com.hugojourdan.ColorFlow = {
"0" = 0;
"1" = 0;
"10" = 0;
"11" = 0;
"2" = 0;
"3" = 0;
"4" = 0;
"5" = 0;
"6" = 0;
"7" = 0;
"8" = 0;
"9" = 0;
};
};
width = 535;
},
{
associatedMasterId = "E311F2CF-05EC-45EB-99C0-CA1AFFE6A9D5";
layerId = "E06FE17A-0854-42E5-B246-5FC82BDDBA77";
name = "4 de sep. de 23, 9:33";
shapes = (
{
closed = 1;
nodes = (
(244,0,l),
(244,16,l),
(164,50,l),
(164,374,l),
(204,394,o),
(245,403,o),
(280,403,cs),
(336,403,o),
(377,363,o),
(377,314,cs),
(377,50,l),
(345,16,l),
(345,0,l),
(518,0,l),
(518,16,l),
(443,50,l),
(443,346,ls),
(443,425,o),
(380,460,o),
(309,460,cs),
(265,460,o),
(217,431,o),
(164,401,c),
(98,50,l),
(23,16,l),
(23,0,l)
);
},
{
closed = 0;
nodes = (
(237,671,l),
(287,624,l),
(311,624,l),
(323,693,l),
(312,696,o),
(287,699,o),
(280,699,cs)
);
}
);
width = 531;
},
{
associatedMasterId = m001;
layerId = "826F3993-9616-442E-A5FE-9D6EE41B6C7E";
name = "4 de sep. de 23, 9:50";
shapes = (
{
closed = 1;
nodes = (
(265,0,l),
(265,27,l),
(239,64,l),
(239,371,l),
(247,375,o),
(261,378,o),
(275,378,cs),
(309,378,o),
(345,363,o),
(345,287,cs),
(345,64,l),
(326,27,l),
(326,0,l),
(566,0,l),
(566,27,l),
(518,64,l),
(518,355,ls),
(518,422,o),
(476,469,o),
(403,469,cs),
(379,469,o),
(316,465,o),
(239,411,c),
(239,549,l),
(66,549,l),
(66,64,l),
(18,27,l),
(18,0,l)
);
},
{
closed = 0;
nodes = (
(239,600,ls),
(239,620,o),
(240,652,o),
(250,647,c),
(327,587,l),
(349,587,l),
(366,694,l),
(341,702,o),
(330,705,o),
(275,705,cs),
(189,705,o),
(66,649,o),
(66,520,cs)
);
}
);
visible = 1;
width = 600;
}
);
metricLeft = f;
metricRight = h;
unicode = 614;
},
{
color = 11;
glyphname = hturnedfishhook;
lastChange = "2024-05-17 05:36:53 +0000";
layers = (
{
anchors = (
{
name = bottom;
pos = (364,0);
},
{
name = top;
pos = (364,550);
}
);
layerId = m001;
shapes = (
{
closed = 1;
nodes = (
(637,-220,l),
(637,-193,l),
(579,-161,l),
(579,386,l),
(627,423,l),
(627,450,l),
(380,450,l),
(380,423,l),
(406,386,l),
(406,79,l),
(398,75,o),
(384,72,o),
(370,72,cs),
(336,72,o),
(300,87,o),
(300,163,cs),
(300,268,ls),
(300,366,o),
(256,478,o),
(73,470,cs),
(50,469,o),
(32,467,o),
(19,465,c),
(0,358,l),
(39,358,l),
(55,372,o),
(72,379,o),
(94,379,cs),
(106,379,o),
(127,368,o),
(127,337,cs),
(127,95,ls),
(127,28,o),
(169,-19,o),
(242,-19,cs),
(266,-19,o),
(329,-15,o),
(406,39,c),
(406,-99,l),
(394,-220,l)
);
}
);
userData = {
com.hugojourdan.ColorFlow = {
"0" = 0;
"1" = 0;
"10" = 0;
"11" = 0;
"2" = 0;
"3" = 0;
"4" = 0;
"5" = 0;
"6" = 0;
"7" = 0;
"8" = 0;
"9" = 0;
};
};
width = 645;
},
{
anchors = (
{
name = bottom;
pos = (323,0);
},
{
name = top;
pos = (323,550);
}
);
layerId = "E311F2CF-05EC-45EB-99C0-CA1AFFE6A9D5";
shapes = (
{
closed = 1;
nodes = (
(593,-220,l),
(593,-204,l),
(497,-164,l),
(497,400,l),
(572,434,l),
(572,450,l),
(351,450,l),
(351,434,l),
(431,400,l),
(431,76,l),
(391,56,o),
(350,47,o),
(315,47,cs),
(259,47,o),
(218,87,o),
(218,136,cs),
(218,232,ls),
(218,396,o),
(191,462,o),
(63,462,cs),
(39,462,o),
(19,460,o),
(12,459,c),
(0,388,l),
(36,388,l),
(45,397,o),
(54,405,o),
(63,414,c),
(106,414,o),
(152,414,o),
(152,246,cs),
(152,104,ls),
(152,25,o),
(215,-10,o),
(286,-10,cs),
(330,-10,o),
(378,19,o),
(431,49,c),
(431,-156,l),
(424,-220,l)
);
}
);
userData = {
com.hugojourdan.ColorFlow = {
"0" = 0;
"1" = 0;
"10" = 0;
"11" = 0;
"2" = 0;
"3" = 0;
"4" = 0;
"5" = 0;
"6" = 0;
"7" = 0;
"8" = 0;
"9" = 0;
};
};
width = 595;
}
);
unicode = 686;
},
{
color = 11;
glyphname = hturnedfishhookandtail;
lastChange = "2024-05-17 05:36:53 +0000";
layers = (
{
anchors = (
{
name = bottom;
pos = (364,0);
},
{
name = top;
pos = (364,550);
}
);
layerId = m001;
shapes = (
{
closed = 1;
nodes = (
(670,-221,o),
(681,-218,o),
(706,-210,c),
(689,-103,l),
(667,-103,l),
(592,-159,l),
(580,-159,o),
(579,-136,o),
(579,-116,cs),
(579,386,l),
(627,423,l),
(627,450,l),
(380,450,l),
(380,423,l),
(406,386,l),
(406,79,l),
(398,75,o),
(384,72,o),
(370,72,cs),
(336,72,o),
(300,87,o),
(300,163,cs),
(300,268,ls),
(300,366,o),
(256,478,o),
(73,470,cs),
(50,469,o),
(32,467,o),
(19,465,c),
(0,358,l),
(39,358,l),
(55,372,o),
(72,379,o),
(94,379,cs),
(106,379,o),
(127,368,o),
(127,337,cs),
(127,95,ls),
(127,28,o),
(169,-19,o),
(242,-19,cs),
(266,-19,o),
(329,-15,o),
(406,39,c),
(406,-35,ls),
(404,-167,o),
(529,-221,o),
(615,-221,cs)
);
}
);
userData = {
com.hugojourdan.ColorFlow = {
"0" = 0;
"1" = 0;
"10" = 0;
"11" = 0;
"2" = 0;
"3" = 0;
"4" = 0;
"5" = 0;
"6" = 0;
"7" = 0;
"8" = 0;
"9" = 0;
};
};
width = 645;
},
{
anchors = (
{
name = bottom;
pos = (323,0);
},
{
name = top;
pos = (323,550);
}
);
layerId = "E311F2CF-05EC-45EB-99C0-CA1AFFE6A9D5";
shapes = (
{
closed = 1;
nodes = (
(626,-234,o),
(651,-231,o),
(662,-228,c),
(650,-159,l),
(626,-159,l),
(576,-206,l),
(536,-200,o),
(496,-162,o),
(497,-17,cs),
(497,400,l),
(572,434,l),
(572,450,l),
(351,450,l),
(351,434,l),
(431,400,l),
(431,76,l),
(391,56,o),
(350,47,o),
(315,47,cs),
(259,47,o),
(218,87,o),
(218,136,cs),
(218,232,ls),
(218,396,o),
(191,462,o),
(63,462,cs),
(39,462,o),
(19,460,o),
(12,459,c),
(0,388,l),
(36,388,l),
(45,397,o),
(54,405,o),
(63,414,c),
(106,414,o),
(152,414,o),
(152,246,cs),
(152,104,ls),
(152,25,o),
(215,-10,o),
(286,-10,cs),
(330,-10,o),
(378,19,o),
(431,49,c),
(431,-3,ls),
(431,-125,o),
(481,-234,o),
(619,-234,cs)
);
}
);
userData = {
com.hugojourdan.ColorFlow = {
"0" = 0;
"1" = 0;
"10" = 0;
"11" = 0;
"2" = 0;
"3" = 0;
"4" = 0;
"5" = 0;
"6" = 0;
"7" = 0;
"8" = 0;
"9" = 0;
};
};
width = 595;
}
);
unicode = 687;
},
{
color = 4;
glyphname = i;
kernLeft = KO_i;
kernRight = KO_i;
lastChange = "2024-02-12 15:02:33 +0000";
layers = (
{
anchors = (
{
name = bottom;
pos = (155,-100);
},
{
name = top;
pos = (155,450);
}
);
layerId = m001;
shapes = (
{
closed = 1;
nodes = (
(302,0,l),
(302,27,l),
(243,64,l),
(243,469,l),
(212,469,l),
(10,430,l),
(10,401,l),
(70,357,l),
(70,64,l),
(22,27,l),
(22,0,l)
);
},
{
closed = 1;
nodes = (
(197,498,o),
(266,557,o),
(266,592,cs),
(266,630,o),
(187,675,o),
(153,675,cs),
(117,675,o),
(51,614,o),
(51,579,cs),
(51,543,o),
(130,498,o),
(164,498,cs)
);
}
);
userData = {
com.hugojourdan.ColorFlow = {
"0" = 0;
"1" = 0;
"10" = 0;
"11" = 0;
"2" = 0;
"3" = 0;
"4" = 0;
"5" = 0;
"6" = 0;
"7" = 0;
"8" = 0;
"9" = 0;
};
};
width = 309;
},
{
anchors = (
{
name = bottom;
pos = (134,-100);
},
{
name = top;
pos = (134,450);
}
);
layerId = "E311F2CF-05EC-45EB-99C0-CA1AFFE6A9D5";
shapes = (
{
closed = 1;
nodes = (
(240,0,l),
(240,16,l),
(168,50,l),
(168,460,l),
(137,460,l),
(29,421,l),
(29,406,l),
(102,392,l),
(102,50,l),
(27,16,l),
(27,0,l)
);
},
{
closed = 1;
nodes = (
(151,551,o),
(181,582,o),
(181,601,cs),
(181,619,o),
(146,643,o),
(132,643,cs),
(117,643,o),
(88,611,o),
(88,593,cs),
(88,575,o),
(121,551,o),
(137,551,cs)
);
}
);
userData = {
com.hugojourdan.ColorFlow = {
"0" = 0;
"1" = 0;
"10" = 0;
"11" = 0;
"2" = 0;
"3" = 0;
"4" = 0;
"5" = 0;
"6" = 0;
"7" = 0;
"8" = 0;
"9" = 0;
};
};
width = 266;
}
);
unicode = 105;
userData = {
KernOnName = i;
};
},
{
color = 4;
glyphname = dotlessi;
kernLeft = KO_r;
lastChange = "2024-02-12 15:02:33 +0000";
layers = (
{
anchors = (
{
name = bottom;
pos = (155,-100);
},
{
name = top;
pos = (155,450);
}
);
layerId = m001;
shapes = (
{
closed = 1;
nodes = (
(302,0,l),
(302,27,l),
(243,64,l),
(243,471,l),
(212,471,l),
(10,430,l),
(10,401,l),
(70,357,l),
(70,64,l),
(22,27,l),
(22,0,l)
);
}
);
userData = {
com.hugojourdan.ColorFlow = {
"0" = 0;
"1" = 0;
"10" = 0;
"11" = 0;
"2" = 0;
"3" = 0;
"4" = 0;
"5" = 0;
"6" = 0;
"7" = 0;
"8" = 0;
"9" = 0;
};
};
width = 309;
},
{
anchors = (
{
name = bottom;
pos = (134,-100);
},
{
name = top;
pos = (134,450);
}
);
layerId = "E311F2CF-05EC-45EB-99C0-CA1AFFE6A9D5";
shapes = (
{
closed = 1;
nodes = (
(240,0,l),
(240,16,l),
(168,50,l),
(168,457,l),
(137,457,l),
(29,421,l),
(29,406,l),
(102,392,l),
(102,50,l),
(27,16,l),
(27,0,l)
);
}
);
userData = {
com.hugojourdan.ColorFlow = {
"0" = 0;
"1" = 0;
"10" = 0;
"11" = 0;
"2" = 0;
"3" = 0;
"4" = 0;
"5" = 0;
"6" = 0;
"7" = 0;
"8" = 0;
"9" = 0;
};
};
width = 266;
}
);
unicode = 305;
},
{
color = 3;
glyphname = istroke;
lastChange = "2024-02-13 17:39:30 +0000";
layers = (
{
layerId = m001;
shapes = (
{
ref = i;
},
{
closed = 1;
nodes = (
(301,200,l),
(301,250,l),
(9,250,l),
(9,200,l)
);
}
);
userData = {
com.hugojourdan.ColorFlow = {
"0" = 0;
"1" = 0;
"10" = 0;
"11" = 0;
"2" = 0;
"3" = 0;
"4" = 0;
"5" = 0;
"6" = 0;
"7" = 0;
"8" = 0;
"9" = 0;
};
};
width = 309;
},
{
layerId = "E311F2CF-05EC-45EB-99C0-CA1AFFE6A9D5";
shapes = (
{
ref = i;
},
{
closed = 1;
nodes = (
(246,212,l),
(247,247,l),
(26,247,l),
(26,212,l)
);
}
);
userData = {
com.hugojourdan.ColorFlow = {
"0" = 0;
"1" = 0;
"10" = 0;
"11" = 0;
"2" = 0;
"3" = 0;
"4" = 0;
"5" = 0;
"6" = 0;
"7" = 0;
"8" = 0;
"9" = 0;
};
};
width = 266;
}
);
unicode = 616;
},
{
color = 3;
glyphname = j;
lastChange = "2024-02-13 17:39:30 +0000";
layers = (
{
anchors = (
{
name = bottom;
pos = (102,-100);
},
{
name = top;
pos = (102,450);
}
);
layerId = m001;
shapes = (
{
closed = 1;
nodes = (
(118,-221,o),
(241,-166,o),
(241,-36,cs),
(241,469,l),
(210,469,l),
(8,430,l),
(8,401,l),
(68,357,l),
(68,-117,ls),
(68,-137,o),
(69,-164,o),
(47,-164,c),
(-19,-104,l),
(-41,-104,l),
(-59,-211,l),
(-34,-219,o),
(-23,-221,o),
(32,-221,cs)
);
},
{
closed = 1;
nodes = (
(195,498,o),
(265,557,o),
(265,592,cs),
(265,630,o),
(185,675,o),
(152,675,cs),
(115,675,o),
(49,614,o),
(49,579,cs),
(49,543,o),
(128,498,o),
(162,498,cs)
);
}
);
userData = {
com.hugojourdan.ColorFlow = {
"0" = 0;
"1" = 0;
"10" = 0;
"11" = 0;
"2" = 0;
"3" = 0;
"4" = 0;
"5" = 0;
"6" = 0;
"7" = 0;
"8" = 0;
"9" = 0;
};
};
width = 286;
},
{
anchors = (
{
name = bottom;
pos = (51,-100);
},
{
name = top;
pos = (51,450);
}
);
layerId = "E311F2CF-05EC-45EB-99C0-CA1AFFE6A9D5";
shapes = (
{
closed = 1;
nodes = (
(118,-238,o),
(161,-118,o),
(161,10,cs),
(161,460,l),
(130,460,l),
(22,421,l),
(22,406,l),
(95,392,l),
(95,-42,ls),
(95,-185,o),
(56,-204,o),
(16,-210,c),
(-34,-163,l),
(-58,-163,l),
(-70,-232,l),
(-59,-235,o),
(-34,-238,o),
(-27,-238,cs)
);
},
{
closed = 1;
nodes = (
(144,551,o),
(174,582,o),
(174,601,cs),
(174,619,o),
(139,643,o),
(125,643,cs),
(110,643,o),
(81,611,o),
(81,593,cs),
(81,575,o),
(114,551,o),
(130,551,cs)
);
}
);
userData = {
com.hugojourdan.ColorFlow = {
"0" = 0;
"1" = 0;
"10" = 0;
"11" = 0;
"2" = 0;
"3" = 0;
"4" = 0;
"5" = 0;
"6" = 0;
"7" = 0;
"8" = 0;
"9" = 0;
};
};
width = 254;
},
{
anchors = (
{
name = bottom;
pos = (102,-100);
},
{
name = top;
pos = (102,450);
}
);
associatedMasterId = m001;
layerId = "4E959DD1-D63C-4D27-B7E2-1A27A9467D4B";
name = "3 de oct. de 23, 10:40";
shapes = (
{
closed = 1;
nodes = (
(118,-221,o),
(241,-166,o),
(241,-36,cs),
(241,469,l),
(210,469,l),
(8,430,l),
(8,401,l),
(68,357,l),
(68,-117,ls),
(68,-137,o),
(69,-164,o),
(57,-164,c),
(-20,-104,l),
(-42,-104,l),
(-59,-211,l),
(-34,-219,o),
(-23,-221,o),
(32,-221,cs)
);
},
{
closed = 1;
nodes = (
(195,498,o),
(265,557,o),
(265,592,cs),
(265,630,o),
(185,675,o),
(152,675,cs),
(115,675,o),
(49,614,o),
(49,579,cs),
(49,543,o),
(128,498,o),
(162,498,cs)
);
}
);
width = 286;
}
);
unicode = 106;
},
{
color = 11;
glyphname = jdotless;
lastChange = "2025-03-03 16:31:59 +0000";
layers = (
{
anchors = (
{
name = top;
pos = (106,450);
}
);
layerId = m001;
shapes = (
{
closed = 1;
nodes = (
(144,-222,o),
(241,-146,o),
(241,-36,cs),
(241,469,l),
(210,469,l),
(8,430,l),
(8,401,l),
(68,357,l),
(68,-117,ls),
(68,-158,o),
(64,-164,o),
(57,-164,c),
(-20,-104,l),
(-42,-104,l),
(-59,-211,l),
(-34,-218,o),
(-5,-222,o),
(32,-222,cs)
);
}
);
userData = {
com.hugojourdan.ColorFlow = {
"0" = 0;
"1" = 0;
"10" = 0;
"11" = 0;
"2" = 0;
"3" = 0;
"4" = 0;
"5" = 0;
"6" = 0;
"7" = 0;
"8" = 0;
"9" = 0;
};
};
width = 286;
},
{
anchors = (
{
name = top;
pos = (134,450);
}
);
layerId = "E311F2CF-05EC-45EB-99C0-CA1AFFE6A9D5";
shapes = (
{
closed = 1;
nodes = (
(91,-238,o),
(161,-158,o),
(161,10,cs),
(161,460,l),
(130,460,l),
(22,421,l),
(22,406,l),
(95,392,l),
(95,-42,ls),
(95,-185,o),
(56,-206,o),
(16,-210,c),
(-34,-163,l),
(-58,-163,l),
(-70,-232,l),
(-57,-236,o),
(-41,-238,o),
(-27,-238,cs)
);
}
);
userData = {
com.hugojourdan.ColorFlow = {
"0" = 0;
"1" = 0;
"10" = 0;
"11" = 0;
"2" = 0;
"3" = 0;
"4" = 0;
"5" = 0;
"6" = 0;
"7" = 0;
"8" = 0;
"9" = 0;
};
};
width = 254;
}
);
unicode = 567;
},
